<svg width="89" height="86" viewBox="0 0 89 86" fill="none" xmlns="http://www.w3.org/2000/svg">
<g clip-path="url(#clip0_1_370)">
<path d="M10.2 34.48C14.88 31.6 20.36 25.52 20.36 19.24C20.36 14.08 16.72 10.76 11.64 10.76C5.4 10.76 2.04 15.8 2.04 20.92L6.76 21.28C6.88 18.4 8 15.4 11.64 15.4C14.4 15.4 15.56 17.16 15.56 19.56C15.56 26.12 6.92 32.08 2 35.04V39H21.52V34.48H10.2ZM35.3575 39.4C40.7175 39.4 45.6775 36.6 45.6775 30.84C45.6775 27.76 44.2775 25.24 41.6375 23.84C43.2775 22.48 44.3175 20.56 44.3175 18.28C44.3175 13.52 39.9975 10.72 35.3575 10.72C30.7175 10.72 26.3975 13.52 26.3975 18.28C26.3975 20.56 27.4375 22.48 29.0775 23.84C26.4375 25.24 25.0375 27.76 25.0375 30.84C25.0375 36.6 29.9975 39.4 35.3575 39.4ZM35.3575 22.48C32.8775 22.48 31.1975 21.12 31.1975 18.68C31.1975 16.68 32.9175 15.32 35.3575 15.32C37.7975 15.32 39.5175 16.68 39.5175 18.68C39.5175 21.12 37.8375 22.48 35.3575 22.48ZM35.3575 34.84C32.2375 34.84 29.8375 33.36 29.8375 30.48C29.8375 27.44 32.1175 25.76 35.3575 25.76C38.5975 25.76 40.8775 27.44 40.8775 30.48C40.8775 33.36 38.4775 34.84 35.3575 34.84ZM62.715 20.6C61.395 20.08 59.995 19.84 58.555 19.92L64.275 11.12H58.755L50.435 24.52C49.515 26.04 48.875 27.76 48.875 29.72C48.875 35.04 53.475 39.4 59.075 39.4C64.635 39.4 69.195 35.04 69.195 29.68C69.195 25.48 66.435 22 62.715 20.6ZM59.075 34.8C56.115 34.8 53.795 32.48 53.795 29.68C53.795 26.88 56.115 24.56 59.075 24.56C61.995 24.56 64.315 26.88 64.315 29.68C64.315 32.48 61.995 34.8 59.075 34.8Z" fill="#FAAD13"/>
<path d="M6.94531 79H1.37402V69.0059H6.94531V70.0381H2.53613V73.2578H6.67871V74.2832H2.53613V77.9609H6.94531V79ZM14.123 79V74.1533C14.123 73.5426 13.984 73.0869 13.7061 72.7861C13.4281 72.4854 12.9928 72.335 12.4004 72.335C11.6165 72.335 11.0423 72.5469 10.6777 72.9707C10.3132 73.3945 10.1309 74.0941 10.1309 75.0693V79H8.99609V71.5078H9.91895L10.1035 72.5332H10.1582C10.3906 72.1641 10.7165 71.8792 11.1357 71.6787C11.555 71.4736 12.0221 71.3711 12.5371 71.3711C13.4395 71.3711 14.1185 71.5898 14.5742 72.0273C15.0299 72.4603 15.2578 73.1553 15.2578 74.1123V79H14.123ZM23.7275 71.5078V72.2256L22.3398 72.3896C22.4674 72.5492 22.5814 72.7588 22.6816 73.0186C22.7819 73.2738 22.832 73.5632 22.832 73.8867C22.832 74.6204 22.5814 75.2061 22.0801 75.6436C21.5788 76.0811 20.8906 76.2998 20.0156 76.2998C19.7923 76.2998 19.5827 76.2816 19.3867 76.2451C18.9036 76.5003 18.6621 76.8216 18.6621 77.209C18.6621 77.4141 18.7464 77.5667 18.915 77.667C19.0837 77.7627 19.373 77.8105 19.7832 77.8105H21.1094C21.9206 77.8105 22.5426 77.9814 22.9756 78.3232C23.4131 78.665 23.6318 79.1618 23.6318 79.8135C23.6318 80.6429 23.2992 81.2741 22.6338 81.707C21.9684 82.1445 20.9977 82.3633 19.7217 82.3633C18.7419 82.3633 17.9854 82.181 17.4521 81.8164C16.9235 81.4518 16.6592 80.9368 16.6592 80.2715C16.6592 79.8158 16.805 79.4215 17.0967 79.0889C17.3883 78.7562 17.7985 78.5306 18.3271 78.4121C18.1357 78.3255 17.974 78.1911 17.8418 78.0088C17.7142 77.8265 17.6504 77.6146 17.6504 77.373C17.6504 77.0996 17.7233 76.8604 17.8691 76.6553C18.015 76.4502 18.2451 76.252 18.5596 76.0605C18.1722 75.901 17.8555 75.6299 17.6094 75.2471C17.3678 74.8643 17.2471 74.4268 17.2471 73.9346C17.2471 73.1143 17.4932 72.4831 17.9854 72.041C18.4775 71.5944 19.1748 71.3711 20.0771 71.3711C20.4691 71.3711 20.8223 71.4167 21.1367 71.5078H23.7275ZM17.7529 80.2578C17.7529 80.6634 17.9238 80.971 18.2656 81.1807C18.6074 81.3903 19.0973 81.4951 19.7354 81.4951C20.6878 81.4951 21.3919 81.3516 21.8477 81.0645C22.3079 80.7819 22.5381 80.3968 22.5381 79.9092C22.5381 79.5036 22.4128 79.221 22.1621 79.0615C21.9115 78.9066 21.4398 78.8291 20.7471 78.8291H19.3867C18.8717 78.8291 18.4707 78.9521 18.1836 79.1982C17.8965 79.4443 17.7529 79.7975 17.7529 80.2578ZM18.3682 73.9072C18.3682 74.4313 18.5163 74.8278 18.8125 75.0967C19.1087 75.3656 19.5212 75.5 20.0498 75.5C21.1572 75.5 21.7109 74.9622 21.7109 73.8867C21.7109 72.7611 21.1504 72.1982 20.0293 72.1982C19.4961 72.1982 19.0859 72.3418 18.7988 72.6289C18.5117 72.916 18.3682 73.3421 18.3682 73.9072ZM29.873 79L29.6475 77.9336H29.5928C29.2191 78.403 28.8454 78.722 28.4717 78.8906C28.1025 79.0547 27.64 79.1367 27.084 79.1367C26.3411 79.1367 25.7578 78.9453 25.334 78.5625C24.9147 78.1797 24.7051 77.6351 24.7051 76.9287C24.7051 75.4157 25.915 74.6227 28.335 74.5498L29.6064 74.5088V74.0439C29.6064 73.4561 29.4788 73.0231 29.2236 72.7451C28.973 72.4626 28.5697 72.3213 28.0137 72.3213C27.3893 72.3213 26.6829 72.5127 25.8945 72.8955L25.5459 72.0273C25.915 71.8268 26.3184 71.6696 26.7559 71.5557C27.1979 71.4417 27.64 71.3848 28.082 71.3848C28.9753 71.3848 29.6361 71.583 30.0645 71.9795C30.4974 72.376 30.7139 73.0117 30.7139 73.8867V79H29.873ZM27.3096 78.2002C28.016 78.2002 28.5697 78.0065 28.9707 77.6191C29.3763 77.2318 29.5791 76.6895 29.5791 75.9922V75.3154L28.4443 75.3633C27.542 75.3952 26.8903 75.5365 26.4893 75.7871C26.0928 76.0332 25.8945 76.4183 25.8945 76.9424C25.8945 77.3525 26.0176 77.6647 26.2637 77.8789C26.5143 78.0931 26.863 78.2002 27.3096 78.2002ZM39.1904 71.5078V72.2256L37.8027 72.3896C37.9303 72.5492 38.0443 72.7588 38.1445 73.0186C38.2448 73.2738 38.2949 73.5632 38.2949 73.8867C38.2949 74.6204 38.0443 75.2061 37.543 75.6436C37.0417 76.0811 36.3535 76.2998 35.4785 76.2998C35.2552 76.2998 35.0456 76.2816 34.8496 76.2451C34.3665 76.5003 34.125 76.8216 34.125 77.209C34.125 77.4141 34.2093 77.5667 34.3779 77.667C34.5465 77.7627 34.8359 77.8105 35.2461 77.8105H36.5723C37.3835 77.8105 38.0055 77.9814 38.4385 78.3232C38.876 78.665 39.0947 79.1618 39.0947 79.8135C39.0947 80.6429 38.762 81.2741 38.0967 81.707C37.4313 82.1445 36.4606 82.3633 35.1846 82.3633C34.2048 82.3633 33.4482 82.181 32.915 81.8164C32.3864 81.4518 32.1221 80.9368 32.1221 80.2715C32.1221 79.8158 32.2679 79.4215 32.5596 79.0889C32.8512 78.7562 33.2614 78.5306 33.79 78.4121C33.5986 78.3255 33.4368 78.1911 33.3047 78.0088C33.1771 77.8265 33.1133 77.6146 33.1133 77.373C33.1133 77.0996 33.1862 76.8604 33.332 76.6553C33.4779 76.4502 33.708 76.252 34.0225 76.0605C33.6351 75.901 33.3184 75.6299 33.0723 75.2471C32.8307 74.8643 32.71 74.4268 32.71 73.9346C32.71 73.1143 32.9561 72.4831 33.4482 72.041C33.9404 71.5944 34.6377 71.3711 35.54 71.3711C35.932 71.3711 36.2852 71.4167 36.5996 71.5078H39.1904ZM33.2158 80.2578C33.2158 80.6634 33.3867 80.971 33.7285 81.1807C34.0703 81.3903 34.5602 81.4951 35.1982 81.4951C36.1507 81.4951 36.8548 81.3516 37.3105 81.0645C37.7708 80.7819 38.001 80.3968 38.001 79.9092C38.001 79.5036 37.8757 79.221 37.625 79.0615C37.3743 78.9066 36.9027 78.8291 36.21 78.8291H34.8496C34.3346 78.8291 33.9336 78.9521 33.6465 79.1982C33.3594 79.4443 33.2158 79.7975 33.2158 80.2578ZM33.8311 73.9072C33.8311 74.4313 33.9792 74.8278 34.2754 75.0967C34.5716 75.3656 34.984 75.5 35.5127 75.5C36.6201 75.5 37.1738 74.9622 37.1738 73.8867C37.1738 72.7611 36.6133 72.1982 35.4922 72.1982C34.959 72.1982 34.5488 72.3418 34.2617 72.6289C33.9746 72.916 33.8311 73.3421 33.8311 73.9072ZM43.8936 79.1367C42.7861 79.1367 41.9111 78.7995 41.2686 78.125C40.6305 77.4505 40.3115 76.514 40.3115 75.3154C40.3115 74.1077 40.6077 73.1484 41.2002 72.4375C41.7972 71.7266 42.597 71.3711 43.5996 71.3711C44.5384 71.3711 45.2812 71.681 45.8281 72.3008C46.375 72.916 46.6484 73.7295 46.6484 74.7412V75.459H41.4873C41.5101 76.3385 41.7311 77.0062 42.1504 77.4619C42.5742 77.9176 43.1689 78.1455 43.9346 78.1455C44.7412 78.1455 45.5387 77.9769 46.3271 77.6396V78.6514C45.9261 78.8245 45.5456 78.9476 45.1855 79.0205C44.8301 79.098 44.3994 79.1367 43.8936 79.1367ZM43.5859 72.3213C42.9844 72.3213 42.5036 72.5173 42.1436 72.9092C41.7881 73.3011 41.5785 73.8434 41.5146 74.5361H45.4316C45.4316 73.8206 45.2721 73.2738 44.9531 72.8955C44.6341 72.5127 44.1784 72.3213 43.5859 72.3213ZM58.1396 79V74.126C58.1396 73.529 58.012 73.0824 57.7568 72.7861C57.5016 72.4854 57.1051 72.335 56.5674 72.335C55.861 72.335 55.3392 72.5378 55.002 72.9434C54.6647 73.349 54.4961 73.9733 54.4961 74.8164V79H53.3613V74.126C53.3613 73.529 53.2337 73.0824 52.9785 72.7861C52.7233 72.4854 52.3245 72.335 51.7822 72.335C51.0713 72.335 50.5495 72.5492 50.2168 72.9775C49.8887 73.4014 49.7246 74.0986 49.7246 75.0693V79H48.5898V71.5078H49.5127L49.6973 72.5332H49.752C49.9661 72.1686 50.2669 71.8838 50.6543 71.6787C51.0462 71.4736 51.4837 71.3711 51.9668 71.3711C53.138 71.3711 53.9036 71.7949 54.2637 72.6426H54.3184C54.5417 72.2507 54.8652 71.9408 55.2891 71.7129C55.7129 71.485 56.196 71.3711 56.7383 71.3711C57.5859 71.3711 58.2194 71.5898 58.6387 72.0273C59.0625 72.4603 59.2744 73.1553 59.2744 74.1123V79H58.1396ZM64.7842 79.1367C63.6768 79.1367 62.8018 78.7995 62.1592 78.125C61.5212 77.4505 61.2021 76.514 61.2021 75.3154C61.2021 74.1077 61.4984 73.1484 62.0908 72.4375C62.6878 71.7266 63.4876 71.3711 64.4902 71.3711C65.429 71.3711 66.1719 71.681 66.7188 72.3008C67.2656 72.916 67.5391 73.7295 67.5391 74.7412V75.459H62.3779C62.4007 76.3385 62.6217 77.0062 63.041 77.4619C63.4648 77.9176 64.0596 78.1455 64.8252 78.1455C65.6318 78.1455 66.4294 77.9769 67.2178 77.6396V78.6514C66.8167 78.8245 66.4362 78.9476 66.0762 79.0205C65.7207 79.098 65.29 79.1367 64.7842 79.1367ZM64.4766 72.3213C63.875 72.3213 63.3942 72.5173 63.0342 72.9092C62.6787 73.3011 62.4691 73.8434 62.4053 74.5361H66.3223C66.3223 73.8206 66.1628 73.2738 65.8438 72.8955C65.5247 72.5127 65.069 72.3213 64.4766 72.3213ZM74.6074 79V74.1533C74.6074 73.5426 74.4684 73.0869 74.1904 72.7861C73.9124 72.4854 73.4772 72.335 72.8848 72.335C72.1009 72.335 71.5267 72.5469 71.1621 72.9707C70.7975 73.3945 70.6152 74.0941 70.6152 75.0693V79H69.4805V71.5078H70.4033L70.5879 72.5332H70.6426C70.875 72.1641 71.2008 71.8792 71.6201 71.6787C72.0394 71.4736 72.5065 71.3711 73.0215 71.3711C73.9238 71.3711 74.6029 71.5898 75.0586 72.0273C75.5143 72.4603 75.7422 73.1553 75.7422 74.1123V79H74.6074ZM80.5 78.2002C80.7005 78.2002 80.8942 78.1865 81.0811 78.1592C81.2679 78.1273 81.416 78.0954 81.5254 78.0635V78.9316C81.4023 78.9909 81.2201 79.0387 80.9785 79.0752C80.7415 79.1162 80.5273 79.1367 80.3359 79.1367C78.8867 79.1367 78.1621 78.3734 78.1621 76.8467V72.3896H77.0889V71.8428L78.1621 71.3711L78.6406 69.7715H79.2969V71.5078H81.4707V72.3896H79.2969V76.7988C79.2969 77.25 79.404 77.5964 79.6182 77.8379C79.8324 78.0794 80.1263 78.2002 80.5 78.2002ZM87.8623 76.9561C87.8623 77.6533 87.6025 78.1911 87.083 78.5693C86.5635 78.9476 85.8343 79.1367 84.8955 79.1367C83.902 79.1367 83.1273 78.9795 82.5713 78.665V77.6123C82.9313 77.7946 83.3164 77.9382 83.7266 78.043C84.1413 78.1478 84.54 78.2002 84.9229 78.2002C85.5153 78.2002 85.971 78.1068 86.29 77.9199C86.609 77.7285 86.7686 77.4391 86.7686 77.0518C86.7686 76.7601 86.641 76.5117 86.3857 76.3066C86.1351 76.097 85.6429 75.8509 84.9092 75.5684C84.2119 75.3086 83.7152 75.083 83.4189 74.8916C83.1273 74.6956 82.9085 74.4746 82.7627 74.2285C82.6214 73.9824 82.5508 73.6885 82.5508 73.3467C82.5508 72.736 82.7992 72.2552 83.2959 71.9043C83.7926 71.5488 84.474 71.3711 85.3398 71.3711C86.1465 71.3711 86.9349 71.5352 87.7051 71.8633L87.3018 72.7861C86.5498 72.4762 85.8685 72.3213 85.2578 72.3213C84.7201 72.3213 84.3145 72.4056 84.041 72.5742C83.7676 72.7428 83.6309 72.9753 83.6309 73.2715C83.6309 73.472 83.681 73.6429 83.7812 73.7842C83.8861 73.9255 84.0524 74.0599 84.2803 74.1875C84.5081 74.3151 84.9456 74.4997 85.5928 74.7412C86.4814 75.0648 87.0807 75.3906 87.3906 75.7188C87.7051 76.0469 87.8623 76.4593 87.8623 76.9561Z" fill="#5A7184"/>
</g>
<defs>
<clipPath id="clip0_1_370">
<rect width="89" height="86" fill="white"/>
</clipPath>
</defs>
</svg>
