<svg width="72" height="86" viewBox="0 0 72 86" fill="none" xmlns="http://www.w3.org/2000/svg">
<g clip-path="url(#clip0_1_367)">
<path d="M11.52 39.4C16.96 39.4 21.84 36.44 21.84 30.8C21.84 27.76 20.44 25.12 16.72 24.08C19.48 22.8 20.36 20.52 20.36 18.36C20.36 13.56 16.08 10.72 11.44 10.72C6.64 10.72 2.52 13.76 2.52 19L7.24 19.32C7.28 16.8 8.96 15.32 11.52 15.32C13.76 15.32 15.56 16.48 15.56 18.96C15.56 21.12 14.96 22.52 10.28 22.52V26.32C13.4 26.32 17.04 26.44 17.04 30.4C17.04 33.44 14.48 34.8 11.6 34.8C8.36 34.8 5.92 33.08 5.92 29.92L1.16 30.2C1.16 36.36 5.96 39.4 11.52 39.4ZM35.3575 39.4C40.7175 39.4 45.6775 36.6 45.6775 30.84C45.6775 27.76 44.2775 25.24 41.6375 23.84C43.2775 22.48 44.3175 20.56 44.3175 18.28C44.3175 13.52 39.9975 10.72 35.3575 10.72C30.7175 10.72 26.3975 13.52 26.3975 18.28C26.3975 20.56 27.4375 22.48 29.0775 23.84C26.4375 25.24 25.0375 27.76 25.0375 30.84C25.0375 36.6 29.9975 39.4 35.3575 39.4ZM35.3575 22.48C32.8775 22.48 31.1975 21.12 31.1975 18.68C31.1975 16.68 32.9175 15.32 35.3575 15.32C37.7975 15.32 39.5175 16.68 39.5175 18.68C39.5175 21.12 37.8375 22.48 35.3575 22.48ZM35.3575 34.84C32.2375 34.84 29.8375 33.36 29.8375 30.48C29.8375 27.44 32.1175 25.76 35.3575 25.76C38.5975 25.76 40.8775 27.44 40.8775 30.48C40.8775 33.36 38.4775 34.84 35.3575 34.84ZM58.635 11.12V12.8C58.635 14.68 57.555 15.48 55.635 15.48H51.915V19.28H58.435V39H63.235V11.12H58.635Z" fill="#FAAD13"/>
<path d="M2.53613 74.8438V79H1.37402V69.0059H4.11523C5.34115 69.0059 6.24577 69.2406 6.8291 69.71C7.41699 70.1794 7.71094 70.8857 7.71094 71.8291C7.71094 73.1507 7.04102 74.0439 5.70117 74.5088L8.41504 79H7.04102L4.62109 74.8438H2.53613ZM2.53613 73.8457H4.12891C4.94922 73.8457 5.55078 73.6839 5.93359 73.3604C6.31641 73.0322 6.50781 72.5423 6.50781 71.8906C6.50781 71.2298 6.31185 70.7536 5.91992 70.4619C5.53255 70.1702 4.9082 70.0244 4.04688 70.0244H2.53613V73.8457ZM13.0225 79.1367C11.915 79.1367 11.04 78.7995 10.3975 78.125C9.75944 77.4505 9.44043 76.514 9.44043 75.3154C9.44043 74.1077 9.73665 73.1484 10.3291 72.4375C10.9261 71.7266 11.7259 71.3711 12.7285 71.3711C13.6673 71.3711 14.4102 71.681 14.957 72.3008C15.5039 72.916 15.7773 73.7295 15.7773 74.7412V75.459H10.6162C10.639 76.3385 10.86 77.0062 11.2793 77.4619C11.7031 77.9176 12.2979 78.1455 13.0635 78.1455C13.8701 78.1455 14.6676 77.9769 15.4561 77.6396V78.6514C15.055 78.8245 14.6745 78.9476 14.3145 79.0205C13.959 79.098 13.5283 79.1367 13.0225 79.1367ZM12.7148 72.3213C12.1133 72.3213 11.6325 72.5173 11.2725 72.9092C10.917 73.3011 10.7074 73.8434 10.6436 74.5361H14.5605C14.5605 73.8206 14.401 73.2738 14.082 72.8955C13.763 72.5127 13.3073 72.3213 12.7148 72.3213ZM22.3262 79L22.1006 77.9336H22.0459C21.6722 78.403 21.2985 78.722 20.9248 78.8906C20.5557 79.0547 20.0931 79.1367 19.5371 79.1367C18.7943 79.1367 18.2109 78.9453 17.7871 78.5625C17.3678 78.1797 17.1582 77.6351 17.1582 76.9287C17.1582 75.4157 18.3682 74.6227 20.7881 74.5498L22.0596 74.5088V74.0439C22.0596 73.4561 21.932 73.0231 21.6768 72.7451C21.4261 72.4626 21.0228 72.3213 20.4668 72.3213C19.8424 72.3213 19.1361 72.5127 18.3477 72.8955L17.999 72.0273C18.3682 71.8268 18.7715 71.6696 19.209 71.5557C19.651 71.4417 20.0931 71.3848 20.5352 71.3848C21.4284 71.3848 22.0892 71.583 22.5176 71.9795C22.9505 72.376 23.167 73.0117 23.167 73.8867V79H22.3262ZM19.7627 78.2002C20.4691 78.2002 21.0228 78.0065 21.4238 77.6191C21.8294 77.2318 22.0322 76.6895 22.0322 75.9922V75.3154L20.8975 75.3633C19.9951 75.3952 19.3434 75.5365 18.9424 75.7871C18.5459 76.0332 18.3477 76.4183 18.3477 76.9424C18.3477 77.3525 18.4707 77.6647 18.7168 77.8789C18.9674 78.0931 19.3161 78.2002 19.7627 78.2002ZM28.5059 79.1367C27.4212 79.1367 26.5804 78.804 25.9834 78.1387C25.391 77.4688 25.0947 76.5231 25.0947 75.3018C25.0947 74.0485 25.3955 73.0801 25.9971 72.3965C26.6032 71.7129 27.4645 71.3711 28.5811 71.3711C28.9411 71.3711 29.3011 71.4098 29.6611 71.4873C30.0212 71.5648 30.3037 71.6559 30.5088 71.7607L30.1602 72.7246C29.9095 72.6243 29.6361 72.5423 29.3398 72.4785C29.0436 72.4102 28.7816 72.376 28.5537 72.376C27.0316 72.376 26.2705 73.3467 26.2705 75.2881C26.2705 76.2087 26.4551 76.915 26.8242 77.4072C27.1979 77.8994 27.7493 78.1455 28.4785 78.1455C29.1029 78.1455 29.7432 78.0111 30.3994 77.7422V78.7471C29.8981 79.0068 29.2669 79.1367 28.5059 79.1367ZM37.3105 79V74.1533C37.3105 73.5426 37.1715 73.0869 36.8936 72.7861C36.6156 72.4854 36.1803 72.335 35.5879 72.335C34.7995 72.335 34.223 72.5492 33.8584 72.9775C33.4984 73.4059 33.3184 74.1077 33.3184 75.083V79H32.1836V68.3633H33.3184V71.583C33.3184 71.9704 33.3001 72.2917 33.2637 72.5469H33.332C33.5553 72.1868 33.8721 71.9043 34.2822 71.6992C34.6969 71.4896 35.1686 71.3848 35.6973 71.3848C36.6133 71.3848 37.2992 71.6035 37.7549 72.041C38.2152 72.474 38.4453 73.1644 38.4453 74.1123V79H37.3105ZM50.9277 71.918C50.9277 72.9297 50.5814 73.709 49.8887 74.2559C49.2005 74.7982 48.2139 75.0693 46.9287 75.0693H45.7529V79H44.5908V69.0059H47.1816C49.679 69.0059 50.9277 69.9766 50.9277 71.918ZM45.7529 74.0713H46.7988C47.8288 74.0713 48.5739 73.9049 49.0342 73.5723C49.4945 73.2396 49.7246 72.7064 49.7246 71.9727C49.7246 71.3118 49.5081 70.8197 49.0752 70.4961C48.6423 70.1725 47.9678 70.0107 47.0518 70.0107H45.7529V74.0713ZM59.3223 75.2471C59.3223 76.4684 59.0146 77.4232 58.3994 78.1113C57.7842 78.7949 56.9342 79.1367 55.8496 79.1367C55.1797 79.1367 54.585 78.9795 54.0654 78.665C53.5459 78.3506 53.1449 77.8994 52.8623 77.3115C52.5798 76.7236 52.4385 76.0355 52.4385 75.2471C52.4385 74.0257 52.7438 73.0755 53.3545 72.3965C53.9652 71.7129 54.8128 71.3711 55.8975 71.3711C56.9456 71.3711 57.7773 71.7197 58.3926 72.417C59.0124 73.1143 59.3223 74.0576 59.3223 75.2471ZM53.6143 75.2471C53.6143 76.2041 53.8057 76.9333 54.1885 77.4346C54.5713 77.9359 55.1341 78.1865 55.877 78.1865C56.6198 78.1865 57.1826 77.9382 57.5654 77.4414C57.9528 76.9401 58.1465 76.2087 58.1465 75.2471C58.1465 74.2946 57.9528 73.5723 57.5654 73.0801C57.1826 72.5833 56.6152 72.335 55.8633 72.335C55.1204 72.335 54.5599 72.5788 54.1816 73.0664C53.8034 73.554 53.6143 74.2809 53.6143 75.2471ZM66.1514 76.9561C66.1514 77.6533 65.8916 78.1911 65.3721 78.5693C64.8525 78.9476 64.1234 79.1367 63.1846 79.1367C62.1911 79.1367 61.4163 78.9795 60.8604 78.665V77.6123C61.2204 77.7946 61.6055 77.9382 62.0156 78.043C62.4303 78.1478 62.8291 78.2002 63.2119 78.2002C63.8044 78.2002 64.2601 78.1068 64.5791 77.9199C64.8981 77.7285 65.0576 77.4391 65.0576 77.0518C65.0576 76.7601 64.93 76.5117 64.6748 76.3066C64.4242 76.097 63.932 75.8509 63.1982 75.5684C62.501 75.3086 62.0042 75.083 61.708 74.8916C61.4163 74.6956 61.1976 74.4746 61.0518 74.2285C60.9105 73.9824 60.8398 73.6885 60.8398 73.3467C60.8398 72.736 61.0882 72.2552 61.585 71.9043C62.0817 71.5488 62.763 71.3711 63.6289 71.3711C64.4355 71.3711 65.224 71.5352 65.9941 71.8633L65.5908 72.7861C64.8389 72.4762 64.1576 72.3213 63.5469 72.3213C63.0091 72.3213 62.6035 72.4056 62.3301 72.5742C62.0566 72.7428 61.9199 72.9753 61.9199 73.2715C61.9199 73.472 61.9701 73.6429 62.0703 73.7842C62.1751 73.9255 62.3415 74.0599 62.5693 74.1875C62.7972 74.3151 63.2347 74.4997 63.8818 74.7412C64.7705 75.0648 65.3698 75.3906 65.6797 75.7188C65.9941 76.0469 66.1514 76.4593 66.1514 76.9561ZM70.4238 78.2002C70.6243 78.2002 70.818 78.1865 71.0049 78.1592C71.1917 78.1273 71.3398 78.0954 71.4492 78.0635V78.9316C71.3262 78.9909 71.1439 79.0387 70.9023 79.0752C70.6654 79.1162 70.4512 79.1367 70.2598 79.1367C68.8105 79.1367 68.0859 78.3734 68.0859 76.8467V72.3896H67.0127V71.8428L68.0859 71.3711L68.5645 69.7715H69.2207V71.5078H71.3945V72.3896H69.2207V76.7988C69.2207 77.25 69.3278 77.5964 69.542 77.8379C69.7562 78.0794 70.0501 78.2002 70.4238 78.2002Z" fill="#5A7184"/>
</g>
<defs>
<clipPath id="clip0_1_367">
<rect width="72" height="86" fill="white"/>
</clipPath>
</defs>
</svg>
