<svg width="84" height="86" viewBox="0 0 84 86" fill="none" xmlns="http://www.w3.org/2000/svg">
<g clip-path="url(#clip0_1_373)">
<path d="M15.44 20.6C14.12 20.08 12.72 19.84 11.28 19.92L17 11.12H11.48L3.16 24.52C2.24 26.04 1.6 27.76 1.6 29.72C1.6 35.04 6.2 39.4 11.8 39.4C17.36 39.4 21.92 35.04 21.92 29.68C21.92 25.48 19.16 22 15.44 20.6ZM11.8 34.8C8.84 34.8 6.52 32.48 6.52 29.68C6.52 26.88 8.84 24.56 11.8 24.56C14.72 24.56 17.04 26.88 17.04 29.68C17.04 32.48 14.72 34.8 11.8 34.8ZM35.1575 39.4C40.5975 39.4 45.4775 36.44 45.4775 30.8C45.4775 27.76 44.0775 25.12 40.3575 24.08C43.1175 22.8 43.9975 20.52 43.9975 18.36C43.9975 13.56 39.7175 10.72 35.0775 10.72C30.2775 10.72 26.1575 13.76 26.1575 19L30.8775 19.32C30.9175 16.8 32.5975 15.32 35.1575 15.32C37.3975 15.32 39.1975 16.48 39.1975 18.96C39.1975 21.12 38.5975 22.52 33.9175 22.52V26.32C37.0375 26.32 40.6775 26.44 40.6775 30.4C40.6775 33.44 38.1175 34.8 35.2375 34.8C31.9975 34.8 29.5575 33.08 29.5575 29.92L24.7975 30.2C24.7975 36.36 29.5975 39.4 35.1575 39.4ZM59.555 19.84C58.275 19.84 56.755 20.08 55.235 21.04L56.235 15.72H67.795V11.12H52.275L49.595 25.8L54.115 26.92C55.035 25.48 56.555 24.32 58.915 24.32C62.435 24.32 63.955 26.68 63.955 29.28C63.955 32 62.315 34.8 58.795 34.8C55.475 34.8 53.755 32.44 53.475 30.16L48.755 30.96C49.435 35.64 53.475 39.4 58.835 39.4C64.795 39.4 69.035 34.6 69.035 29.28C69.035 24.2 65.155 19.84 59.555 19.84Z" fill="#FAAD13"/>
<path d="M7.71094 71.918C7.71094 72.9297 7.36458 73.709 6.67188 74.2559C5.98372 74.7982 4.99707 75.0693 3.71191 75.0693H2.53613V79H1.37402V69.0059H3.96484C6.46224 69.0059 7.71094 69.9766 7.71094 71.918ZM2.53613 74.0713H3.58203C4.61198 74.0713 5.3571 73.9049 5.81738 73.5723C6.27767 73.2396 6.50781 72.7064 6.50781 71.9727C6.50781 71.3118 6.29134 70.8197 5.8584 70.4961C5.42546 70.1725 4.75098 70.0107 3.83496 70.0107H2.53613V74.0713ZM13.0566 71.3711C13.3893 71.3711 13.6878 71.3984 13.9521 71.4531L13.7949 72.5059C13.485 72.4375 13.2116 72.4033 12.9746 72.4033C12.3685 72.4033 11.849 72.6494 11.416 73.1416C10.9876 73.6338 10.7734 74.2467 10.7734 74.9805V79H9.63867V71.5078H10.5752L10.7051 72.8955H10.7598C11.0378 72.4079 11.3727 72.0319 11.7646 71.7676C12.1566 71.5033 12.5872 71.3711 13.0566 71.3711ZM21.8203 75.2471C21.8203 76.4684 21.5127 77.4232 20.8975 78.1113C20.2822 78.7949 19.4323 79.1367 18.3477 79.1367C17.6777 79.1367 17.083 78.9795 16.5635 78.665C16.0439 78.3506 15.6429 77.8994 15.3604 77.3115C15.0778 76.7236 14.9365 76.0355 14.9365 75.2471C14.9365 74.0257 15.2419 73.0755 15.8525 72.3965C16.4632 71.7129 17.3109 71.3711 18.3955 71.3711C19.4437 71.3711 20.2754 71.7197 20.8906 72.417C21.5104 73.1143 21.8203 74.0576 21.8203 75.2471ZM16.1123 75.2471C16.1123 76.2041 16.3037 76.9333 16.6865 77.4346C17.0693 77.9359 17.6322 78.1865 18.375 78.1865C19.1178 78.1865 19.6807 77.9382 20.0635 77.4414C20.4508 76.9401 20.6445 76.2087 20.6445 75.2471C20.6445 74.2946 20.4508 73.5723 20.0635 73.0801C19.6807 72.5833 19.1133 72.335 18.3613 72.335C17.6185 72.335 17.0579 72.5788 16.6797 73.0664C16.3014 73.554 16.1123 74.2809 16.1123 75.2471ZM28.916 77.9951H28.8545C28.3304 78.7562 27.5465 79.1367 26.5029 79.1367C25.5231 79.1367 24.7598 78.8018 24.2129 78.1318C23.6706 77.4619 23.3994 76.5094 23.3994 75.2744C23.3994 74.0394 23.6729 73.0801 24.2197 72.3965C24.7666 71.7129 25.5277 71.3711 26.5029 71.3711C27.5192 71.3711 28.2985 71.7402 28.8408 72.4785H28.9297L28.8818 71.9385L28.8545 71.4121V68.3633H29.9893V79H29.0664L28.916 77.9951ZM26.6465 78.1865C27.4212 78.1865 27.9818 77.9769 28.3281 77.5576C28.679 77.1338 28.8545 76.4525 28.8545 75.5137V75.2744C28.8545 74.2126 28.6768 73.4561 28.3213 73.0049C27.9704 72.5492 27.4076 72.3213 26.6328 72.3213C25.9674 72.3213 25.457 72.5811 25.1016 73.1006C24.7507 73.6156 24.5752 74.3447 24.5752 75.2881C24.5752 76.2451 24.7507 76.9674 25.1016 77.4551C25.4525 77.9427 25.9674 78.1865 26.6465 78.1865ZM33.4688 71.5078V76.3682C33.4688 76.9788 33.6077 77.4346 33.8857 77.7354C34.1637 78.0361 34.599 78.1865 35.1914 78.1865C35.9753 78.1865 36.5472 77.9723 36.9072 77.5439C37.2718 77.1156 37.4541 76.416 37.4541 75.4453V71.5078H38.5889V79H37.6523L37.4883 77.9951H37.4268C37.1943 78.3643 36.8708 78.6468 36.4561 78.8428C36.0459 79.0387 35.5765 79.1367 35.0479 79.1367C34.1364 79.1367 33.4528 78.9202 32.9971 78.4873C32.5459 78.0544 32.3203 77.3617 32.3203 76.4092V71.5078H33.4688ZM43.9961 79.1367C42.9115 79.1367 42.0706 78.804 41.4736 78.1387C40.8812 77.4688 40.585 76.5231 40.585 75.3018C40.585 74.0485 40.8857 73.0801 41.4873 72.3965C42.0934 71.7129 42.9548 71.3711 44.0713 71.3711C44.4313 71.3711 44.7913 71.4098 45.1514 71.4873C45.5114 71.5648 45.7939 71.6559 45.999 71.7607L45.6504 72.7246C45.3997 72.6243 45.1263 72.5423 44.8301 72.4785C44.5339 72.4102 44.2718 72.376 44.0439 72.376C42.5218 72.376 41.7607 73.3467 41.7607 75.2881C41.7607 76.2087 41.9453 76.915 42.3145 77.4072C42.6882 77.8994 43.2396 78.1455 43.9688 78.1455C44.5931 78.1455 45.2334 78.0111 45.8896 77.7422V78.7471C45.3883 79.0068 44.7572 79.1367 43.9961 79.1367ZM50.0938 78.2002C50.2943 78.2002 50.488 78.1865 50.6748 78.1592C50.8617 78.1273 51.0098 78.0954 51.1191 78.0635V78.9316C50.9961 78.9909 50.8138 79.0387 50.5723 79.0752C50.3353 79.1162 50.1211 79.1367 49.9297 79.1367C48.4805 79.1367 47.7559 78.3734 47.7559 76.8467V72.3896H46.6826V71.8428L47.7559 71.3711L48.2344 69.7715H48.8906V71.5078H51.0645V72.3896H48.8906V76.7988C48.8906 77.25 48.9977 77.5964 49.2119 77.8379C49.4261 78.0794 49.7201 78.2002 50.0938 78.2002ZM62.0703 76.3408C62.0703 77.2204 61.7513 77.9062 61.1133 78.3984C60.4753 78.8906 59.6094 79.1367 58.5156 79.1367C57.3307 79.1367 56.4193 78.984 55.7812 78.6787V77.5576C56.1914 77.7308 56.638 77.8675 57.1211 77.9678C57.6042 78.068 58.0827 78.1182 58.5566 78.1182C59.3314 78.1182 59.9147 77.9723 60.3066 77.6807C60.6986 77.3844 60.8945 76.9743 60.8945 76.4502C60.8945 76.1038 60.8239 75.8213 60.6826 75.6025C60.5459 75.3792 60.3135 75.1742 59.9854 74.9873C59.6618 74.8005 59.1673 74.5885 58.502 74.3516C57.5723 74.0189 56.9069 73.6247 56.5059 73.1689C56.1094 72.7132 55.9111 72.1185 55.9111 71.3848C55.9111 70.6146 56.2005 70.0016 56.7793 69.5459C57.3581 69.0902 58.1237 68.8623 59.0762 68.8623C60.0697 68.8623 60.9834 69.0446 61.8174 69.4092L61.4551 70.4209C60.6302 70.0745 59.8281 69.9014 59.0488 69.9014C58.4336 69.9014 57.9528 70.0335 57.6064 70.2979C57.2601 70.5622 57.0869 70.929 57.0869 71.3984C57.0869 71.7448 57.1507 72.0296 57.2783 72.2529C57.4059 72.4717 57.6201 72.6745 57.9209 72.8613C58.2262 73.0436 58.6911 73.2464 59.3154 73.4697C60.3636 73.8434 61.0837 74.2445 61.4756 74.6729C61.8721 75.1012 62.0703 75.6572 62.0703 76.3408ZM70.4102 75.2471C70.4102 76.4684 70.1025 77.4232 69.4873 78.1113C68.8721 78.7949 68.0221 79.1367 66.9375 79.1367C66.2676 79.1367 65.6729 78.9795 65.1533 78.665C64.6338 78.3506 64.2327 77.8994 63.9502 77.3115C63.6676 76.7236 63.5264 76.0355 63.5264 75.2471C63.5264 74.0257 63.8317 73.0755 64.4424 72.3965C65.0531 71.7129 65.9007 71.3711 66.9854 71.3711C68.0335 71.3711 68.8652 71.7197 69.4805 72.417C70.1003 73.1143 70.4102 74.0576 70.4102 75.2471ZM64.7021 75.2471C64.7021 76.2041 64.8936 76.9333 65.2764 77.4346C65.6592 77.9359 66.222 78.1865 66.9648 78.1865C67.7077 78.1865 68.2705 77.9382 68.6533 77.4414C69.0407 76.9401 69.2344 76.2087 69.2344 75.2471C69.2344 74.2946 69.0407 73.5723 68.6533 73.0801C68.2705 72.5833 67.7031 72.335 66.9512 72.335C66.2083 72.335 65.6478 72.5788 65.2695 73.0664C64.8913 73.554 64.7021 74.2809 64.7021 75.2471ZM73.541 79H72.4062V68.3633H73.541V79ZM81.0469 77.9951H80.9854C80.4613 78.7562 79.6774 79.1367 78.6338 79.1367C77.654 79.1367 76.8906 78.8018 76.3438 78.1318C75.8014 77.4619 75.5303 76.5094 75.5303 75.2744C75.5303 74.0394 75.8037 73.0801 76.3506 72.3965C76.8975 71.7129 77.6585 71.3711 78.6338 71.3711C79.6501 71.3711 80.4294 71.7402 80.9717 72.4785H81.0605L81.0127 71.9385L80.9854 71.4121V68.3633H82.1201V79H81.1973L81.0469 77.9951ZM78.7773 78.1865C79.5521 78.1865 80.1126 77.9769 80.459 77.5576C80.8099 77.1338 80.9854 76.4525 80.9854 75.5137V75.2744C80.9854 74.2126 80.8076 73.4561 80.4521 73.0049C80.1012 72.5492 79.5384 72.3213 78.7637 72.3213C78.0983 72.3213 77.5879 72.5811 77.2324 73.1006C76.8815 73.6156 76.7061 74.3447 76.7061 75.2881C76.7061 76.2451 76.8815 76.9674 77.2324 77.4551C77.5833 77.9427 78.0983 78.1865 78.7773 78.1865Z" fill="#5A7184"/>
</g>
<defs>
<clipPath id="clip0_1_373">
<rect width="84" height="86" fill="white"/>
</clipPath>
</defs>
</svg>
