<svg width="80" height="86" viewBox="0 0 80 86" fill="none" xmlns="http://www.w3.org/2000/svg">
<g clip-path="url(#clip0_1_364)">
<path d="M11.72 39.4C17.08 39.4 22.04 36.6 22.04 30.84C22.04 27.76 20.64 25.24 18 23.84C19.64 22.48 20.68 20.56 20.68 18.28C20.68 13.52 16.36 10.72 11.72 10.72C7.08 10.72 2.76 13.52 2.76 18.28C2.76 20.56 3.8 22.48 5.44 23.84C2.8 25.24 1.4 27.76 1.4 30.84C1.4 36.6 6.36 39.4 11.72 39.4ZM11.72 22.48C9.24 22.48 7.56 21.12 7.56 18.68C7.56 16.68 9.28 15.32 11.72 15.32C14.16 15.32 15.88 16.68 15.88 18.68C15.88 21.12 14.2 22.48 11.72 22.48ZM11.72 34.84C8.6 34.84 6.2 33.36 6.2 30.48C6.2 27.44 8.48 25.76 11.72 25.76C14.96 25.76 17.24 27.44 17.24 30.48C17.24 33.36 14.84 34.84 11.72 34.84ZM34.9975 11.12V12.8C34.9975 14.68 33.9175 15.48 31.9975 15.48H28.2775V19.28H34.7975V39H39.5975V11.12H34.9975Z" fill="#FAAD13"/>
<path d="M1.37402 79V69.0059H2.53613V79H1.37402ZM14.6631 79V74.126C14.6631 73.529 14.5355 73.0824 14.2803 72.7861C14.0251 72.4854 13.6286 72.335 13.0908 72.335C12.3844 72.335 11.8626 72.5378 11.5254 72.9434C11.1882 73.349 11.0195 73.9733 11.0195 74.8164V79H9.88477V74.126C9.88477 73.529 9.75716 73.0824 9.50195 72.7861C9.24674 72.4854 8.84798 72.335 8.30566 72.335C7.59473 72.335 7.07292 72.5492 6.74023 72.9775C6.41211 73.4014 6.24805 74.0986 6.24805 75.0693V79H5.11328V71.5078H6.03613L6.2207 72.5332H6.27539C6.48958 72.1686 6.79036 71.8838 7.17773 71.6787C7.56966 71.4736 8.00716 71.3711 8.49023 71.3711C9.66146 71.3711 10.4271 71.7949 10.7871 72.6426H10.8418C11.0651 72.2507 11.3887 71.9408 11.8125 71.7129C12.2363 71.485 12.7194 71.3711 13.2617 71.3711C14.1094 71.3711 14.7428 71.5898 15.1621 72.0273C15.5859 72.4603 15.7979 73.1553 15.7979 74.1123V79H14.6631ZM21.6289 79.1367C21.1413 79.1367 20.6947 79.0479 20.2891 78.8701C19.888 78.6878 19.5508 78.4098 19.2773 78.0361H19.1953C19.25 78.4736 19.2773 78.8883 19.2773 79.2803V82.3633H18.1426V71.5078H19.0654L19.2227 72.5332H19.2773C19.569 72.123 19.9085 71.8268 20.2959 71.6445C20.6833 71.4622 21.1276 71.3711 21.6289 71.3711C22.6224 71.3711 23.388 71.7106 23.9258 72.3896C24.4681 73.0687 24.7393 74.0212 24.7393 75.2471C24.7393 76.4775 24.4635 77.4346 23.9121 78.1182C23.3652 78.7972 22.6042 79.1367 21.6289 79.1367ZM21.4648 72.335C20.6992 72.335 20.1455 72.5469 19.8037 72.9707C19.4619 73.3945 19.2865 74.069 19.2773 74.9941V75.2471C19.2773 76.2998 19.4528 77.054 19.8037 77.5098C20.1546 77.9609 20.7174 78.1865 21.4922 78.1865C22.1393 78.1865 22.6452 77.9245 23.0098 77.4004C23.3789 76.8763 23.5635 76.154 23.5635 75.2334C23.5635 74.2992 23.3789 73.5837 23.0098 73.0869C22.6452 72.5856 22.1302 72.335 21.4648 72.335ZM30.1465 71.3711C30.4792 71.3711 30.7777 71.3984 31.042 71.4531L30.8848 72.5059C30.5749 72.4375 30.3014 72.4033 30.0645 72.4033C29.4583 72.4033 28.9388 72.6494 28.5059 73.1416C28.0775 73.6338 27.8633 74.2467 27.8633 74.9805V79H26.7285V71.5078H27.665L27.7949 72.8955H27.8496C28.1276 72.4079 28.4626 72.0319 28.8545 71.7676C29.2464 71.5033 29.6771 71.3711 30.1465 71.3711ZM35.6084 79.1367C34.501 79.1367 33.626 78.7995 32.9834 78.125C32.3454 77.4505 32.0264 76.514 32.0264 75.3154C32.0264 74.1077 32.3226 73.1484 32.915 72.4375C33.512 71.7266 34.3118 71.3711 35.3145 71.3711C36.2533 71.3711 36.9961 71.681 37.543 72.3008C38.0898 72.916 38.3633 73.7295 38.3633 74.7412V75.459H33.2021C33.2249 76.3385 33.446 77.0062 33.8652 77.4619C34.2891 77.9176 34.8838 78.1455 35.6494 78.1455C36.4561 78.1455 37.2536 77.9769 38.042 77.6396V78.6514C37.641 78.8245 37.2604 78.9476 36.9004 79.0205C36.5449 79.098 36.1143 79.1367 35.6084 79.1367ZM35.3008 72.3213C34.6992 72.3213 34.2184 72.5173 33.8584 72.9092C33.5029 73.3011 33.2933 73.8434 33.2295 74.5361H37.1465C37.1465 73.8206 36.987 73.2738 36.668 72.8955C36.349 72.5127 35.8932 72.3213 35.3008 72.3213ZM45.1377 76.9561C45.1377 77.6533 44.8779 78.1911 44.3584 78.5693C43.8389 78.9476 43.1097 79.1367 42.1709 79.1367C41.1774 79.1367 40.4027 78.9795 39.8467 78.665V77.6123C40.2067 77.7946 40.5918 77.9382 41.002 78.043C41.4167 78.1478 41.8154 78.2002 42.1982 78.2002C42.7907 78.2002 43.2464 78.1068 43.5654 77.9199C43.8844 77.7285 44.0439 77.4391 44.0439 77.0518C44.0439 76.7601 43.9163 76.5117 43.6611 76.3066C43.4105 76.097 42.9183 75.8509 42.1846 75.5684C41.4873 75.3086 40.9906 75.083 40.6943 74.8916C40.4027 74.6956 40.1839 74.4746 40.0381 74.2285C39.8968 73.9824 39.8262 73.6885 39.8262 73.3467C39.8262 72.736 40.0745 72.2552 40.5713 71.9043C41.068 71.5488 41.7493 71.3711 42.6152 71.3711C43.4219 71.3711 44.2103 71.5352 44.9805 71.8633L44.5771 72.7861C43.8252 72.4762 43.1439 72.3213 42.5332 72.3213C41.9954 72.3213 41.5898 72.4056 41.3164 72.5742C41.043 72.7428 40.9062 72.9753 40.9062 73.2715C40.9062 73.472 40.9564 73.6429 41.0566 73.7842C41.1615 73.9255 41.3278 74.0599 41.5557 74.1875C41.7835 74.3151 42.221 74.4997 42.8682 74.7412C43.7568 75.0648 44.3561 75.3906 44.666 75.7188C44.9805 76.0469 45.1377 76.4593 45.1377 76.9561ZM51.8232 76.9561C51.8232 77.6533 51.5635 78.1911 51.0439 78.5693C50.5244 78.9476 49.7952 79.1367 48.8564 79.1367C47.863 79.1367 47.0882 78.9795 46.5322 78.665V77.6123C46.8923 77.7946 47.2773 77.9382 47.6875 78.043C48.1022 78.1478 48.501 78.2002 48.8838 78.2002C49.4762 78.2002 49.932 78.1068 50.251 77.9199C50.57 77.7285 50.7295 77.4391 50.7295 77.0518C50.7295 76.7601 50.6019 76.5117 50.3467 76.3066C50.096 76.097 49.6038 75.8509 48.8701 75.5684C48.1729 75.3086 47.6761 75.083 47.3799 74.8916C47.0882 74.6956 46.8695 74.4746 46.7236 74.2285C46.5824 73.9824 46.5117 73.6885 46.5117 73.3467C46.5117 72.736 46.7601 72.2552 47.2568 71.9043C47.7536 71.5488 48.4349 71.3711 49.3008 71.3711C50.1074 71.3711 50.8958 71.5352 51.666 71.8633L51.2627 72.7861C50.5107 72.4762 49.8294 72.3213 49.2188 72.3213C48.681 72.3213 48.2754 72.4056 48.002 72.5742C47.7285 72.7428 47.5918 72.9753 47.5918 73.2715C47.5918 73.472 47.6419 73.6429 47.7422 73.7842C47.847 73.9255 48.0133 74.0599 48.2412 74.1875C48.4691 74.3151 48.9066 74.4997 49.5537 74.7412C50.4424 75.0648 51.0417 75.3906 51.3516 75.7188C51.666 76.0469 51.8232 76.4593 51.8232 76.9561ZM54.8105 79H53.6758V71.5078H54.8105V79ZM53.5801 69.4775C53.5801 69.2178 53.6439 69.0286 53.7715 68.9102C53.8991 68.7871 54.0586 68.7256 54.25 68.7256C54.4323 68.7256 54.5895 68.7871 54.7217 68.9102C54.8538 69.0332 54.9199 69.2223 54.9199 69.4775C54.9199 69.7327 54.8538 69.9242 54.7217 70.0518C54.5895 70.1748 54.4323 70.2363 54.25 70.2363C54.0586 70.2363 53.8991 70.1748 53.7715 70.0518C53.6439 69.9242 53.5801 69.7327 53.5801 69.4775ZM63.6836 75.2471C63.6836 76.4684 63.376 77.4232 62.7607 78.1113C62.1455 78.7949 61.2956 79.1367 60.2109 79.1367C59.541 79.1367 58.9463 78.9795 58.4268 78.665C57.9072 78.3506 57.5062 77.8994 57.2236 77.3115C56.9411 76.7236 56.7998 76.0355 56.7998 75.2471C56.7998 74.0257 57.1051 73.0755 57.7158 72.3965C58.3265 71.7129 59.1742 71.3711 60.2588 71.3711C61.307 71.3711 62.1387 71.7197 62.7539 72.417C63.3737 73.1143 63.6836 74.0576 63.6836 75.2471ZM57.9756 75.2471C57.9756 76.2041 58.167 76.9333 58.5498 77.4346C58.9326 77.9359 59.4954 78.1865 60.2383 78.1865C60.9811 78.1865 61.5439 77.9382 61.9268 77.4414C62.3141 76.9401 62.5078 76.2087 62.5078 75.2471C62.5078 74.2946 62.3141 73.5723 61.9268 73.0801C61.5439 72.5833 60.9766 72.335 60.2246 72.335C59.4818 72.335 58.9212 72.5788 58.543 73.0664C58.1647 73.554 57.9756 74.2809 57.9756 75.2471ZM70.8066 79V74.1533C70.8066 73.5426 70.6676 73.0869 70.3896 72.7861C70.1117 72.4854 69.6764 72.335 69.084 72.335C68.3001 72.335 67.7259 72.5469 67.3613 72.9707C66.9967 73.3945 66.8145 74.0941 66.8145 75.0693V79H65.6797V71.5078H66.6025L66.7871 72.5332H66.8418C67.0742 72.1641 67.4001 71.8792 67.8193 71.6787C68.2386 71.4736 68.7057 71.3711 69.2207 71.3711C70.123 71.3711 70.8021 71.5898 71.2578 72.0273C71.7135 72.4603 71.9414 73.1553 71.9414 74.1123V79H70.8066ZM79.1123 76.9561C79.1123 77.6533 78.8525 78.1911 78.333 78.5693C77.8135 78.9476 77.0843 79.1367 76.1455 79.1367C75.152 79.1367 74.3773 78.9795 73.8213 78.665V77.6123C74.1813 77.7946 74.5664 77.9382 74.9766 78.043C75.3913 78.1478 75.79 78.2002 76.1729 78.2002C76.7653 78.2002 77.221 78.1068 77.54 77.9199C77.859 77.7285 78.0186 77.4391 78.0186 77.0518C78.0186 76.7601 77.891 76.5117 77.6357 76.3066C77.3851 76.097 76.8929 75.8509 76.1592 75.5684C75.4619 75.3086 74.9652 75.083 74.6689 74.8916C74.3773 74.6956 74.1585 74.4746 74.0127 74.2285C73.8714 73.9824 73.8008 73.6885 73.8008 73.3467C73.8008 72.736 74.0492 72.2552 74.5459 71.9043C75.0426 71.5488 75.724 71.3711 76.5898 71.3711C77.3965 71.3711 78.1849 71.5352 78.9551 71.8633L78.5518 72.7861C77.7998 72.4762 77.1185 72.3213 76.5078 72.3213C75.9701 72.3213 75.5645 72.4056 75.291 72.5742C75.0176 72.7428 74.8809 72.9753 74.8809 73.2715C74.8809 73.472 74.931 73.6429 75.0312 73.7842C75.1361 73.9255 75.3024 74.0599 75.5303 74.1875C75.7581 74.3151 76.1956 74.4997 76.8428 74.7412C77.7314 75.0648 78.3307 75.3906 78.6406 75.7188C78.9551 76.0469 79.1123 76.4593 79.1123 76.9561Z" fill="#5A7184"/>
</g>
<defs>
<clipPath id="clip0_1_364">
<rect width="80" height="86" fill="white"/>
</clipPath>
</defs>
</svg>
