<svg width="117" height="37" viewBox="0 0 117 37" fill="none" xmlns="http://www.w3.org/2000/svg">
<path fill-rule="evenodd" clip-rule="evenodd" d="M34.042 26.0179L34.0421 26.0182C34.5622 27.3434 34.6778 28.611 34.5044 29.8786C34.0999 32.5291 32.3661 34.8339 29.8233 35.871C28.8987 36.2743 27.9162 36.4472 26.876 36.4472C26.587 36.4472 26.2403 36.4472 25.9513 36.3896C24.7377 36.2744 23.5241 35.871 22.3105 35.1796C20.8657 34.3729 19.4209 33.1629 17.8028 31.4344C16.1846 33.1629 14.7976 34.3729 13.2951 35.1796C12.0815 35.871 10.8679 36.2167 9.65425 36.3896C9.50977 36.3896 9.35084 36.404 9.19192 36.4184C9.03299 36.4328 8.87407 36.4472 8.72959 36.4472C7.68935 36.4472 6.7069 36.2743 5.78225 35.871C3.29723 34.8339 1.44792 32.5867 1.04338 29.8786C0.870006 28.5534 1.04338 27.2858 1.50571 26.0182C1.67908 25.4996 1.85245 25.0963 2.02583 24.6929L2.02585 24.6929C2.3148 24.0591 2.60374 23.4253 2.8349 22.8491L2.89269 22.7915C5.4355 17.3753 8.09389 11.9015 10.8679 6.4853L10.9834 6.25483C11.2724 5.73628 11.5613 5.16011 11.8503 4.58395L11.8503 4.58387C11.9281 4.46194 12.006 4.33787 12.0846 4.21249C12.4148 3.68615 12.7594 3.1367 13.1795 2.62483C14.3931 1.24197 16.0113 0.435303 17.8028 0.435303C19.5365 0.435303 21.2125 1.24197 22.3683 2.68245C22.9462 3.31626 23.3507 4.00768 23.6975 4.64149C23.9864 5.21768 24.2754 5.79387 24.5643 6.31245L24.6799 6.54292C27.5117 11.9591 30.1701 17.4329 32.6551 22.8491H32.7129C32.944 23.4253 33.233 24.0591 33.5219 24.6929L33.5219 24.6929C33.6953 25.0962 33.8686 25.557 34.042 26.0179ZM61.9551 9.48149C61.9551 10.8067 60.9149 11.8439 59.5857 11.8439C58.2565 11.8439 57.2163 10.8067 57.2163 9.48149C57.2163 8.15626 58.2565 7.11911 59.5857 7.11911C60.9727 7.17673 61.9551 8.21387 61.9551 9.48149ZM52.304 14.2063V14.7824C52.304 14.7824 51.206 13.342 48.7788 13.342C44.849 13.342 41.7861 16.3382 41.7861 20.4867C41.7861 24.5777 44.849 27.6315 48.7788 27.6315C51.206 27.6315 52.304 26.1334 52.304 26.1334V26.7672C52.304 27.0553 52.5352 27.2858 52.8242 27.2858H55.7715V13.6877H52.8242C52.4774 13.6877 52.304 13.9182 52.304 14.2063ZM49.3567 24.3472C50.6859 24.3472 51.7839 23.6558 52.304 22.8491V18.0091C51.7839 17.2601 50.6281 16.511 49.3567 16.511C47.0451 16.511 45.2535 17.9515 45.2535 20.4291C45.2535 22.9067 47.0451 24.3472 49.3567 24.3472ZM57.852 13.6877H61.3194V27.2282H57.852V13.6877ZM106.165 14.7824C106.165 14.7824 107.321 13.342 109.691 13.342C113.62 13.342 116.683 16.3382 116.683 20.4291C116.683 24.5201 113.62 27.5739 109.691 27.5739C107.263 27.5739 106.165 26.0758 106.165 26.0758V26.7096C106.165 26.9977 105.934 27.2282 105.645 27.2282H102.698V7.17673H106.165V14.7824ZM109.113 24.2896C107.783 24.2896 106.743 23.5982 106.165 22.7915V17.9515C106.685 17.2024 107.841 16.4534 109.113 16.4534C111.424 16.4534 113.216 17.8939 113.216 20.3715C113.216 22.8491 111.424 24.2896 109.113 24.2896ZM100.906 27.2858V19.2191C100.906 16.9144 100.444 15.6467 99.2882 14.6672C98.2479 13.8029 96.9765 13.342 95.4739 13.342C94.1448 13.342 92.8156 13.7453 91.7753 14.7824V14.2063C91.7753 13.9182 91.5442 13.6877 91.2552 13.6877H88.4812V27.2858H91.9487V17.8363C92.6422 17.0296 93.7402 16.511 94.7805 16.511C96.6876 16.511 97.4388 17.3753 97.4388 19.6224V27.2858H100.906ZM80.0437 13.342C77.6743 13.342 76.5185 14.7824 76.5185 14.7824V7.17673H73.051V27.2282H75.9984C76.2873 27.2282 76.5185 26.9977 76.5185 26.7096V26.0758C76.5185 26.0758 77.6165 27.5739 80.0437 27.5739C83.9735 27.5739 87.0365 24.5201 87.0365 20.4291C87.0943 16.3382 84.0313 13.342 80.0437 13.342ZM76.5185 22.7915C77.0964 23.5982 78.1366 24.2896 79.4658 24.2896C81.7775 24.2896 83.569 22.8491 83.569 20.3715C83.569 17.8939 81.7775 16.4534 79.4658 16.4534C78.1944 16.4534 77.0386 17.2024 76.5185 17.9515V22.7915ZM70.1037 13.342C71.1439 13.342 71.7218 13.5148 71.7218 13.5148V16.7415C71.7218 16.7415 68.8323 15.762 67.0408 17.8363V27.2858H63.5733V13.6877H66.5206C66.8096 13.6877 67.0408 13.9182 67.0408 14.2063V14.7824C67.6187 14.0334 69.0057 13.342 70.1037 13.342ZM17.745 27.862C15.7801 25.3843 14.5087 23.0796 14.1042 21.1782C13.9308 20.3715 13.873 19.6224 13.9886 18.9886C14.0464 18.4124 14.2775 17.8939 14.5665 17.4905C15.26 16.511 16.4158 15.8772 17.745 15.8772C19.0742 15.8772 20.2878 16.4534 20.9235 17.4905C21.2125 17.9515 21.4436 18.4124 21.5014 18.9886C21.617 19.6224 21.5592 20.3715 21.3858 21.1782C20.9813 23.0796 19.7099 25.3843 17.745 27.862ZM28.8987 33.7967C30.6902 33.1053 31.9616 31.492 32.1928 29.5905C32.3083 28.611 32.1928 27.7467 32.0194 26.8248C31.9568 26.6377 31.8773 26.4505 31.79 26.2451C31.7161 26.071 31.6366 25.8839 31.5571 25.6724C31.4126 25.3844 31.2825 25.0819 31.1525 24.7794C31.0225 24.4769 30.8925 24.1744 30.748 23.8863V23.8286C28.263 18.4701 25.6046 12.9963 22.8306 7.63768L22.715 7.40721C22.4261 6.83102 22.1371 6.25483 21.8482 5.73626C21.5592 5.16006 21.2125 4.58387 20.8079 4.12292C20.0566 3.25864 19.0164 2.79768 17.9184 2.79768C16.8203 2.79768 15.7801 3.25864 15.0288 4.12292C14.6243 4.64149 14.2775 5.16006 13.9886 5.73626L13.9885 5.73637C13.6996 6.31252 13.4106 6.88867 13.1217 7.40721L13.0061 7.63768C10.1744 12.9963 7.51598 18.4701 5.03096 23.8286L4.97317 23.8863C4.68422 24.4624 4.39526 25.0963 4.1641 25.6724L4.16408 25.6725C3.99071 26.0758 3.81735 26.4791 3.70177 26.8248C3.29723 27.862 3.23944 28.7263 3.35502 29.6482C3.58619 31.492 4.85759 33.1053 6.64911 33.8544C7.45819 34.1424 8.38284 34.3153 9.36529 34.2001C10.2899 34.0848 11.2146 33.7967 12.1393 33.2782C13.4107 32.5291 14.7399 31.4344 16.2424 29.7634C13.873 26.8248 12.3704 24.1167 11.8503 21.7544C11.5613 20.6596 11.5036 19.6224 11.6769 18.7005C11.8503 17.7786 12.1393 16.972 12.6594 16.2229C13.7574 14.6672 15.6645 13.6877 17.745 13.6877C19.8255 13.6877 21.7326 14.6096 22.8306 16.2229C23.3507 16.972 23.6397 17.7786 23.8131 18.7005C23.9286 19.6224 23.8708 20.6596 23.6397 21.7544C23.0618 24.1167 21.617 26.7672 19.2476 29.7058C20.7501 31.3767 22.0215 32.4715 23.3507 33.2205C24.3332 33.7391 25.2 34.0272 26.1247 34.1424C27.1071 34.2577 28.0318 34.1424 28.8987 33.7967Z" fill="#8C98A4"/>
</svg>
