<svg width="945" height="300" viewBox="0 0 945 300" fill="none" xmlns="http://www.w3.org/2000/svg">
<rect x="28" y="30" width="40" height="40" rx="8" fill="#1565D8"/>
<rect opacity="0.8" x="78" y="80" width="40" height="40" rx="8" fill="#1565D8"/>
<rect x="28" y="130" width="40" height="40" rx="8" fill="#1565D8"/>
<rect opacity="0.8" x="78" y="130" width="40" height="40" rx="8" fill="#1565D8"/>
<rect opacity="0.8" x="78" y="180" width="40" height="40" rx="8" fill="#1565D8"/>
<rect x="28" y="230" width="40" height="40" rx="8" fill="#1565D8"/>
<rect opacity="0.4" x="128" y="30" width="40" height="40" rx="8" fill="#1565D8"/>
<rect opacity="0.4" x="128" y="80" width="40" height="40" rx="8" fill="#1565D8"/>
<rect opacity="0.4" x="128" y="180" width="40" height="40" rx="8" fill="#1565D8"/>
<rect opacity="0.6" x="178" y="80" width="40" height="40" rx="8" fill="#1565D8"/>
<rect opacity="0.6" x="178" y="130" width="40" height="40" rx="8" fill="#1565D8"/>
<rect opacity="0.6" x="178" y="230" width="40" height="40" rx="8" fill="#1565D8"/>
<rect x="228" y="130" width="40" height="40" rx="8" fill="#1565D8"/>
<rect x="228" y="180" width="40" height="40" rx="8" fill="#1565D8"/>
<rect opacity="0.8" x="278" y="80" width="40" height="40" rx="8" fill="#1565D8"/>
<rect opacity="0.8" x="278" y="230" width="40" height="40" rx="8" fill="#1565D8"/>
<rect x="328" y="180" width="40" height="40" rx="8" fill="#1565D8"/>
<rect opacity="0.8" x="378" y="30" width="40" height="40" rx="8" fill="#1565D8"/>
<rect opacity="0.8" x="378" y="130" width="40" height="40" rx="8" fill="#1565D8"/>
<rect opacity="0.8" x="378" y="180" width="40" height="40" rx="8" fill="#1565D8"/>
<rect opacity="0.8" x="378" y="230" width="40" height="40" rx="8" fill="#1565D8"/>
<rect x="428" y="80" width="40" height="40" rx="8" fill="#1565D8"/>
<rect opacity="0.6" x="428" y="180" width="40" height="40" rx="8" fill="#1565D8"/>
<rect opacity="0.6" x="478" y="130" width="40" height="40" rx="8" fill="#1565D8"/>
<rect x="528" y="30" width="40" height="40" rx="8" fill="#1565D8"/>
<rect x="528" y="80" width="40" height="40" rx="8" fill="#1565D8"/>
<rect x="528" y="130" width="40" height="40" rx="8" fill="#1565D8"/>
<rect x="528" y="180" width="40" height="40" rx="8" fill="#1565D8"/>
<rect x="578" y="30" width="40" height="40" rx="8" fill="#1565D8"/>
<rect opacity="0.6" x="578" y="130" width="40" height="40" rx="8" fill="#1565D8"/>
<rect opacity="0.6" x="578" y="230" width="40" height="40" rx="8" fill="#1565D8"/>
<rect opacity="0.8" x="628" y="130" width="40" height="40" rx="8" fill="#1565D8"/>
<rect opacity="0.8" x="628" y="180" width="40" height="40" rx="8" fill="#1565D8"/>
<rect opacity="0.4" x="678" y="30" width="40" height="40" rx="8" fill="#1565D8"/>
<rect opacity="0.4" x="678" y="130" width="40" height="40" rx="8" fill="#1565D8"/>
<rect opacity="0.8" x="728" y="30" width="40" height="40" rx="8" fill="#1565D8"/>
<rect opacity="0.8" x="728" y="80" width="40" height="40" rx="8" fill="#1565D8"/>
<rect opacity="0.8" x="728" y="180" width="40" height="40" rx="8" fill="#1565D8"/>
<rect x="828" y="30" width="40" height="40" rx="8" fill="#1565D8"/>
<rect opacity="0.6" x="778" y="80" width="40" height="40" rx="8" fill="#1565D8"/>
<rect opacity="0.4" x="878" y="80" width="40" height="40" rx="8" fill="#1565D8"/>
<rect x="828" y="130" width="40" height="40" rx="8" fill="#1565D8"/>
<rect opacity="0.6" x="778" y="180" width="40" height="40" rx="8" fill="#1565D8"/>
<rect opacity="0.4" x="878" y="180" width="40" height="40" rx="8" fill="#1565D8"/>
</svg>
