<svg width="64" height="64" viewBox="0 0 64 64" fill="none" xmlns="http://www.w3.org/2000/svg">
<path fill-rule="evenodd" clip-rule="evenodd" d="M32 64C49.6731 64 64 49.6731 64 32C64 14.3269 49.6731 0 32 0C14.3269 0 0 14.3269 0 32C0 49.6731 14.3269 64 32 64Z" fill="#EAF7F2"/>
<path fill-rule="evenodd" clip-rule="evenodd" d="M32 25.8799C27.06 25.8799 22.6477 29.2569 20.4918 34.4596C20.4227 34.6262 20.4227 34.8135 20.4918 34.9802C22.6477 40.1829 27.06 43.5599 32 43.5599C36.94 43.5599 41.3523 40.1829 43.5082 34.9802C43.5773 34.8135 43.5773 34.6262 43.5082 34.4596C41.3523 29.2569 36.94 25.8799 32 25.8799ZM28.6 34.7199C28.6 36.5977 30.1222 38.1199 32 38.1199C33.8778 38.1199 35.4 36.5977 35.4 34.7199C35.4 32.8421 33.8778 31.3199 32 31.3199C30.1222 31.3199 28.6 32.8421 28.6 34.7199Z" fill="#36B37E"/>
<path fill-rule="evenodd" clip-rule="evenodd" d="M32 20.1001C31.4367 20.1001 30.98 20.5568 30.98 21.1201V23.8401C30.98 24.4034 31.4367 24.8601 32 24.8601C32.5633 24.8601 33.02 24.4034 33.02 23.8401V21.1201C33.02 20.5568 32.5633 20.1001 32 20.1001ZM34.04 34.7201C34.04 35.8468 33.1267 36.7601 32 36.7601C30.8733 36.7601 29.96 35.8468 29.96 34.7201C29.96 33.5934 30.8733 32.6801 32 32.6801C33.1267 32.6801 34.04 33.5934 34.04 34.7201ZM42.1588 21.7588C42.5571 21.3605 43.2029 21.3605 43.6013 21.7588C43.9996 22.1572 43.9996 22.803 43.6013 23.2013L40.8813 25.9213C40.4829 26.3197 39.8371 26.3197 39.4388 25.9213C39.0404 25.523 39.0404 24.8772 39.4388 24.4788L42.1588 21.7588ZM24.5613 24.4788L21.8413 21.7588C21.4429 21.3605 20.7971 21.3605 20.3988 21.7588C20.0004 22.1572 20.0004 22.803 20.3988 23.2013L23.1188 25.9213C23.5171 26.3197 24.1629 26.3197 24.5613 25.9213C24.9596 25.523 24.9596 24.8772 24.5613 24.4788Z" fill="#36B37E"/>
</svg>
