<svg width="117" height="39" viewBox="0 0 117 39" fill="none" xmlns="http://www.w3.org/2000/svg">
<path d="M29.4586 13.572H15.9166V17.565H25.5465C25.065 23.1915 20.3704 25.672 15.9768 25.672C10.3193 25.672 5.38399 21.195 5.38399 14.9635C5.38399 8.85301 10.0785 4.13401 15.9768 4.13401C20.551 4.13401 23.1992 7.03801 23.1992 7.03801L25.9678 4.13401C25.9678 4.13401 22.3566 0.14101 15.7963 0.14101C7.43033 0.08051 0.990376 7.15901 0.990376 14.8425C0.990376 22.3445 7.06921 29.665 16.037 29.665C23.9214 29.665 29.6994 24.2805 29.6994 16.234C29.6994 14.54 29.4586 13.572 29.4586 13.572V13.572Z" fill="#8C98A4"/>
<path fill-rule="evenodd" clip-rule="evenodd" d="M30.9633 20.0454C30.9633 14.9634 34.9356 10.6074 40.4727 10.6074C45.0469 10.6074 49.9822 13.8744 50.0424 20.1664C50.0424 25.7324 45.8293 29.6649 40.5931 29.6649C34.8152 29.6649 30.9633 25.2484 30.9633 20.0454ZM45.8293 20.1664C45.8293 16.6574 43.2413 14.4189 40.5329 14.4189C37.4634 14.4189 35.1161 16.8389 35.1763 20.1059C35.1763 23.4939 37.5236 25.9139 40.5329 25.9139C43.3015 25.9139 45.8293 23.6754 45.8293 20.1664Z" fill="#8C98A4"/>
<path fill-rule="evenodd" clip-rule="evenodd" d="M51.6674 20.0454C51.6674 14.9634 55.6397 10.6074 61.1769 10.6074C65.7511 10.6074 70.6864 13.8744 70.7466 20.1664C70.7466 25.7324 66.5335 29.6649 61.2973 29.6649C55.5194 29.6649 51.6674 25.2484 51.6674 20.0454ZM66.5335 20.1664C66.5335 16.6574 63.9455 14.4189 61.2371 14.4189C58.1676 14.4189 55.8203 16.8389 55.8805 20.1059C55.8805 23.4939 58.2278 25.9139 61.2371 25.9139C64.0057 25.9139 66.5335 23.6754 66.5335 20.1664Z" fill="#8C98A4"/>
<path fill-rule="evenodd" clip-rule="evenodd" d="M72.3716 20.1665C72.3716 15.145 76.3439 10.668 81.4598 10.668C83.6867 10.668 85.3719 11.515 86.4552 12.846V11.2125H90.4276V28.334C90.4276 35.0495 86.5756 38.256 81.52 38.256C76.8856 38.256 74.2976 35.4125 73.0337 32.69L76.705 31.1775C77.2467 32.3875 78.6912 34.5655 81.5801 34.5655C84.5895 34.5655 86.5756 32.569 86.5756 29.302V27.4265C85.4321 28.697 84.0478 29.7255 81.3394 29.7255C77.006 29.7255 72.3716 25.8535 72.3716 20.1665ZM86.8766 20.227C86.8766 16.597 84.2885 14.419 81.8209 14.419C79.1727 14.419 76.5847 16.5365 76.5245 20.2875C76.5245 23.736 79.0523 25.9745 81.7607 25.9745C84.3487 25.9745 86.8766 23.978 86.8766 20.227Z" fill="#8C98A4"/>
<path fill-rule="evenodd" clip-rule="evenodd" d="M99.3954 20.1059C99.3954 14.4189 103.428 10.6074 108.243 10.6074C111.974 10.6074 114.803 13.1484 116.067 16.0524L116.729 17.6254L104.03 22.9494C104.812 24.4014 106.016 25.8534 108.664 25.8534C111.011 25.8534 112.456 24.5829 113.298 23.2519L116.609 25.4904C115.164 27.4264 112.636 29.6649 108.664 29.6649C103.909 29.6649 99.3954 26.0954 99.3954 20.1059ZM111.914 16.3549C111.312 15.2054 110.109 14.2979 108.363 14.2979C105.655 14.2979 103.007 17.1414 103.488 19.9244L111.914 16.3549Z" fill="#8C98A4"/>
<path d="M93.3767 29.1206H97.5296V1.04858H93.3767V29.1206Z" fill="#8C98A4"/>
</svg>
