<svg width="518" height="183" viewBox="0 0 518 183" fill="none" xmlns="http://www.w3.org/2000/svg">
<path d="M86.0016 115.155L85.2394 113.864V113.864L86.0016 115.155ZM86.5313 113.101L87.8231 112.339V112.339L86.5313 113.101ZM79.5254 118.977L78.7631 117.685L78.5 117.84L78.3186 118.086L79.5254 118.977ZM41.2069 170.891L42.4137 171.782L41.2069 170.891ZM40.1773 172.286L39.1222 173.352L40.3546 174.571L41.3841 173.177L40.1773 172.286ZM38.9449 171.066L40 170L38.9449 171.066ZM1.94494 134.454L3 133.388L1.94494 134.454ZM1.93377 132.333L3 133.388L1.93377 132.333ZM4.05506 132.322L5.11012 131.255L4.05506 132.322ZM39.8227 167.714L38.7677 168.781L40 170L41.0296 168.605L39.8227 167.714ZM77.2932 116.949L78.5 117.84L78.5 117.84L77.2932 116.949ZM77.4746 116.703L76.7123 115.412L76.4492 115.567L76.2677 115.813L77.4746 116.703ZM77.7377 116.548L76.9755 115.256V115.256L77.7377 116.548ZM84.4771 112.572L83.7148 111.28V111.28L84.4771 112.572ZM86.7639 116.447C88.1909 115.605 88.6651 113.766 87.8231 112.339L85.2394 113.864V113.864L86.7639 116.447ZM80.2877 120.269L86.7639 116.447L85.2394 113.864L78.7631 117.685L80.2877 120.269ZM42.4137 171.782L80.7322 119.867L78.3186 118.086L40 170L42.4137 171.782ZM41.3841 173.177L42.4137 171.782L40 170L38.9704 171.395L41.3841 173.177ZM37.8899 172.133L39.1222 173.352L41.2323 171.219L40 170L37.8899 172.133ZM0.889881 135.52L37.8899 172.133L40 170L3 133.388L0.889881 135.52ZM0.867537 131.278C-0.297849 132.455 -0.287846 134.355 0.889881 135.52L3 133.388H3L0.867537 131.278ZM5.11012 131.255C3.93239 130.09 2.03292 130.1 0.867537 131.278L3 133.388L3 133.388L5.11012 131.255ZM40.8778 166.648L5.11012 131.255L3 133.388L38.7677 168.781L40.8778 166.648ZM76.0863 116.058L38.6159 166.824L41.0296 168.605L78.5 117.84L76.0863 116.058ZM76.2677 115.813L76.0863 116.058L78.5 117.84L78.6814 117.594L76.2677 115.813ZM76.9755 115.256L76.7123 115.412L78.2369 117.995L78.5 117.84L76.9755 115.256ZM83.7148 111.28L76.9755 115.256L78.5 117.84L85.2394 113.864L83.7148 111.28ZM87.8231 112.339C86.9812 110.912 85.1418 110.438 83.7148 111.28L85.2394 113.864V113.864L87.8231 112.339Z" fill="#36B37E"/>
<path d="M470 7C470 10.3137 467.314 13 464 13C460.686 13 458 10.3137 458 7C458 3.68629 460.686 1 464 1C467.314 1 470 3.68629 470 7Z" fill="#36B37E" stroke="white" stroke-width="2"/>
<path d="M398 67C398 70.3137 395.314 73 392 73C388.686 73 386 70.3137 386 67C386 63.6863 388.686 61 392 61C395.314 61 398 63.6863 398 67Z" fill="#36B37E" stroke="white" stroke-width="2"/>
<path d="M366 44C366 47.3137 363.314 50 360 50C356.686 50 354 47.3137 354 44C354 40.6863 356.686 38 360 38C363.314 38 366 40.6863 366 44Z" fill="#36B37E" stroke="white" stroke-width="2"/>
<path d="M309 23C309 26.3137 306.314 29 303 29C299.686 29 297 26.3137 297 23C297 19.6863 299.686 17 303 17C306.314 17 309 19.6863 309 23Z" fill="#36B37E" stroke="white" stroke-width="2"/>
<path d="M256 82C256 85.3137 253.314 88 250 88C246.686 88 244 85.3137 244 82C244 78.6863 246.686 76 250 76C253.314 76 256 78.6863 256 82Z" fill="#36B37E" stroke="white" stroke-width="2"/>
<path d="M197 108C197 111.314 194.314 114 191 114C187.686 114 185 111.314 185 108C185 104.686 187.686 102 191 102C194.314 102 197 104.686 197 108Z" fill="#36B37E" stroke="white" stroke-width="2"/>
<path d="M145 82C145 85.3137 142.314 88 139 88C135.686 88 133 85.3137 133 82C133 78.6863 135.686 76 139 76C142.314 76 145 78.6863 145 82Z" fill="#36B37E" stroke="white" stroke-width="2"/>
<path d="M47 170C47 173.314 44.3137 176 41 176C37.6863 176 35 173.314 35 170C35 166.686 37.6863 164 41 164C44.3137 164 47 166.686 47 170Z" fill="#36B37E" stroke="white" stroke-width="2"/>
<path d="M3 40.5L38 73L78.5 97.5L138.5 158L191.5 131L251 52.5L302.5 73L358 103L391.5 27L463 47L518 93" stroke="#FAAD13" stroke-width="3" stroke-linecap="round"/>
<path opacity="0.1" fill-rule="evenodd" clip-rule="evenodd" d="M3 40.5L38 73L78.5 97.5L138.5 158L191.5 131L251 52.5L302.5 73L358 103L391.5 27L460 48C460 48 460 88.5 460 183C306.667 183 3 183 3 183V40.5Z" fill="url(#paint0_linear_126_448)"/>
<path d="M47 75C47 78.3137 44.3137 81 41 81C37.6863 81 35 78.3137 35 75C35 71.6863 37.6863 69 41 69C44.3137 69 47 71.6863 47 75Z" fill="#FAAD13" stroke="white" stroke-width="2"/>
<path d="M145 157C145 160.314 142.314 163 139 163C135.686 163 133 160.314 133 157C133 153.686 135.686 151 139 151C142.314 151 145 153.686 145 157Z" fill="#FAAD13" stroke="white" stroke-width="2"/>
<path d="M197 131C197 134.314 194.314 137 191 137C187.686 137 185 134.314 185 131C185 127.686 187.686 125 191 125C194.314 125 197 127.686 197 131Z" fill="#FAAD13" stroke="white" stroke-width="2"/>
<path d="M256 52C256 55.3137 253.314 58 250 58C246.686 58 244 55.3137 244 52C244 48.6863 246.686 46 250 46C253.314 46 256 48.6863 256 52Z" fill="#FAAD13" stroke="white" stroke-width="2"/>
<path d="M310 74C310 77.3137 307.314 80 304 80C300.686 80 298 77.3137 298 74C298 70.6863 300.686 68 304 68C307.314 68 310 70.6863 310 74Z" fill="#FAAD13" stroke="white" stroke-width="2"/>
<path d="M364 103C364 106.314 361.314 109 358 109C354.686 109 352 106.314 352 103C352 99.6863 354.686 97 358 97C361.314 97 364 99.6863 364 103Z" fill="#FAAD13" stroke="white" stroke-width="2"/>
<path d="M398 28C398 31.3137 395.314 34 392 34C388.686 34 386 31.3137 386 28C386 24.6863 388.686 22 392 22C395.314 22 398 24.6863 398 28Z" fill="#FAAD13" stroke="white" stroke-width="2"/>
<path d="M470 48C470 51.3137 467.314 54 464 54C460.686 54 458 51.3137 458 48C458 44.6863 460.686 42 464 42C467.314 42 470 44.6863 470 48Z" fill="#FAAD13" stroke="white" stroke-width="2"/>
<defs>
<linearGradient id="paint0_linear_126_448" x1="3" y1="27" x2="3" y2="183" gradientUnits="userSpaceOnUse">
<stop stop-color="#FDD62B"/>
<stop offset="1" stop-color="white"/>
</linearGradient>
</defs>
</svg>
