<svg width="153" height="171" viewBox="0 0 153 171" fill="none" xmlns="http://www.w3.org/2000/svg">
<path d="M49.184 132.089C46.4805 130.83 43.2681 132.001 42.0091 134.704C40.7501 137.408 41.9211 140.62 44.6246 141.879L49.184 132.089ZM147.15 96.213C148.023 93.3614 146.419 90.3418 143.568 89.4685C140.716 88.5953 137.696 90.1991 136.823 93.0507L147.15 96.213ZM44.6246 141.879C54.1651 146.322 64.8006 148.8 76.0001 148.8V138C66.408 138 57.3259 135.88 49.184 132.089L44.6246 141.879ZM76.0001 148.8C109.507 148.8 137.828 126.654 147.15 96.213L136.823 93.0507C128.852 119.081 104.628 138 76.0001 138V148.8Z" fill="#1565D8"/>
<path d="M145 74.9551C145 36.5411 114.108 5.40039 76 5.40039C37.8923 5.40039 7 36.5411 7 74.9551C7 96.7749 16.9672 116.248 32.5624 129" stroke="#00B8D9" stroke-width="10" stroke-linecap="round"/>
<g filter="url(#filter0_d_1_849)">
<path fill-rule="evenodd" clip-rule="evenodd" d="M76.6008 103.8C92.5066 103.8 105.401 90.906 105.401 75.0002C105.401 59.0944 92.5066 46.2002 76.6008 46.2002C60.695 46.2002 47.8008 59.0944 47.8008 75.0002C47.8008 90.906 60.695 103.8 76.6008 103.8Z" fill="white"/>
</g>
<path d="M78.2871 81.5002C78.8355 81.5002 79.2996 81.0783 79.2996 80.4877V73.4002H82.9699C83.7293 73.4002 84.109 72.5143 83.5605 71.9658L77.148 65.5533C76.8527 65.258 76.3043 65.258 76.009 65.5533L69.5965 71.9658C69.048 72.5143 69.4277 73.4002 70.1871 73.4002H73.8996V80.4877C73.8996 81.0783 74.3215 81.5002 74.9121 81.5002H78.2871ZM87.3996 81.1627C87.3996 80.6143 86.9355 80.1502 86.3871 80.1502H80.6496V80.4877C80.6496 81.7955 79.5527 82.8502 78.2871 82.8502H74.9121C73.6043 82.8502 72.5496 81.7955 72.5496 80.4877V80.1502H66.8121C66.2215 80.1502 65.7996 80.6143 65.7996 81.1627V85.8877C65.7996 86.4783 66.2215 86.9002 66.8121 86.9002H86.3871C86.9355 86.9002 87.3996 86.4783 87.3996 85.8877V81.1627ZM82.1684 84.8752C82.1684 85.3393 81.7887 85.7189 81.3246 85.7189C80.8605 85.7189 80.4809 85.3393 80.4809 84.8752C80.4809 84.4111 80.8605 84.0314 81.3246 84.0314C81.7887 84.0314 82.1684 84.4111 82.1684 84.8752ZM84.8684 84.8752C84.8684 85.3393 84.4887 85.7189 84.0246 85.7189C83.5605 85.7189 83.1809 85.3393 83.1809 84.8752C83.1809 84.4111 83.5605 84.0314 84.0246 84.0314C84.4887 84.0314 84.8684 84.4111 84.8684 84.8752Z" fill="#183B56"/>
<defs>
<filter id="filter0_d_1_849" x="0.800781" y="19.2002" width="151.6" height="151.6" filterUnits="userSpaceOnUse" color-interpolation-filters="sRGB">
<feFlood flood-opacity="0" result="BackgroundImageFix"/>
<feColorMatrix in="SourceAlpha" type="matrix" values="0 0 0 0 0 0 0 0 0 0 0 0 0 0 0 0 0 0 127 0" result="hardAlpha"/>
<feOffset dy="20"/>
<feGaussianBlur stdDeviation="23.5"/>
<feColorMatrix type="matrix" values="0 0 0 0 0 0 0 0 0 0 0 0 0 0 0 0 0 0 0.05 0"/>
<feBlend mode="normal" in2="BackgroundImageFix" result="effect1_dropShadow_1_849"/>
<feBlend mode="normal" in="SourceGraphic" in2="effect1_dropShadow_1_849" result="shape"/>
</filter>
</defs>
</svg>
