<svg width="64" height="64" viewBox="0 0 64 64" fill="none" xmlns="http://www.w3.org/2000/svg">
<path fill-rule="evenodd" clip-rule="evenodd" d="M32 64C49.6731 64 64 49.6731 64 32C64 14.3269 49.6731 0 32 0C14.3269 0 0 14.3269 0 32C0 49.6731 14.3269 64 32 64Z" fill="#FDF5E6"/>
<path d="M30.4901 33.6631C29.3843 33.0982 28.6283 31.9565 28.6283 30.64C28.6283 28.7622 30.1664 27.24 32.0638 27.24C33.9611 27.24 35.4992 28.7622 35.4992 30.64C35.4992 31.9976 34.6952 33.1694 33.5327 33.7144L37.9379 43.4028C38.4051 44.4303 37.9422 45.638 36.9041 46.1003C36.6382 46.2187 36.3499 46.28 36.0582 46.28H27.9413C26.8029 46.28 25.88 45.3667 25.88 44.24C25.88 43.9514 25.9419 43.666 26.0616 43.4028L30.4901 33.6631Z" fill="#FAAD13"/>
<path fill-rule="evenodd" clip-rule="evenodd" d="M26.6225 40.1551C26.9446 39.693 26.8311 39.0572 26.369 38.735C23.7191 36.888 22.14 33.8827 22.14 30.64C22.14 25.1945 26.5545 20.78 32 20.78C37.4455 20.78 41.86 25.1945 41.86 30.64C41.86 33.8827 40.2809 36.888 37.631 38.735C37.1689 39.0572 37.0554 39.693 37.3775 40.1551C37.6997 40.6172 38.3355 40.7307 38.7976 40.4086C41.9932 38.1811 43.9 34.5519 43.9 30.64C43.9 24.0678 38.5722 18.74 32 18.74C25.4278 18.74 20.1 24.0678 20.1 30.64C20.1 34.5519 22.0069 38.1811 25.2024 40.4086C25.6646 40.7307 26.3003 40.6172 26.6225 40.1551ZM28.5209 36.5719C28.875 36.1338 28.8071 35.4916 28.369 35.1374C27.0086 34.0375 26.22 32.3965 26.22 30.64C26.22 27.4478 28.8078 24.86 32 24.86C35.1922 24.86 37.78 27.4478 37.78 30.64C37.78 32.3965 36.9914 34.0375 35.631 35.1374C35.193 35.4916 35.125 36.1338 35.4792 36.5719C35.8333 37.01 36.4756 37.0779 36.9136 36.7238C38.7517 35.2376 39.82 33.0144 39.82 30.64C39.82 26.3211 36.3189 22.82 32 22.82C27.6811 22.82 24.18 26.3211 24.18 30.64C24.18 33.0144 25.2483 35.2376 27.0864 36.7238C27.5244 37.0779 28.1667 37.01 28.5209 36.5719Z" fill="#FAAD13"/>
</svg>
