<svg width="585" height="448" viewBox="0 0 585 448" fill="none" xmlns="http://www.w3.org/2000/svg">
<g clip-path="url(#clip0_1_509)">
<g filter="url(#filter0_d_1_509)">
<rect y="32" width="527" height="384" rx="12" fill="white"/>
</g>
<path d="M31.76 80H34.26V66.06H31.76V80ZM37.6356 80H40.0356V76.24C40.0356 74.26 39.9756 72.04 41.9956 72.04C43.5556 72.04 43.6556 73.66 43.6556 74.44V80H46.0556V76.24C46.0556 74.26 45.9756 72.04 47.9956 72.04C49.5756 72.04 49.6756 73.66 49.6756 74.44V80H52.0756V73.72C52.0756 71.74 51.0156 69.94 48.6356 69.94C47.3756 69.94 46.2356 70.4 45.4556 71.88C44.8556 70.36 43.6556 69.94 42.5756 69.94C41.5956 69.94 40.5756 70.28 39.9356 71.38V70.14H37.6156L37.6356 80ZM54.8473 84.08H57.2473V79C57.8673 79.74 58.9673 80.2 60.0873 80.2C62.5073 80.2 64.2473 78.3 64.2473 75.08C64.2473 72.12 62.7673 69.94 60.0873 69.94C59.0273 69.94 57.9273 70.28 57.2473 71.12V70.14H54.8473V84.08ZM59.4873 78.1C57.7673 78.1 57.0273 76.78 57.0273 75.06C57.0273 73.3 57.7673 72.04 59.5073 72.04C61.1073 72.04 61.8473 73.12 61.8473 75.06C61.8473 76.98 61.0873 78.1 59.4873 78.1ZM66.4922 80H68.8922V75.04C68.8922 73.18 69.6122 72.28 71.0722 72.28C71.5522 72.28 71.9322 72.4 72.2722 72.62L73.4322 70.5C72.7922 70.1 72.2122 69.94 71.5522 69.94C70.4522 69.94 69.3322 70.6 68.9122 71.8V70.14H66.4922V80ZM78.3684 80.2C80.0284 80.2 81.3284 79.62 82.4084 78.42L80.7484 76.96C80.0684 77.74 79.2684 78.02 78.3884 78.02C76.8284 78.02 76.0284 77.16 75.9284 75.86H82.6884C82.7284 75.54 82.7484 75.24 82.7484 74.94C82.7484 72.2 81.2684 69.94 78.2084 69.94C74.9284 69.94 73.5284 72.54 73.5284 75.12C73.5284 77.76 74.9684 80.2 78.3684 80.2ZM75.9484 74.16C75.9084 73.12 76.6284 71.94 78.1884 71.94C79.3884 71.94 80.2684 72.6 80.4284 73.78C80.4484 73.9 80.4484 74.04 80.4484 74.16H75.9484ZM87.9795 80.2C89.8395 80.2 91.8195 79.2 91.8195 76.9C91.8195 73.3 86.8195 74.18 86.8195 72.68C86.8195 72.22 87.2995 71.84 88.0795 71.84C89.1595 71.84 89.6995 72.48 90.0395 73.1L91.8995 72.08C91.1595 70.74 89.8595 69.94 88.1595 69.94C86.2595 69.94 84.4995 70.92 84.4995 73.02C84.4995 76.48 89.4595 75.38 89.4595 77.04C89.4595 77.56 88.9795 78.2 87.8595 78.2C86.5395 78.2 86.0195 77.3 85.7595 76.58L83.8395 77.44C84.3195 78.94 85.8995 80.2 87.9795 80.2ZM97.203 80.2C99.063 80.2 101.043 79.2 101.043 76.9C101.043 73.3 96.043 74.18 96.043 72.68C96.043 72.22 96.523 71.84 97.303 71.84C98.383 71.84 98.923 72.48 99.263 73.1L101.123 72.08C100.383 70.74 99.083 69.94 97.383 69.94C95.483 69.94 93.723 70.92 93.723 73.02C93.723 76.48 98.683 75.38 98.683 77.04C98.683 77.56 98.203 78.2 97.083 78.2C95.763 78.2 95.243 77.3 94.983 76.58L93.063 77.44C93.543 78.94 95.123 80.2 97.203 80.2ZM103.306 68.28H105.826V66.06H103.306V68.28ZM103.366 80H105.766V70.14H103.366V80ZM112.822 80.2C115.862 80.2 117.762 77.84 117.762 75.06C117.762 72.26 115.862 69.94 112.822 69.94C109.762 69.94 107.882 72.26 107.882 75.06C107.882 77.84 109.762 80.2 112.822 80.2ZM112.822 78.1C111.002 78.1 110.282 76.66 110.282 75.06C110.282 73.44 111.002 72.04 112.822 72.04C114.642 72.04 115.362 73.44 115.362 75.06C115.362 76.66 114.642 78.1 112.822 78.1ZM119.88 80H122.28V76.06C122.28 74.3 122.28 72.04 124.52 72.04C126.34 72.04 126.34 73.56 126.34 74.24V80H128.74V73.64C128.74 71.3 127.48 69.94 125.26 69.94C124.06 69.94 122.98 70.34 122.28 71.28V70.14H119.88V80ZM134.565 80.2C136.425 80.2 138.405 79.2 138.405 76.9C138.405 73.3 133.405 74.18 133.405 72.68C133.405 72.22 133.885 71.84 134.665 71.84C135.745 71.84 136.285 72.48 136.625 73.1L138.485 72.08C137.745 70.74 136.445 69.94 134.745 69.94C132.845 69.94 131.085 70.92 131.085 73.02C131.085 76.48 136.045 75.38 136.045 77.04C136.045 77.56 135.565 78.2 134.445 78.2C133.125 78.2 132.605 77.3 132.345 76.58L130.425 77.44C130.905 78.94 132.485 80.2 134.565 80.2ZM156.651 79.24L154.571 76.9C155.171 75.86 155.551 74.66 155.611 73.38L153.271 73.14C153.271 73.8 153.151 74.46 152.931 75.06L150.971 72.86C152.331 71.94 153.471 70.84 153.471 69.16C153.471 67.32 151.791 65.9 149.771 65.9C147.871 65.9 145.911 67.14 145.911 69.18C145.911 70.66 146.971 71.84 147.571 72.46C145.911 73.42 144.331 74.62 144.331 76.74C144.331 78.98 146.351 80.22 148.911 80.22C150.531 80.22 151.991 79.62 153.111 78.64L154.951 80.74L156.651 79.24ZM148.231 69.22C148.231 68.28 148.971 67.78 149.791 67.78C150.751 67.78 151.251 68.44 151.251 69.2C151.251 70.1 150.451 70.76 149.411 71.4C148.971 70.88 148.231 69.94 148.231 69.22ZM148.851 78.18C147.551 78.18 146.671 77.72 146.671 76.78C146.671 75.62 147.771 74.82 149.071 74.02L151.711 77.02C150.971 77.74 149.991 78.18 148.851 78.18ZM173.849 80L170.089 73.92C171.749 73.36 172.669 72.08 172.669 70.08C172.669 67.58 171.249 66.06 167.929 66.06H163.369V80H165.849V74.22H166.769H167.609L170.949 80H173.849ZM165.849 71.92V68.36H167.669C169.289 68.36 170.169 68.76 170.169 70.12C170.169 71.48 169.289 71.92 167.669 71.92H165.849ZM179.397 80.2C181.057 80.2 182.357 79.62 183.437 78.42L181.777 76.96C181.097 77.74 180.297 78.02 179.417 78.02C177.857 78.02 177.057 77.16 176.957 75.86H183.717C183.757 75.54 183.777 75.24 183.777 74.94C183.777 72.2 182.297 69.94 179.237 69.94C175.957 69.94 174.557 72.54 174.557 75.12C174.557 77.76 175.997 80.2 179.397 80.2ZM176.977 74.16C176.937 73.12 177.657 71.94 179.217 71.94C180.417 71.94 181.297 72.6 181.457 73.78C181.477 73.9 181.477 74.04 181.477 74.16H176.977ZM189.768 69.94C187.888 69.94 186.428 70.72 185.328 72.06L187.068 73.52C187.768 72.58 188.708 72.04 189.728 72.04C190.848 72.04 191.588 72.68 191.588 73.78V74.06H189.128C188.128 74.06 187.228 74.18 186.508 74.5C185.608 74.92 185.028 75.68 185.028 76.98C185.028 79.1 186.808 80.2 188.588 80.2C189.708 80.2 190.928 79.76 191.588 78.72L191.788 80H193.988V73.78C193.988 71.18 192.148 69.94 189.768 69.94ZM188.968 78.16C187.968 78.16 187.428 77.7 187.428 77.02C187.428 76.62 187.588 76.36 187.828 76.2C188.228 75.9 188.868 75.86 189.448 75.86H191.588V75.94C191.448 77.08 190.528 78.16 188.968 78.16ZM200.615 80.2C202.575 80.2 204.095 79.12 204.755 77.28L202.575 76.44C202.315 77.46 201.555 78.1 200.595 78.1C198.915 78.1 198.295 76.66 198.295 75.1C198.295 73.54 198.935 72.04 200.595 72.04C201.575 72.04 202.315 72.7 202.575 73.74L204.855 72.84C204.095 70.88 202.555 69.94 200.595 69.94C197.375 69.94 195.835 72.5 195.835 75.1C195.835 77.7 197.395 80.2 200.615 80.2ZM206.797 80H209.197V76.06C209.197 74.3 209.197 72.04 211.437 72.04C213.257 72.04 213.257 73.56 213.257 74.24V80H215.657V73.64C215.657 71.3 214.397 69.94 212.177 69.94C210.977 69.94 209.897 70.34 209.197 71.28V66.06H206.797V80ZM223.865 80H226.365V73.98H232.465V80H234.965V66.06H232.465V71.68H226.365V66.06H223.865V80ZM238.274 68.28H240.794V66.06H238.274V68.28ZM238.334 80H240.734V70.14H238.334V80ZM246.79 80.2C248.65 80.2 250.63 79.2 250.63 76.9C250.63 73.3 245.63 74.18 245.63 72.68C245.63 72.22 246.11 71.84 246.89 71.84C247.97 71.84 248.51 72.48 248.85 73.1L250.71 72.08C249.97 70.74 248.67 69.94 246.97 69.94C245.07 69.94 243.31 70.92 243.31 73.02C243.31 76.48 248.27 75.38 248.27 77.04C248.27 77.56 247.79 78.2 246.67 78.2C245.35 78.2 244.83 77.3 244.57 76.58L242.65 77.44C243.13 78.94 244.71 80.2 246.79 80.2ZM258.213 72.04V70.14H255.753V66.06L253.353 67.84V70.14H251.753V72.04H253.353V77.24C253.353 79.34 254.753 80.2 256.413 80.2C257.013 80.2 257.613 80.1 258.213 79.9V77.98C257.773 78.12 257.353 78.2 257.013 78.2C256.233 78.2 255.753 77.84 255.753 77.06V72.04H258.213ZM264.479 80.2C267.519 80.2 269.419 77.84 269.419 75.06C269.419 72.26 267.519 69.94 264.479 69.94C261.419 69.94 259.539 72.26 259.539 75.06C259.539 77.84 261.419 80.2 264.479 80.2ZM264.479 78.1C262.659 78.1 261.939 76.66 261.939 75.06C261.939 73.44 262.659 72.04 264.479 72.04C266.299 72.04 267.019 73.44 267.019 75.06C267.019 76.66 266.299 78.1 264.479 78.1ZM271.537 80H273.937V75.04C273.937 73.18 274.657 72.28 276.117 72.28C276.597 72.28 276.977 72.4 277.317 72.62L278.477 70.5C277.837 70.1 277.257 69.94 276.597 69.94C275.497 69.94 274.377 70.6 273.957 71.8V70.14H271.537V80ZM280.93 84.08H283.53L289.13 70.14H286.49L283.97 76.98L281.47 70.14H278.83L282.69 79.74L280.93 84.08Z" fill="#183B56"/>
<g clip-path="url(#clip1_1_509)">
<path d="M34.8877 331H33.7803V323.877C33.7803 323.285 33.7985 322.724 33.835 322.195C33.7393 322.291 33.6322 322.391 33.5137 322.496C33.3952 322.601 32.8529 323.045 31.8867 323.829L31.2852 323.05L33.9307 321.006H34.8877V331ZM40.3359 327.165C40.5319 326.887 40.8304 326.522 41.2314 326.071L43.6514 323.508H44.998L41.9629 326.7L45.21 331H43.8359L41.1904 327.459L40.3359 328.197V331H39.2148V320.363H40.3359V326.003C40.3359 326.254 40.3177 326.641 40.2812 327.165H40.3359Z" fill="#5A7184"/>
<path d="M37.3076 375.989C37.3076 377.716 37.0342 379.006 36.4873 379.858C35.945 380.711 35.1133 381.137 33.9922 381.137C32.9167 381.137 32.0986 380.701 31.5381 379.831C30.9775 378.956 30.6973 377.675 30.6973 375.989C30.6973 374.248 30.9684 372.956 31.5107 372.113C32.0531 371.27 32.8802 370.849 33.9922 370.849C35.0768 370.849 35.8994 371.288 36.46 372.168C37.0251 373.048 37.3076 374.321 37.3076 375.989ZM31.8457 375.989C31.8457 377.443 32.0166 378.503 32.3584 379.168C32.7002 379.829 33.2448 380.159 33.9922 380.159C34.7487 380.159 35.2956 379.824 35.6328 379.154C35.9746 378.48 36.1455 377.425 36.1455 375.989C36.1455 374.554 35.9746 373.503 35.6328 372.838C35.2956 372.168 34.7487 371.833 33.9922 371.833C33.2448 371.833 32.7002 372.163 32.3584 372.824C32.0166 373.48 31.8457 374.535 31.8457 375.989Z" fill="#5A7184"/>
<path d="M37.2529 281H30.6836V280.022L33.3154 277.377C34.1175 276.566 34.6462 275.987 34.9014 275.641C35.1566 275.294 35.348 274.957 35.4756 274.629C35.6032 274.301 35.667 273.948 35.667 273.569C35.667 273.036 35.5052 272.615 35.1816 272.305C34.8581 271.99 34.4092 271.833 33.835 271.833C33.4202 271.833 33.026 271.901 32.6523 272.038C32.2832 272.175 31.8708 272.423 31.415 272.783L30.8135 272.011C31.734 271.245 32.7367 270.862 33.8213 270.862C34.7601 270.862 35.4961 271.104 36.0293 271.587C36.5625 272.065 36.8291 272.71 36.8291 273.521C36.8291 274.155 36.6514 274.782 36.2959 275.401C35.9404 276.021 35.2751 276.805 34.2998 277.753L32.1123 279.893V279.947H37.2529V281ZM40.3359 277.165C40.5319 276.887 40.8304 276.522 41.2314 276.071L43.6514 273.508H44.998L41.9629 276.7L45.21 281H43.8359L41.1904 277.459L40.3359 278.197V281H39.2148V270.363H40.3359V276.003C40.3359 276.254 40.3177 276.641 40.2812 277.165H40.3359Z" fill="#5A7184"/>
<path d="M37.7246 228.703H36.2412V231H35.1543V228.703H30.2939V227.712L35.0381 220.951H36.2412V227.671H37.7246V228.703ZM35.1543 227.671V224.349C35.1543 223.697 35.1771 222.961 35.2227 222.141H35.168C34.9492 222.578 34.7441 222.94 34.5527 223.228L31.4287 227.671H35.1543ZM40.3359 227.165C40.5319 226.887 40.8304 226.522 41.2314 226.071L43.6514 223.508H44.998L41.9629 226.7L45.21 231H43.8359L41.1904 227.459L40.3359 228.197V231H39.2148V220.363H40.3359V226.003C40.3359 226.254 40.3177 226.641 40.2812 227.165H40.3359Z" fill="#5A7184"/>
<path d="M30.7998 176.728C30.7998 174.763 31.1803 173.296 31.9414 172.325C32.707 171.35 33.8372 170.862 35.332 170.862C35.847 170.862 36.2526 170.906 36.5488 170.992V171.97C36.1979 171.856 35.7969 171.799 35.3457 171.799C34.2747 171.799 33.4567 172.134 32.8916 172.804C32.3265 173.469 32.0166 174.517 31.9619 175.948H32.0439C32.5452 175.164 33.3382 174.772 34.4229 174.772C35.3206 174.772 36.027 175.044 36.542 175.586C37.0615 176.128 37.3213 176.864 37.3213 177.794C37.3213 178.833 37.0365 179.651 36.4668 180.248C35.9017 180.84 35.1361 181.137 34.1699 181.137C33.1354 181.137 32.3151 180.749 31.709 179.975C31.1029 179.195 30.7998 178.113 30.7998 176.728ZM34.1562 180.173C34.8034 180.173 35.3047 179.97 35.6602 179.564C36.0202 179.154 36.2002 178.564 36.2002 177.794C36.2002 177.133 36.0339 176.614 35.7012 176.235C35.3685 175.857 34.8717 175.668 34.2109 175.668C33.8008 175.668 33.4248 175.752 33.083 175.921C32.7412 176.09 32.4678 176.322 32.2627 176.618C32.0622 176.914 31.9619 177.222 31.9619 177.541C31.9619 178.01 32.0531 178.448 32.2354 178.854C32.4176 179.259 32.6751 179.58 33.0078 179.817C33.3451 180.054 33.7279 180.173 34.1562 180.173ZM40.3359 177.165C40.5319 176.887 40.8304 176.522 41.2314 176.071L43.6514 173.508H44.998L41.9629 176.7L45.21 181H43.8359L41.1904 177.459L40.3359 178.197V181H39.2148V170.363H40.3359V176.003C40.3359 176.254 40.3177 176.641 40.2812 177.165H40.3359Z" fill="#5A7184"/>
</g>
<g clip-path="url(#clip2_1_509)">
<rect opacity="0.1" x="30" y="106" width="126" height="32" rx="4" fill="#B3BAC5"/>
<path d="M57.52 127H59.216V115.848H57.52V127ZM62.1504 127H63.7824V123.704C63.7824 122.056 63.9104 120.392 65.4944 120.392C66.7904 120.392 66.9824 121.64 66.9824 122.504V127H68.6144V123.704C68.6144 122.056 68.7264 120.392 70.3104 120.392C71.6704 120.392 71.8144 121.704 71.8144 122.552V127H73.4464V122.072C73.4464 120.392 72.6304 118.968 70.7424 118.968C69.6864 118.968 68.7744 119.4 68.1984 120.648C67.7664 119.368 66.8224 118.968 65.8944 118.968C65.0304 118.968 64.1984 119.304 63.7184 120.264V119.112H62.1504V127ZM75.8816 130.264H77.5136V125.88C77.9936 126.648 78.9536 127.144 79.9776 127.144C81.9296 127.144 83.3056 125.592 83.3056 123.064C83.3056 120.712 82.1056 118.968 79.9776 118.968C78.9856 118.968 78.0416 119.384 77.5136 120.216V119.112H75.8816V130.264ZM79.5776 125.72C78.1056 125.72 77.3696 124.568 77.3696 123.048C77.3696 121.512 78.1056 120.392 79.5936 120.392C80.9856 120.392 81.6736 121.384 81.6736 123.048C81.6736 124.696 80.9696 125.72 79.5776 125.72ZM85.316 127H86.932V122.904C86.932 121.288 87.668 120.552 88.852 120.552C89.22 120.552 89.524 120.648 89.796 120.808L90.596 119.368C90.116 119.08 89.668 118.968 89.172 118.968C88.26 118.968 87.3 119.496 86.948 120.552V119.112H85.316V127ZM94.6364 127.144C95.9484 127.144 96.9244 126.712 97.8044 125.752L96.6684 124.76C96.0764 125.432 95.4364 125.672 94.6524 125.672C93.2924 125.672 92.5404 124.856 92.4764 123.576H98.0124C98.0444 123.336 98.0604 123.08 98.0604 122.856C98.0604 120.792 96.9404 118.968 94.5084 118.968C91.9964 118.968 90.8444 120.968 90.8444 123.096C90.8444 125.256 92.0284 127.144 94.6364 127.144ZM92.4924 122.408C92.4764 121.352 93.1644 120.328 94.4924 120.328C95.6764 120.328 96.3804 121.064 96.4924 122.072C96.5084 122.184 96.5084 122.312 96.4924 122.408H92.4924ZM102.429 127.144C103.933 127.144 105.405 126.344 105.405 124.6C105.405 121.672 101.213 122.552 101.213 121.096C101.213 120.632 101.677 120.264 102.429 120.264C103.341 120.264 103.837 120.776 104.141 121.352L105.405 120.648C104.829 119.592 103.805 118.968 102.493 118.968C100.973 118.968 99.6449 119.736 99.6449 121.336C99.6449 124.12 103.805 123.08 103.805 124.68C103.805 125.24 103.341 125.784 102.349 125.784C101.245 125.784 100.701 125.064 100.461 124.392L99.1489 124.984C99.5489 126.184 100.797 127.144 102.429 127.144ZM109.879 127.144C111.383 127.144 112.855 126.344 112.855 124.6C112.855 121.672 108.663 122.552 108.663 121.096C108.663 120.632 109.127 120.264 109.879 120.264C110.791 120.264 111.287 120.776 111.591 121.352L112.855 120.648C112.279 119.592 111.255 118.968 109.943 118.968C108.423 118.968 107.095 119.736 107.095 121.336C107.095 124.12 111.255 123.08 111.255 124.68C111.255 125.24 110.791 125.784 109.799 125.784C108.695 125.784 108.151 125.064 107.911 124.392L106.599 124.984C106.999 126.184 108.247 127.144 109.879 127.144ZM114.865 117.576H116.577V115.848H114.865V117.576ZM114.913 127H116.529V119.112H114.913V127ZM122.344 127.144C124.712 127.144 126.248 125.304 126.248 123.048C126.248 120.776 124.712 118.968 122.344 118.968C119.96 118.968 118.456 120.776 118.456 123.048C118.456 125.304 119.96 127.144 122.344 127.144ZM122.344 125.72C120.808 125.72 120.088 124.504 120.088 123.048C120.088 121.576 120.808 120.392 122.344 120.392C123.896 120.392 124.616 121.576 124.616 123.048C124.616 124.504 123.896 125.72 122.344 125.72ZM128.172 127H129.788V123.672C129.788 122.088 129.964 120.392 131.724 120.392C133.196 120.392 133.34 121.56 133.34 122.376V127H134.972V121.976C134.972 120.024 133.964 118.968 132.22 118.968C131.196 118.968 130.316 119.352 129.788 120.232V119.112H128.172V127ZM139.82 127.144C141.324 127.144 142.796 126.344 142.796 124.6C142.796 121.672 138.604 122.552 138.604 121.096C138.604 120.632 139.068 120.264 139.82 120.264C140.732 120.264 141.228 120.776 141.532 121.352L142.796 120.648C142.22 119.592 141.196 118.968 139.884 118.968C138.364 118.968 137.036 119.736 137.036 121.336C137.036 124.12 141.196 123.08 141.196 124.68C141.196 125.24 140.732 125.784 139.74 125.784C138.636 125.784 138.092 125.064 137.852 124.392L136.54 124.984C136.94 126.184 138.188 127.144 139.82 127.144Z" fill="#8C98A4"/>
<path fill-rule="evenodd" clip-rule="evenodd" d="M44 126C46.2091 126 48 124.209 48 122C48 119.791 46.2091 118 44 118C41.7909 118 40 119.791 40 122C40 124.209 41.7909 126 44 126Z" fill="#36B37E"/>
</g>
<g clip-path="url(#clip3_1_509)">
<rect opacity="0.1" x="172" y="106" width="83" height="32" rx="4" fill="#B3BAC5"/>
<path d="M207.632 127L204.592 122.056C206 121.64 206.752 120.632 206.752 119.016C206.752 117.032 205.584 115.848 202.992 115.848H199.52V127H201.2V122.264H202.224H202.928L205.664 127H207.632ZM201.2 120.696V117.4H202.832C204.256 117.4 205.056 117.832 205.056 119.048C205.056 120.248 204.272 120.696 202.832 120.696H201.2ZM212.255 127.144C213.567 127.144 214.543 126.712 215.423 125.752L214.287 124.76C213.695 125.432 213.055 125.672 212.271 125.672C210.911 125.672 210.159 124.856 210.095 123.576H215.631C215.663 123.336 215.679 123.08 215.679 122.856C215.679 120.792 214.559 118.968 212.127 118.968C209.615 118.968 208.463 120.968 208.463 123.096C208.463 125.256 209.647 127.144 212.255 127.144ZM210.111 122.408C210.095 121.352 210.783 120.328 212.111 120.328C213.295 120.328 213.999 121.064 214.111 122.072C214.127 122.184 214.127 122.312 214.111 122.408H210.111ZM220.576 118.968C219.12 118.968 218 119.56 217.136 120.632L218.32 121.624C218.912 120.824 219.664 120.392 220.544 120.392C221.6 120.392 222.24 120.984 222.24 122.04V122.312H220.208C219.344 122.312 218.608 122.424 218.032 122.68C217.328 123.032 216.896 123.624 216.896 124.632C216.896 126.264 218.24 127.144 219.696 127.144C220.672 127.144 221.696 126.728 222.24 125.8L222.368 127H223.872V122.04C223.872 119.976 222.48 118.968 220.576 118.968ZM219.952 125.752C219.024 125.752 218.512 125.32 218.512 124.648C218.512 124.264 218.672 124.008 218.928 123.848C219.28 123.592 219.84 123.528 220.416 123.528H222.24V123.784C222.08 124.856 221.28 125.752 219.952 125.752ZM229.31 127.144C230.846 127.144 232.03 126.312 232.542 124.872L231.054 124.296C230.814 125.176 230.142 125.72 229.294 125.72C227.822 125.72 227.246 124.456 227.246 123.08C227.246 121.704 227.838 120.392 229.294 120.392C230.142 120.392 230.814 120.952 231.07 121.848L232.622 121.224C232.014 119.72 230.814 118.968 229.294 118.968C226.782 118.968 225.582 121 225.582 123.08C225.582 125.208 226.83 127.144 229.31 127.144ZM234.391 127H236.023V123.672C236.023 122.088 236.199 120.392 237.959 120.392C239.431 120.392 239.575 121.56 239.575 122.376V127H241.207V121.976C241.207 120.024 240.199 118.968 238.455 118.968C237.431 118.968 236.551 119.352 236.023 120.232V115.848H234.391V127Z" fill="#8C98A4"/>
<path fill-rule="evenodd" clip-rule="evenodd" d="M186 126C188.209 126 190 124.209 190 122C190 119.791 188.209 118 186 118C183.791 118 182 119.791 182 122C182 124.209 183.791 126 186 126Z" fill="#FAAD13"/>
</g>
<path d="M70 175.5H496.5" stroke="#EEF0F2" stroke-dasharray="4 4"/>
<path d="M70 225.5H496.5" stroke="#EEF0F2" stroke-dasharray="4 4"/>
<path d="M70 275.5H496.5" stroke="#EEF0F2" stroke-dasharray="4 4"/>
<path d="M70 325.5H496.5" stroke="#EEF0F2" stroke-dasharray="4 4"/>
<path d="M70 375.5H496.5" stroke="#EEF0F2" stroke-dasharray="4 4"/>
<path d="M153.002 308.155L152.239 306.864V306.864L153.002 308.155ZM153.531 306.101L154.823 305.339V305.339L153.531 306.101ZM146.525 311.977L145.763 310.685L145.5 310.84L145.319 311.086L146.525 311.977ZM108.207 363.891L109.414 364.782L108.207 363.891ZM107.177 365.286L106.122 366.352L107.355 367.571L108.384 366.177L107.177 365.286ZM105.945 364.066L107 363L105.945 364.066ZM68.9449 327.454L70 326.388L68.9449 327.454ZM68.9338 325.333L70 326.388L68.9338 325.333ZM71.0551 325.322L72.1101 324.255L71.0551 325.322ZM106.823 360.714L105.768 361.781L107 363L108.03 361.605L106.823 360.714ZM144.293 309.949L145.5 310.84L145.5 310.84L144.293 309.949ZM144.475 309.703L143.712 308.412L143.449 308.567L143.268 308.813L144.475 309.703ZM144.738 309.548L143.975 308.256V308.256L144.738 309.548ZM151.477 305.572L150.715 304.28V304.28L151.477 305.572ZM153.764 309.447C155.191 308.605 155.665 306.766 154.823 305.339L152.239 306.864V306.864L153.764 309.447ZM147.288 313.269L153.764 309.447L152.239 306.864L145.763 310.685L147.288 313.269ZM109.414 364.782L147.732 312.867L145.319 311.086L107 363L109.414 364.782ZM108.384 366.177L109.414 364.782L107 363L105.97 364.395L108.384 366.177ZM104.89 365.133L106.122 366.352L108.232 364.219L107 363L104.89 365.133ZM67.8899 328.52L104.89 365.133L107 363L70 326.388L67.8899 328.52ZM67.8675 324.278C66.7022 325.455 66.7122 327.355 67.8899 328.52L70 326.388H70L67.8675 324.278ZM72.1101 324.255C70.9324 323.09 69.0329 323.1 67.8675 324.278L70 326.388L70 326.388L72.1101 324.255ZM107.878 359.648L72.1101 324.255L70 326.388L105.768 361.781L107.878 359.648ZM143.086 309.058L105.616 359.824L108.03 361.605L145.5 310.84L143.086 309.058ZM143.268 308.813L143.086 309.058L145.5 310.84L145.681 310.594L143.268 308.813ZM143.975 308.256L143.712 308.412L145.237 310.995L145.5 310.84L143.975 308.256ZM150.715 304.28L143.975 308.256L145.5 310.84L152.239 306.864L150.715 304.28ZM154.823 305.339C153.981 303.912 152.142 303.438 150.715 304.28L152.239 306.864V306.864L154.823 305.339Z" fill="#36B37E"/>
<path d="M537 200C537 203.314 534.314 206 531 206C527.686 206 525 203.314 525 200C525 196.686 527.686 194 531 194C534.314 194 537 196.686 537 200Z" fill="#36B37E" stroke="white" stroke-width="2"/>
<path d="M465 260C465 263.314 462.314 266 459 266C455.686 266 453 263.314 453 260C453 256.686 455.686 254 459 254C462.314 254 465 256.686 465 260Z" fill="#36B37E" stroke="white" stroke-width="2"/>
<path d="M433 237C433 240.314 430.314 243 427 243C423.686 243 421 240.314 421 237C421 233.686 423.686 231 427 231C430.314 231 433 233.686 433 237Z" fill="#36B37E" stroke="white" stroke-width="2"/>
<path d="M376 216C376 219.314 373.314 222 370 222C366.686 222 364 219.314 364 216C364 212.686 366.686 210 370 210C373.314 210 376 212.686 376 216Z" fill="#36B37E" stroke="white" stroke-width="2"/>
<path d="M323 275C323 278.314 320.314 281 317 281C313.686 281 311 278.314 311 275C311 271.686 313.686 269 317 269C320.314 269 323 271.686 323 275Z" fill="#36B37E" stroke="white" stroke-width="2"/>
<path d="M264 301C264 304.314 261.314 307 258 307C254.686 307 252 304.314 252 301C252 297.686 254.686 295 258 295C261.314 295 264 297.686 264 301Z" fill="#36B37E" stroke="white" stroke-width="2"/>
<path d="M212 275C212 278.314 209.314 281 206 281C202.686 281 200 278.314 200 275C200 271.686 202.686 269 206 269C209.314 269 212 271.686 212 275Z" fill="#36B37E" stroke="white" stroke-width="2"/>
<path d="M114 363C114 366.314 111.314 369 108 369C104.686 369 102 366.314 102 363C102 359.686 104.686 357 108 357C111.314 357 114 359.686 114 363Z" fill="#36B37E" stroke="white" stroke-width="2"/>
<path d="M70 233.5L105 266L145.5 290.5L205.5 351L258.5 324L318 245.5L369.5 266L425 296L458.5 220L530 240L585 286" stroke="#FAAD13" stroke-width="3" stroke-linecap="round"/>
<path opacity="0.1" fill-rule="evenodd" clip-rule="evenodd" d="M70 233.5L105 266L145.5 290.5L205.5 351L258.5 324L318 245.5L369.5 266L425 296L458.5 220L527 241C527 241 527 281.5 527 376C373.667 376 70 376 70 376V233.5Z" fill="url(#paint0_linear_1_509)"/>
<path d="M114 268C114 271.314 111.314 274 108 274C104.686 274 102 271.314 102 268C102 264.686 104.686 262 108 262C111.314 262 114 264.686 114 268Z" fill="#FAAD13" stroke="white" stroke-width="2"/>
<path d="M212 350C212 353.314 209.314 356 206 356C202.686 356 200 353.314 200 350C200 346.686 202.686 344 206 344C209.314 344 212 346.686 212 350Z" fill="#FAAD13" stroke="white" stroke-width="2"/>
<path d="M264 324C264 327.314 261.314 330 258 330C254.686 330 252 327.314 252 324C252 320.686 254.686 318 258 318C261.314 318 264 320.686 264 324Z" fill="#FAAD13" stroke="white" stroke-width="2"/>
<path d="M323 245C323 248.314 320.314 251 317 251C313.686 251 311 248.314 311 245C311 241.686 313.686 239 317 239C320.314 239 323 241.686 323 245Z" fill="#FAAD13" stroke="white" stroke-width="2"/>
<path d="M377 267C377 270.314 374.314 273 371 273C367.686 273 365 270.314 365 267C365 263.686 367.686 261 371 261C374.314 261 377 263.686 377 267Z" fill="#FAAD13" stroke="white" stroke-width="2"/>
<path d="M431 296C431 299.314 428.314 302 425 302C421.686 302 419 299.314 419 296C419 292.686 421.686 290 425 290C428.314 290 431 292.686 431 296Z" fill="#FAAD13" stroke="white" stroke-width="2"/>
<path d="M465 221C465 224.314 462.314 227 459 227C455.686 227 453 224.314 453 221C453 217.686 455.686 215 459 215C462.314 215 465 217.686 465 221Z" fill="#FAAD13" stroke="white" stroke-width="2"/>
<path d="M537 241C537 244.314 534.314 247 531 247C527.686 247 525 244.314 525 241C525 237.686 527.686 235 531 235C534.314 235 537 237.686 537 241Z" fill="#FAAD13" stroke="white" stroke-width="2"/>
<path fill-rule="evenodd" clip-rule="evenodd" d="M435 64C452.673 64 467 49.6731 467 32C467 14.3269 452.673 0 435 0C417.327 0 403 14.3269 403 32C403 49.6731 417.327 64 435 64Z" fill="#FDF5E6"/>
<path d="M433.49 33.6631C432.384 33.0982 431.628 31.9565 431.628 30.64C431.628 28.7622 433.166 27.24 435.064 27.24C436.961 27.24 438.499 28.7622 438.499 30.64C438.499 31.9976 437.695 33.1694 436.533 33.7144L440.938 43.4028C441.405 44.4303 440.942 45.638 439.904 46.1003C439.638 46.2187 439.35 46.28 439.058 46.28H430.941C429.803 46.28 428.88 45.3667 428.88 44.24C428.88 43.9514 428.942 43.666 429.062 43.4028L433.49 33.6631Z" fill="#FAAD13"/>
<path fill-rule="evenodd" clip-rule="evenodd" d="M429.622 40.1551C429.945 39.693 429.831 39.0572 429.369 38.735C426.719 36.888 425.14 33.8827 425.14 30.64C425.14 25.1945 429.554 20.78 435 20.78C440.446 20.78 444.86 25.1945 444.86 30.64C444.86 33.8827 443.281 36.888 440.631 38.735C440.169 39.0572 440.055 39.693 440.378 40.1551C440.7 40.6172 441.335 40.7307 441.798 40.4086C444.993 38.1811 446.9 34.5519 446.9 30.64C446.9 24.0678 441.572 18.74 435 18.74C428.428 18.74 423.1 24.0678 423.1 30.64C423.1 34.5519 425.007 38.1811 428.202 40.4086C428.665 40.7307 429.3 40.6172 429.622 40.1551ZM431.521 36.5719C431.875 36.1338 431.807 35.4916 431.369 35.1374C430.009 34.0375 429.22 32.3965 429.22 30.64C429.22 27.4478 431.808 24.86 435 24.86C438.192 24.86 440.78 27.4478 440.78 30.64C440.78 32.3965 439.991 34.0375 438.631 35.1374C438.193 35.4916 438.125 36.1338 438.479 36.5719C438.833 37.01 439.476 37.0779 439.914 36.7238C441.752 35.2376 442.82 33.0144 442.82 30.64C442.82 26.3211 439.319 22.82 435 22.82C430.681 22.82 427.18 26.3211 427.18 30.64C427.18 33.0144 428.248 35.2376 430.086 36.7238C430.524 37.0779 431.167 37.01 431.521 36.5719Z" fill="#FAAD13"/>
<path fill-rule="evenodd" clip-rule="evenodd" d="M299 448C316.673 448 331 433.673 331 416C331 398.327 316.673 384 299 384C281.327 384 267 398.327 267 416C267 433.673 281.327 448 299 448Z" fill="#EAF7F2"/>
<path fill-rule="evenodd" clip-rule="evenodd" d="M299 409.88C294.06 409.88 289.648 413.257 287.492 418.46C287.423 418.626 287.423 418.814 287.492 418.98C289.648 424.183 294.06 427.56 299 427.56C303.94 427.56 308.352 424.183 310.508 418.98C310.577 418.814 310.577 418.626 310.508 418.46C308.352 413.257 303.94 409.88 299 409.88ZM295.6 418.72C295.6 420.598 297.122 422.12 299 422.12C300.878 422.12 302.4 420.598 302.4 418.72C302.4 416.842 300.878 415.32 299 415.32C297.122 415.32 295.6 416.842 295.6 418.72Z" fill="#36B37E"/>
<path fill-rule="evenodd" clip-rule="evenodd" d="M299 404.1C298.437 404.1 297.98 404.557 297.98 405.12V407.84C297.98 408.403 298.437 408.86 299 408.86C299.563 408.86 300.02 408.403 300.02 407.84V405.12C300.02 404.557 299.563 404.1 299 404.1ZM301.04 418.72C301.04 419.847 300.127 420.76 299 420.76C297.873 420.76 296.96 419.847 296.96 418.72C296.96 417.593 297.873 416.68 299 416.68C300.127 416.68 301.04 417.593 301.04 418.72ZM309.159 405.759C309.557 405.361 310.203 405.361 310.601 405.759C311 406.157 311 406.803 310.601 407.201L307.881 409.921C307.483 410.32 306.837 410.32 306.439 409.921C306.04 409.523 306.04 408.877 306.439 408.479L309.159 405.759ZM291.561 408.479L288.841 405.759C288.443 405.361 287.797 405.361 287.399 405.759C287 406.157 287 406.803 287.399 407.201L290.119 409.921C290.517 410.32 291.163 410.32 291.561 409.921C291.96 409.523 291.96 408.877 291.561 408.479Z" fill="#36B37E"/>
</g>
<defs>
<filter id="filter0_d_1_509" x="-39" y="10" width="605" height="462" filterUnits="userSpaceOnUse" color-interpolation-filters="sRGB">
<feFlood flood-opacity="0" result="BackgroundImageFix"/>
<feColorMatrix in="SourceAlpha" type="matrix" values="0 0 0 0 0 0 0 0 0 0 0 0 0 0 0 0 0 0 127 0" result="hardAlpha"/>
<feOffset dy="17"/>
<feGaussianBlur stdDeviation="19.5"/>
<feColorMatrix type="matrix" values="0 0 0 0 0 0 0 0 0 0 0 0 0 0 0 0 0 0 0.05 0"/>
<feBlend mode="normal" in2="BackgroundImageFix" result="effect1_dropShadow_1_509"/>
<feBlend mode="normal" in="SourceGraphic" in2="effect1_dropShadow_1_509" result="shape"/>
</filter>
<linearGradient id="paint0_linear_1_509" x1="70" y1="220" x2="70" y2="376" gradientUnits="userSpaceOnUse">
<stop stop-color="#FDD62B"/>
<stop offset="1" stop-color="white"/>
</linearGradient>
<clipPath id="clip0_1_509">
<rect width="585" height="448" fill="white"/>
</clipPath>
<clipPath id="clip1_1_509">
<rect width="16" height="220" fill="white" transform="translate(30 166)"/>
</clipPath>
<clipPath id="clip2_1_509">
<rect width="126" height="32" fill="white" transform="translate(30 106)"/>
</clipPath>
<clipPath id="clip3_1_509">
<rect width="83" height="32" fill="white" transform="translate(172 106)"/>
</clipPath>
</defs>
</svg>
