<svg width="744" height="354" viewBox="0 0 744 354" fill="none" xmlns="http://www.w3.org/2000/svg">
<g filter="url(#filter0_d_1_759)">
<rect x="47" y="27" width="650" height="260" rx="8" fill="white"/>
</g>
<g clip-path="url(#clip0_1_759)">
<path d="M600.12 152.288C602.928 150.56 606.216 146.912 606.216 143.144C606.216 140.048 604.032 138.056 600.984 138.056C597.24 138.056 595.224 141.08 595.224 144.152L598.056 144.368C598.128 142.64 598.8 140.84 600.984 140.84C602.64 140.84 603.336 141.896 603.336 143.336C603.336 147.272 598.152 150.848 595.2 152.624V155H606.912V152.288H600.12ZM615.631 143.504C614.862 143.504 613.951 143.648 613.039 144.224L613.638 141.032H620.575V138.272H611.262L609.654 147.08L612.366 147.752C612.918 146.888 613.831 146.192 615.247 146.192C617.359 146.192 618.271 147.608 618.271 149.168C618.271 150.8 617.287 152.48 615.175 152.48C613.183 152.48 612.15 151.064 611.982 149.696L609.15 150.176C609.558 152.984 611.982 155.24 615.198 155.24C618.775 155.24 621.319 152.36 621.319 149.168C621.319 146.12 618.991 143.504 615.631 143.504ZM624.085 158.576H625.981L629.005 151.88H625.669L624.085 158.576ZM637.067 155.24C640.331 155.24 643.259 153.464 643.259 150.08C643.259 148.256 642.419 146.672 640.187 146.048C641.843 145.28 642.371 143.912 642.371 142.616C642.371 139.736 639.803 138.032 637.019 138.032C634.139 138.032 631.667 139.856 631.667 143L634.499 143.192C634.523 141.68 635.531 140.792 637.067 140.792C638.411 140.792 639.491 141.488 639.491 142.976C639.491 144.272 639.131 145.112 636.323 145.112V147.392C638.195 147.392 640.379 147.464 640.379 149.84C640.379 151.664 638.843 152.48 637.115 152.48C635.171 152.48 633.707 151.448 633.707 149.552L630.851 149.72C630.851 153.416 633.731 155.24 637.067 155.24ZM661.145 155L654.761 144.608L660.977 138.272H657.041L649.529 146.144V138.272H646.529V155H649.529V149.912L652.721 146.672L657.665 155H661.145Z" fill="#183B56"/>
<rect x="594" y="115" width="28" height="6" rx="2" fill="#FAAD13"/>
</g>
<path d="M599.832 229.728H602.232V224.784H607.152V222.384H602.232V217.464H599.832V222.384H594.888V224.784H599.832V229.728ZM615.055 214.272V215.28C615.055 216.408 614.407 216.888 613.255 216.888H611.023V219.168H614.935V231H617.815V214.272H615.055ZM628.622 228.288C631.43 226.56 634.718 222.912 634.718 219.144C634.718 216.048 632.534 214.056 629.486 214.056C625.742 214.056 623.726 217.08 623.726 220.152L626.558 220.368C626.63 218.64 627.302 216.84 629.486 216.84C631.142 216.84 631.838 217.896 631.838 219.336C631.838 223.272 626.654 226.848 623.702 228.624V231H635.414V228.288H628.622ZM643.916 231.24C648.404 231.24 649.532 226.8 649.532 222.672C649.532 218.496 648.356 214.008 643.748 214.008C638.684 214.008 638.108 219.072 638.108 222.648C638.108 226.176 638.732 231.24 643.916 231.24ZM643.844 228.48C641.132 228.48 641.06 225.384 641.06 222.648C641.06 219.816 641.132 216.768 643.748 216.768C646.364 216.768 646.436 219.792 646.436 222.624C646.436 225.312 646.388 228.48 643.844 228.48Z" fill="#183B56"/>
<rect x="594" y="191" width="28" height="6" rx="2" fill="#36B37E"/>
<rect x="617" y="51" width="48" height="6" rx="2" fill="#B3BAC5"/>
<path d="M87.503 83H547.808" stroke="#EEF0F2" stroke-dasharray="4 4"/>
<path d="M87.503 139H547.808" stroke="#EEF0F2" stroke-dasharray="4 4"/>
<path d="M87.503 195H547.808" stroke="#EEF0F2" stroke-dasharray="4 4"/>
<path d="M87.503 251H547.808" stroke="#EEF0F2" stroke-dasharray="4 4"/>
<rect x="103" y="175" width="8" height="76" rx="2" fill="#FAAD13"/>
<rect x="121" y="185" width="8" height="66" rx="2" fill="#36B37E"/>
<rect x="168" y="125" width="8" height="126" rx="2" fill="#FAAD13"/>
<rect x="186" y="135" width="8" height="116" rx="2" fill="#36B37E"/>
<rect x="233" y="145" width="8" height="106" rx="2" fill="#FAAD13"/>
<rect x="251" y="155" width="8" height="96" rx="2" fill="#36B37E"/>
<rect x="298" y="155" width="8" height="96" rx="2" fill="#FAAD13"/>
<rect x="316" y="165" width="8" height="86" rx="2" fill="#36B37E"/>
<rect x="363" y="135" width="8" height="116" rx="2" fill="#FAAD13"/>
<rect x="381" y="145" width="8" height="106" rx="2" fill="#36B37E"/>
<rect x="428" y="105" width="8" height="146" rx="2" fill="#FAAD13"/>
<rect x="446" y="115" width="8" height="136" rx="2" fill="#36B37E"/>
<rect x="493" y="95" width="8" height="156" rx="2" fill="#FAAD13"/>
<rect x="511" y="105" width="8" height="146" rx="2" fill="#36B37E"/>
<defs>
<filter id="filter0_d_1_759" x="0" y="0" width="744" height="354" filterUnits="userSpaceOnUse" color-interpolation-filters="sRGB">
<feFlood flood-opacity="0" result="BackgroundImageFix"/>
<feColorMatrix in="SourceAlpha" type="matrix" values="0 0 0 0 0 0 0 0 0 0 0 0 0 0 0 0 0 0 127 0" result="hardAlpha"/>
<feOffset dy="20"/>
<feGaussianBlur stdDeviation="23.5"/>
<feColorMatrix type="matrix" values="0 0 0 0 0 0 0 0 0 0 0 0 0 0 0 0 0 0 0.05 0"/>
<feBlend mode="normal" in2="BackgroundImageFix" result="effect1_dropShadow_1_759"/>
<feBlend mode="normal" in="SourceGraphic" in2="effect1_dropShadow_1_759" result="shape"/>
</filter>
<clipPath id="clip0_1_759">
<rect width="68" height="48" fill="white" transform="translate(594 115)"/>
</clipPath>
</defs>
</svg>
