<svg width="380" height="150" viewBox="0 0 380 150" fill="none" xmlns="http://www.w3.org/2000/svg">
<rect width="380" height="150" rx="8" fill="white"/>
<rect x="24" y="24" width="48" height="6" rx="2" fill="#B3BAC5"/>
<rect opacity="0.1" x="318" y="24" width="38" height="6" rx="2" fill="#5A7184"/>
<path d="M24 66.5H354.501" stroke="#EEF0F2" stroke-dasharray="4 4"/>
<path d="M24 106.5H354.501" stroke="#EEF0F2" stroke-dasharray="4 4"/>
<path d="M24 146.5H354.501" stroke="#EEF0F2" stroke-dasharray="4 4"/>
<path d="M24 146.5L54.5 106.5L95 91L143 66L178 82L226.5 94L273 82L307 124.5H334L356 106.5" stroke="#D8D8D8" stroke-width="4" stroke-linecap="round"/>
<path d="M64 104C64 107.866 60.866 111 57 111C53.134 111 50 107.866 50 104C50 100.134 53.134 97 57 97C60.866 97 64 100.134 64 104Z" fill="#D8D8D8" stroke="white" stroke-width="2"/>
<path d="M151 66C151 69.866 147.866 73 144 73C140.134 73 137 69.866 137 66C137 62.134 140.134 59 144 59C147.866 59 151 62.134 151 66Z" fill="#D8D8D8" stroke="white" stroke-width="2"/>
<path d="M233 93C233 96.866 229.866 100 226 100C222.134 100 219 96.866 219 93C219 89.134 222.134 86 226 86C229.866 86 233 89.134 233 93Z" fill="#D8D8D8" stroke="white" stroke-width="2"/>
<path d="M279 82C279 85.866 275.866 89 272 89C268.134 89 265 85.866 265 82C265 78.134 268.134 75 272 75C275.866 75 279 78.134 279 82Z" fill="#D8D8D8" stroke="white" stroke-width="2"/>
<path d="M315 124C315 127.866 311.866 131 308 131C304.134 131 301 127.866 301 124C301 120.134 304.134 117 308 117C311.866 117 315 120.134 315 124Z" fill="#D8D8D8" stroke="white" stroke-width="2"/>
<path d="M341 124C341 127.866 337.866 131 334 131C330.134 131 327 127.866 327 124C327 120.134 330.134 117 334 117C337.866 117 341 120.134 341 124Z" fill="#D8D8D8" stroke="white" stroke-width="2"/>
<path d="M365 104C365 107.866 361.866 111 358 111C354.134 111 351 107.866 351 104C351 100.134 354.134 97 358 97C361.866 97 365 100.134 365 104Z" fill="#D8D8D8" stroke="white" stroke-width="2"/>
</svg>
