<svg width="116" height="32" viewBox="0 0 116 32" fill="none" xmlns="http://www.w3.org/2000/svg">
<path fill-rule="evenodd" clip-rule="evenodd" d="M12.8895 30.2034L12.8894 30.2034L12.8893 30.2034C12.2208 30.2719 11.5421 30.3414 10.8471 30.427L5.27145 14.2966V31.1134C3.52905 31.285 1.96089 31.5138 0.276566 31.7998V0.968994H4.92297L11.2537 18.4722V0.968994H16.1905V29.7978C15.0997 29.9768 14.0089 30.0886 12.8896 30.2033L12.8896 30.2033L12.8895 30.2033L12.8895 30.2034ZM29.2631 12.2354H29.2632L29.2633 12.2353C30.4173 12.2074 31.5444 12.1802 32.3948 12.1802V16.985C30.2458 16.985 27.6903 16.985 25.8318 17.0994V24.2494C26.7368 24.1948 27.6478 24.1345 28.5627 24.0738L28.5629 24.0738L28.5631 24.0738H28.5631H28.5631H28.5632H28.5632C30.5251 23.9438 32.5054 23.8126 34.4857 23.7346V28.3678L20.953 29.3974V0.968994H34.4857V5.77379H25.8318V12.2946C26.8129 12.2946 28.0527 12.2646 29.263 12.2354H29.263H29.2631H29.2631H29.2631ZM47.5537 5.83099H52.6066C52.6066 5.83099 52.6066 0.968994 52.6647 0.968994H37.622V5.83099H42.675V28.0246C44.2431 27.9674 45.9274 27.9674 47.5537 27.9674V5.83099ZM60.5636 11.9514H67.2428V16.7562H60.5636V27.6814H55.743V0.968994H69.3918V5.77379H60.5636V11.9514ZM82.4136 23.6785C80.7339 23.5813 79.0413 23.4833 77.3487 23.4486V0.968994H72.47V27.9674C76.9422 28.0818 81.2982 28.3106 85.6542 28.5966V23.849C84.5818 23.8041 83.5004 23.7415 82.4136 23.6785ZM91.4261 29.0452L91.4265 29.0453C92.473 29.1076 93.5358 29.1709 94.5985 29.283V0.968994H89.7778V28.9398C90.3211 28.9794 90.8714 29.0122 91.4261 29.0452ZM109.757 15.6122L115.972 0.968994H110.57L107.144 9.03419L103.949 0.968994H98.7222L104.414 15.4406L98.1414 29.5118C98.8383 29.6033 99.5353 29.6765 100.232 29.7497C101.278 29.8596 102.323 29.9694 103.369 30.141L106.97 21.9614L110.454 30.8846C111.105 30.9848 111.749 31.0919 112.391 31.1988C113.581 31.397 114.764 31.5939 115.972 31.7426L109.757 15.6122Z" fill="#8C98A4"/>
</svg>
