<svg width="16" height="220" viewBox="0 0 16 220" fill="none" xmlns="http://www.w3.org/2000/svg">
<g clip-path="url(#clip0_1_512)">
<path d="M4.8877 165H3.78027V157.877C3.78027 157.285 3.7985 156.724 3.83496 156.195C3.73926 156.291 3.63216 156.391 3.51367 156.496C3.39518 156.601 2.85286 157.045 1.88672 157.829L1.28516 157.05L3.93066 155.006H4.8877V165ZM10.3359 161.165C10.5319 160.887 10.8304 160.522 11.2314 160.071L13.6514 157.508H14.998L11.9629 160.7L15.21 165H13.8359L11.1904 161.459L10.3359 162.197V165H9.21484V154.363H10.3359V160.003C10.3359 160.254 10.3177 160.641 10.2812 161.165H10.3359Z" fill="#5A7184"/>
<path d="M7.30762 209.989C7.30762 211.716 7.03418 213.006 6.4873 213.858C5.94499 214.711 5.11328 215.137 3.99219 215.137C2.91667 215.137 2.09863 214.701 1.53809 213.831C0.977539 212.956 0.697266 211.675 0.697266 209.989C0.697266 208.248 0.968424 206.956 1.51074 206.113C2.05306 205.27 2.88021 204.849 3.99219 204.849C5.07682 204.849 5.89941 205.288 6.45996 206.168C7.02507 207.048 7.30762 208.321 7.30762 209.989ZM1.8457 209.989C1.8457 211.443 2.0166 212.503 2.3584 213.168C2.7002 213.829 3.24479 214.159 3.99219 214.159C4.7487 214.159 5.29557 213.824 5.63281 213.154C5.97461 212.48 6.14551 211.425 6.14551 209.989C6.14551 208.554 5.97461 207.503 5.63281 206.838C5.29557 206.168 4.7487 205.833 3.99219 205.833C3.24479 205.833 2.7002 206.163 2.3584 206.824C2.0166 207.48 1.8457 208.535 1.8457 209.989Z" fill="#5A7184"/>
<path d="M7.25293 115H0.683594V114.022L3.31543 111.377C4.11751 110.566 4.64616 109.987 4.90137 109.641C5.15658 109.294 5.34798 108.957 5.47559 108.629C5.60319 108.301 5.66699 107.948 5.66699 107.569C5.66699 107.036 5.50521 106.615 5.18164 106.305C4.85807 105.99 4.40918 105.833 3.83496 105.833C3.42025 105.833 3.02604 105.901 2.65234 106.038C2.2832 106.175 1.87077 106.423 1.41504 106.783L0.813477 106.011C1.73405 105.245 2.73665 104.862 3.82129 104.862C4.76009 104.862 5.49609 105.104 6.0293 105.587C6.5625 106.065 6.8291 106.71 6.8291 107.521C6.8291 108.155 6.65137 108.782 6.2959 109.401C5.94043 110.021 5.27507 110.805 4.2998 111.753L2.1123 113.893V113.947H7.25293V115ZM10.3359 111.165C10.5319 110.887 10.8304 110.522 11.2314 110.071L13.6514 107.508H14.998L11.9629 110.7L15.21 115H13.8359L11.1904 111.459L10.3359 112.197V115H9.21484V104.363H10.3359V110.003C10.3359 110.254 10.3177 110.641 10.2812 111.165H10.3359Z" fill="#5A7184"/>
<path d="M7.72461 62.7031H6.24121V65H5.1543V62.7031H0.293945V61.7119L5.03809 54.9512H6.24121V61.6709H7.72461V62.7031ZM5.1543 61.6709V58.3486C5.1543 57.6969 5.17708 56.9609 5.22266 56.1406H5.16797C4.94922 56.5781 4.74414 56.9404 4.55273 57.2275L1.42871 61.6709H5.1543ZM10.3359 61.165C10.5319 60.887 10.8304 60.5225 11.2314 60.0713L13.6514 57.5078H14.998L11.9629 60.7002L15.21 65H13.8359L11.1904 61.459L10.3359 62.1973V65H9.21484V54.3633H10.3359V60.0029C10.3359 60.2536 10.3177 60.641 10.2812 61.165H10.3359Z" fill="#5A7184"/>
<path d="M0.799805 10.7275C0.799805 8.76335 1.18034 7.2959 1.94141 6.3252C2.70703 5.34993 3.83724 4.8623 5.33203 4.8623C5.84701 4.8623 6.2526 4.9056 6.54883 4.99219V5.96973C6.19792 5.85579 5.79688 5.79883 5.3457 5.79883C4.27474 5.79883 3.45671 6.13379 2.8916 6.80371C2.3265 7.46908 2.0166 8.51725 1.96191 9.94824H2.04395C2.54525 9.16439 3.33822 8.77246 4.42285 8.77246C5.32064 8.77246 6.02702 9.04362 6.54199 9.58594C7.06152 10.1283 7.32129 10.8643 7.32129 11.7939C7.32129 12.833 7.03646 13.651 6.4668 14.248C5.90169 14.8405 5.13607 15.1367 4.16992 15.1367C3.13542 15.1367 2.3151 14.7493 1.70898 13.9746C1.10286 13.1953 0.799805 12.113 0.799805 10.7275ZM4.15625 14.1729C4.80339 14.1729 5.30469 13.9701 5.66016 13.5645C6.02018 13.1543 6.2002 12.5641 6.2002 11.7939C6.2002 11.1331 6.03385 10.6136 5.70117 10.2354C5.36849 9.8571 4.87174 9.66797 4.21094 9.66797C3.80078 9.66797 3.4248 9.75228 3.08301 9.9209C2.74121 10.0895 2.46777 10.3219 2.2627 10.6182C2.06217 10.9144 1.96191 11.222 1.96191 11.541C1.96191 12.0104 2.05306 12.4479 2.23535 12.8535C2.41764 13.2591 2.67513 13.5804 3.00781 13.8174C3.34505 14.0544 3.72786 14.1729 4.15625 14.1729ZM10.3359 11.165C10.5319 10.887 10.8304 10.5225 11.2314 10.0713L13.6514 7.50781H14.998L11.9629 10.7002L15.21 15H13.8359L11.1904 11.459L10.3359 12.1973V15H9.21484V4.36328H10.3359V10.0029C10.3359 10.2536 10.3177 10.641 10.2812 11.165H10.3359Z" fill="#5A7184"/>
</g>
<defs>
<clipPath id="clip0_1_512">
<rect width="16" height="220" fill="white"/>
</clipPath>
</defs>
</svg>
