<svg width="21" height="19" viewBox="0 0 21 19" fill="none" xmlns="http://www.w3.org/2000/svg">
<path d="M14.5078 3.20312C14.3672 3.0625 14.1562 3.0625 14.0156 3.20312L6.35156 10.8672L6 14.1367C5.92969 14.5586 6.31641 14.9453 6.73828 14.875L10.0078 14.5234L17.6719 6.85938C17.8125 6.71875 17.8125 6.50781 17.6719 6.36719L14.5078 3.20312ZM20.2031 2.39453L18.4805 0.671875C17.9531 0.144531 17.0742 0.144531 16.5469 0.671875L15.3164 1.90234C15.1758 2.04297 15.1758 2.25391 15.3164 2.39453L18.4805 5.55859C18.6211 5.69922 18.832 5.69922 18.9727 5.55859L20.2031 4.32812C20.7305 3.80078 20.7305 2.92188 20.2031 2.39453ZM13.875 12.4492V16H2.625V4.75H10.6758C10.8164 4.75 10.9219 4.71484 10.9922 4.64453L12.3984 3.23828C12.6445 2.95703 12.4688 2.5 12.082 2.5H2.0625C1.11328 2.5 0.375 3.27344 0.375 4.1875V16.5625C0.375 17.5117 1.11328 18.25 2.0625 18.25H14.4375C15.3516 18.25 16.125 17.5117 16.125 16.5625V11.043C16.125 10.6562 15.668 10.4805 15.3867 10.7266L13.9805 12.1328C13.9102 12.2031 13.875 12.3086 13.875 12.4492Z" fill="#5A7184"/>
</svg>
