<svg width="458" height="480" viewBox="0 0 458 480" fill="none" xmlns="http://www.w3.org/2000/svg">
<g clip-path="url(#clip0_1_137)">
<rect width="458" height="480" rx="8" fill="white"/>
<g clip-path="url(#clip1_1_137)">
<rect opacity="0.1" x="89" y="253" width="87" height="32" rx="4" fill="#E95432"/>
<path d="M116.52 274H118.216V262.848H116.52V274ZM121.15 274H122.782V270.704C122.782 269.056 122.91 267.392 124.494 267.392C125.79 267.392 125.982 268.64 125.982 269.504V274H127.614V270.704C127.614 269.056 127.726 267.392 129.31 267.392C130.67 267.392 130.814 268.704 130.814 269.552V274H132.446V269.072C132.446 267.392 131.63 265.968 129.742 265.968C128.686 265.968 127.774 266.4 127.198 267.648C126.766 266.368 125.822 265.968 124.894 265.968C124.03 265.968 123.198 266.304 122.718 267.264V266.112H121.15V274ZM137.826 265.968C136.37 265.968 135.25 266.56 134.386 267.632L135.57 268.624C136.162 267.824 136.914 267.392 137.794 267.392C138.85 267.392 139.49 267.984 139.49 269.04V269.312H137.458C136.594 269.312 135.858 269.424 135.282 269.68C134.578 270.032 134.146 270.624 134.146 271.632C134.146 273.264 135.49 274.144 136.946 274.144C137.922 274.144 138.946 273.728 139.49 272.8L139.618 274H141.122V269.04C141.122 266.976 139.73 265.968 137.826 265.968ZM137.202 272.752C136.274 272.752 135.762 272.32 135.762 271.648C135.762 271.264 135.922 271.008 136.178 270.848C136.53 270.592 137.09 270.528 137.666 270.528H139.49V270.784C139.33 271.856 138.53 272.752 137.202 272.752ZM144.48 271.904C144.48 271.664 144.592 271.488 144.832 271.36C145.296 271.568 145.824 271.696 146.4 271.696C148.112 271.696 149.52 270.592 149.52 268.88C149.52 268.352 149.392 267.872 149.152 267.472L150.256 266.544L149.408 265.52L148.256 266.512C147.728 266.16 147.072 265.968 146.352 265.968C144.608 265.968 143.2 267.12 143.2 268.8C143.2 269.488 143.44 270.112 143.856 270.592C143.344 270.992 143.072 271.472 143.072 272.16C143.072 272.96 143.456 273.44 144.016 273.744L142.752 274.592C142.736 274.672 142.72 274.768 142.72 274.944C142.72 276.56 144.064 277.408 146.352 277.408C148.448 277.408 149.904 276.72 149.904 275.12C149.904 272.096 144.48 273.568 144.48 271.904ZM146.384 267.328C147.312 267.328 147.888 267.92 147.888 268.848C147.888 269.712 147.36 270.368 146.368 270.368C145.376 270.368 144.832 269.696 144.832 268.848C144.832 267.936 145.44 267.328 146.384 267.328ZM146.432 276.192C145.36 276.192 144.336 275.888 144.336 275.088C144.336 275.04 144.336 274.992 144.352 274.928L145.168 274.128C146.624 274.432 148.272 274.368 148.272 275.264C148.272 275.92 147.408 276.192 146.432 276.192ZM155.011 274.144C156.323 274.144 157.299 273.712 158.179 272.752L157.043 271.76C156.451 272.432 155.811 272.672 155.027 272.672C153.667 272.672 152.915 271.856 152.851 270.576H158.387C158.419 270.336 158.435 270.08 158.435 269.856C158.435 267.792 157.315 265.968 154.883 265.968C152.371 265.968 151.219 267.968 151.219 270.096C151.219 272.256 152.403 274.144 155.011 274.144ZM152.867 269.408C152.851 268.352 153.539 267.328 154.867 267.328C156.051 267.328 156.755 268.064 156.867 269.072C156.883 269.184 156.883 269.312 156.867 269.408H152.867Z" fill="#E95432"/>
<path fill-rule="evenodd" clip-rule="evenodd" d="M103 273C105.209 273 107 271.209 107 269C107 266.791 105.209 265 103 265C100.791 265 99 266.791 99 269C99 271.209 100.791 273 103 273Z" fill="#E95432"/>
</g>
<g clip-path="url(#clip2_1_137)">
<rect opacity="0.1" x="192" y="253" width="81" height="32" rx="4" fill="#FAAD13"/>
<path d="M226.512 262.848L223.312 271.264L220.08 262.848H218.208L222.656 274H223.952L228.384 262.848H226.512ZM229.962 264.576H231.674V262.848H229.962V264.576ZM230.01 274H231.626V266.112H230.01V274ZM237.009 274.144C238.001 274.144 238.945 273.728 239.473 272.896V274H241.105V262.848H239.473V267.232C238.993 266.464 238.033 265.968 237.009 265.968C235.057 265.968 233.633 267.52 233.633 270.048C233.633 272.4 234.881 274.144 237.009 274.144ZM237.393 272.64C236.001 272.64 235.265 271.632 235.265 270.064C235.265 268.464 236.017 267.44 237.409 267.44C238.881 267.44 239.617 268.592 239.617 270.064C239.617 271.52 238.881 272.64 237.393 272.64ZM246.874 274.144C248.186 274.144 249.162 273.712 250.042 272.752L248.906 271.76C248.314 272.432 247.674 272.672 246.89 272.672C245.53 272.672 244.778 271.856 244.714 270.576H250.25C250.282 270.336 250.298 270.08 250.298 269.856C250.298 267.792 249.178 265.968 246.746 265.968C244.234 265.968 243.082 267.968 243.082 270.096C243.082 272.256 244.266 274.144 246.874 274.144ZM244.73 269.408C244.714 268.352 245.402 267.328 246.73 267.328C247.914 267.328 248.618 268.064 248.73 269.072C248.746 269.184 248.746 269.312 248.73 269.408H244.73ZM255.434 274.144C257.802 274.144 259.338 272.304 259.338 270.048C259.338 267.776 257.802 265.968 255.434 265.968C253.05 265.968 251.546 267.776 251.546 270.048C251.546 272.304 253.05 274.144 255.434 274.144ZM255.434 272.72C253.898 272.72 253.178 271.504 253.178 270.048C253.178 268.576 253.898 267.392 255.434 267.392C256.986 267.392 257.706 268.576 257.706 270.048C257.706 271.504 256.986 272.72 255.434 272.72Z" fill="#FAAD13"/>
<path fill-rule="evenodd" clip-rule="evenodd" d="M206 273C208.209 273 210 271.209 210 269C210 266.791 208.209 265 206 265C203.791 265 202 266.791 202 269C202 271.209 203.791 273 206 273Z" fill="#FAAD13"/>
</g>
<g clip-path="url(#clip3_1_137)">
<rect opacity="0.1" x="289" y="253" width="81" height="32" rx="4" fill="#36B37E"/>
<path d="M319.608 274.128C321.704 274.128 323.384 272.848 323.384 270.816C323.384 268.768 321.704 268.096 320.2 267.504C318.984 267.04 317.88 266.64 317.88 265.616C317.88 264.784 318.584 264.208 319.496 264.208C320.328 264.208 321.032 264.64 321.464 265.472L322.872 264.592C322.136 263.28 320.92 262.704 319.56 262.704C317.72 262.704 316.184 263.808 316.184 265.696C316.184 267.664 317.832 268.304 319.304 268.88C320.552 269.36 321.688 269.808 321.688 270.96C321.688 271.888 320.936 272.608 319.64 272.608C318.344 272.608 317.32 271.936 317.144 270.496L315.464 270.912C315.816 273.024 317.656 274.128 319.608 274.128ZM329.257 267.408V266.112H327.305V262.928L325.673 264.144V266.112H324.393V267.408H325.673V271.92C325.673 273.488 326.665 274.144 327.897 274.144C328.345 274.144 328.793 274.064 329.257 273.92V272.608C328.905 272.72 328.569 272.784 328.297 272.784C327.673 272.784 327.305 272.48 327.305 271.792V267.408H329.257ZM334.331 274.144C336.699 274.144 338.235 272.304 338.235 270.048C338.235 267.776 336.699 265.968 334.331 265.968C331.947 265.968 330.443 267.776 330.443 270.048C330.443 272.304 331.947 274.144 334.331 274.144ZM334.331 272.72C332.795 272.72 332.075 271.504 332.075 270.048C332.075 268.576 332.795 267.392 334.331 267.392C335.883 267.392 336.603 268.576 336.603 270.048C336.603 271.504 335.883 272.72 334.331 272.72ZM340.16 274H341.776V269.904C341.776 268.288 342.512 267.552 343.696 267.552C344.064 267.552 344.368 267.648 344.64 267.808L345.44 266.368C344.96 266.08 344.512 265.968 344.016 265.968C343.104 265.968 342.144 266.496 341.792 267.552V266.112H340.16V274ZM347.765 277.264H349.525L353.941 266.112H352.149L350.005 271.952L347.749 266.112H345.957L349.125 273.824L347.765 277.264Z" fill="#36B37E"/>
<path fill-rule="evenodd" clip-rule="evenodd" d="M303 273C305.209 273 307 271.209 307 269C307 266.791 305.209 265 303 265C300.791 265 299 266.791 299 269C299 271.209 300.791 273 303 273Z" fill="#36B37E"/>
</g>
<path d="M71.9531 396H70.625V384.578H76.9922V385.758H71.9531V389.938H76.6875V391.117H71.9531V396ZM86.0859 391.711C86.0859 393.107 85.7344 394.198 85.0312 394.984C84.3281 395.766 83.3568 396.156 82.1172 396.156C81.3516 396.156 80.6719 395.977 80.0781 395.617C79.4844 395.258 79.026 394.742 78.7031 394.07C78.3802 393.398 78.2188 392.612 78.2188 391.711C78.2188 390.315 78.5677 389.229 79.2656 388.453C79.9635 387.672 80.9323 387.281 82.1719 387.281C83.3698 387.281 84.3203 387.68 85.0234 388.477C85.7318 389.273 86.0859 390.352 86.0859 391.711ZM79.5625 391.711C79.5625 392.805 79.7812 393.638 80.2188 394.211C80.6562 394.784 81.2995 395.07 82.1484 395.07C82.9974 395.07 83.6406 394.786 84.0781 394.219C84.5208 393.646 84.7422 392.81 84.7422 391.711C84.7422 390.622 84.5208 389.797 84.0781 389.234C83.6406 388.667 82.9922 388.383 82.1328 388.383C81.2839 388.383 80.6432 388.661 80.2109 389.219C79.7786 389.776 79.5625 390.607 79.5625 391.711ZM89.6641 396H88.3672V383.844H89.6641V396ZM93.7109 396H92.4141V383.844H93.7109V396ZM103.852 391.711C103.852 393.107 103.5 394.198 102.797 394.984C102.094 395.766 101.122 396.156 99.8828 396.156C99.1172 396.156 98.4375 395.977 97.8438 395.617C97.25 395.258 96.7917 394.742 96.4688 394.07C96.1458 393.398 95.9844 392.612 95.9844 391.711C95.9844 390.315 96.3333 389.229 97.0312 388.453C97.7292 387.672 98.6979 387.281 99.9375 387.281C101.135 387.281 102.086 387.68 102.789 388.477C103.497 389.273 103.852 390.352 103.852 391.711ZM97.3281 391.711C97.3281 392.805 97.5469 393.638 97.9844 394.211C98.4219 394.784 99.0651 395.07 99.9141 395.07C100.763 395.07 101.406 394.786 101.844 394.219C102.286 393.646 102.508 392.81 102.508 391.711C102.508 390.622 102.286 389.797 101.844 389.234C101.406 388.667 100.758 388.383 99.8984 388.383C99.0495 388.383 98.4089 388.661 97.9766 389.219C97.5443 389.776 97.3281 390.607 97.3281 391.711ZM113.125 396L111.555 390.977C111.456 390.669 111.271 389.971 111 388.883H110.938C110.729 389.794 110.547 390.497 110.391 390.992L108.773 396H107.273L104.938 387.438H106.297C106.849 389.589 107.268 391.227 107.555 392.352C107.846 393.477 108.013 394.234 108.055 394.625H108.117C108.174 394.328 108.266 393.945 108.391 393.477C108.521 393.003 108.633 392.628 108.727 392.352L110.297 387.438H111.703L113.234 392.352C113.526 393.247 113.724 394 113.828 394.609H113.891C113.911 394.422 113.966 394.133 114.055 393.742C114.148 393.352 114.693 391.25 115.688 387.438H117.031L114.664 396H113.125ZM128.008 396L127.75 394.781H127.688C127.26 395.318 126.833 395.682 126.406 395.875C125.984 396.062 125.456 396.156 124.82 396.156C123.971 396.156 123.305 395.938 122.82 395.5C122.341 395.062 122.102 394.44 122.102 393.633C122.102 391.904 123.484 390.997 126.25 390.914L127.703 390.867V390.336C127.703 389.664 127.557 389.169 127.266 388.852C126.979 388.529 126.518 388.367 125.883 388.367C125.169 388.367 124.362 388.586 123.461 389.023L123.062 388.031C123.484 387.802 123.945 387.622 124.445 387.492C124.951 387.362 125.456 387.297 125.961 387.297C126.982 387.297 127.737 387.523 128.227 387.977C128.721 388.43 128.969 389.156 128.969 390.156V396H128.008ZM125.078 395.086C125.885 395.086 126.518 394.865 126.977 394.422C127.44 393.979 127.672 393.359 127.672 392.562V391.789L126.375 391.844C125.344 391.88 124.599 392.042 124.141 392.328C123.688 392.609 123.461 393.049 123.461 393.648C123.461 394.117 123.602 394.474 123.883 394.719C124.169 394.964 124.568 395.086 125.078 395.086ZM141.664 396V390.461C141.664 389.763 141.505 389.242 141.188 388.898C140.87 388.555 140.372 388.383 139.695 388.383C138.794 388.383 138.135 388.628 137.719 389.117C137.307 389.607 137.102 390.409 137.102 391.523V396H135.805V383.844H137.102V387.523C137.102 387.966 137.081 388.333 137.039 388.625H137.117C137.372 388.214 137.734 387.891 138.203 387.656C138.677 387.417 139.216 387.297 139.82 387.297C140.867 387.297 141.651 387.547 142.172 388.047C142.698 388.542 142.961 389.331 142.961 390.414V396H141.664ZM150.898 396L150.641 394.781H150.578C150.151 395.318 149.724 395.682 149.297 395.875C148.875 396.062 148.346 396.156 147.711 396.156C146.862 396.156 146.195 395.938 145.711 395.5C145.232 395.062 144.992 394.44 144.992 393.633C144.992 391.904 146.375 390.997 149.141 390.914L150.594 390.867V390.336C150.594 389.664 150.448 389.169 150.156 388.852C149.87 388.529 149.409 388.367 148.773 388.367C148.06 388.367 147.253 388.586 146.352 389.023L145.953 388.031C146.375 387.802 146.836 387.622 147.336 387.492C147.841 387.362 148.346 387.297 148.852 387.297C149.872 387.297 150.628 387.523 151.117 387.977C151.612 388.43 151.859 389.156 151.859 390.156V396H150.898ZM147.969 395.086C148.776 395.086 149.409 394.865 149.867 394.422C150.331 393.979 150.562 393.359 150.562 392.562V391.789L149.266 391.844C148.234 391.88 147.49 392.042 147.031 392.328C146.578 392.609 146.352 393.049 146.352 393.648C146.352 394.117 146.492 394.474 146.773 394.719C147.06 394.964 147.458 395.086 147.969 395.086ZM160.062 393.664C160.062 394.461 159.766 395.076 159.172 395.508C158.578 395.94 157.745 396.156 156.672 396.156C155.536 396.156 154.651 395.977 154.016 395.617V394.414C154.427 394.622 154.867 394.786 155.336 394.906C155.81 395.026 156.266 395.086 156.703 395.086C157.38 395.086 157.901 394.979 158.266 394.766C158.63 394.547 158.812 394.216 158.812 393.773C158.812 393.44 158.667 393.156 158.375 392.922C158.089 392.682 157.526 392.401 156.688 392.078C155.891 391.781 155.323 391.523 154.984 391.305C154.651 391.081 154.401 390.828 154.234 390.547C154.073 390.266 153.992 389.93 153.992 389.539C153.992 388.841 154.276 388.292 154.844 387.891C155.411 387.484 156.19 387.281 157.18 387.281C158.102 387.281 159.003 387.469 159.883 387.844L159.422 388.898C158.562 388.544 157.784 388.367 157.086 388.367C156.471 388.367 156.008 388.464 155.695 388.656C155.383 388.849 155.227 389.115 155.227 389.453C155.227 389.682 155.284 389.878 155.398 390.039C155.518 390.201 155.708 390.354 155.969 390.5C156.229 390.646 156.729 390.857 157.469 391.133C158.484 391.503 159.169 391.875 159.523 392.25C159.883 392.625 160.062 393.096 160.062 393.664ZM168.039 396V390.461C168.039 389.763 167.88 389.242 167.562 388.898C167.245 388.555 166.747 388.383 166.07 388.383C165.169 388.383 164.51 388.628 164.094 389.117C163.682 389.607 163.477 390.409 163.477 391.523V396H162.18V383.844H163.477V387.523C163.477 387.966 163.456 388.333 163.414 388.625H163.492C163.747 388.214 164.109 387.891 164.578 387.656C165.052 387.417 165.591 387.297 166.195 387.297C167.242 387.297 168.026 387.547 168.547 388.047C169.073 388.542 169.336 389.331 169.336 390.414V396H168.039ZM174.773 395.086C175.003 395.086 175.224 395.07 175.438 395.039C175.651 395.003 175.82 394.966 175.945 394.93V395.922C175.805 395.99 175.596 396.044 175.32 396.086C175.049 396.133 174.805 396.156 174.586 396.156C172.93 396.156 172.102 395.284 172.102 393.539V388.445H170.875V387.82L172.102 387.281L172.648 385.453H173.398V387.438H175.883V388.445H173.398V393.484C173.398 394 173.521 394.396 173.766 394.672C174.01 394.948 174.346 395.086 174.773 395.086ZM182.93 396L182.672 394.781H182.609C182.182 395.318 181.755 395.682 181.328 395.875C180.906 396.062 180.378 396.156 179.742 396.156C178.893 396.156 178.227 395.938 177.742 395.5C177.263 395.062 177.023 394.44 177.023 393.633C177.023 391.904 178.406 390.997 181.172 390.914L182.625 390.867V390.336C182.625 389.664 182.479 389.169 182.188 388.852C181.901 388.529 181.44 388.367 180.805 388.367C180.091 388.367 179.284 388.586 178.383 389.023L177.984 388.031C178.406 387.802 178.867 387.622 179.367 387.492C179.872 387.362 180.378 387.297 180.883 387.297C181.904 387.297 182.659 387.523 183.148 387.977C183.643 388.43 183.891 389.156 183.891 390.156V396H182.93ZM180 395.086C180.807 395.086 181.44 394.865 181.898 394.422C182.362 393.979 182.594 393.359 182.594 392.562V391.789L181.297 391.844C180.266 391.88 179.521 392.042 179.062 392.328C178.609 392.609 178.383 393.049 178.383 393.648C178.383 394.117 178.523 394.474 178.805 394.719C179.091 394.964 179.49 395.086 180 395.086ZM193.578 387.438V388.258L191.992 388.445C192.138 388.628 192.268 388.867 192.383 389.164C192.497 389.456 192.555 389.786 192.555 390.156C192.555 390.995 192.268 391.664 191.695 392.164C191.122 392.664 190.336 392.914 189.336 392.914C189.081 392.914 188.841 392.893 188.617 392.852C188.065 393.143 187.789 393.51 187.789 393.953C187.789 394.188 187.885 394.362 188.078 394.477C188.271 394.586 188.602 394.641 189.07 394.641H190.586C191.513 394.641 192.224 394.836 192.719 395.227C193.219 395.617 193.469 396.185 193.469 396.93C193.469 397.878 193.089 398.599 192.328 399.094C191.568 399.594 190.458 399.844 189 399.844C187.88 399.844 187.016 399.635 186.406 399.219C185.802 398.802 185.5 398.214 185.5 397.453C185.5 396.932 185.667 396.482 186 396.102C186.333 395.721 186.802 395.464 187.406 395.328C187.188 395.229 187.003 395.076 186.852 394.867C186.706 394.659 186.633 394.417 186.633 394.141C186.633 393.828 186.716 393.555 186.883 393.32C187.049 393.086 187.312 392.859 187.672 392.641C187.229 392.458 186.867 392.148 186.586 391.711C186.31 391.273 186.172 390.773 186.172 390.211C186.172 389.273 186.453 388.552 187.016 388.047C187.578 387.536 188.375 387.281 189.406 387.281C189.854 387.281 190.258 387.333 190.617 387.438H193.578ZM186.75 397.438C186.75 397.901 186.945 398.253 187.336 398.492C187.727 398.732 188.286 398.852 189.016 398.852C190.104 398.852 190.909 398.688 191.43 398.359C191.956 398.036 192.219 397.596 192.219 397.039C192.219 396.576 192.076 396.253 191.789 396.07C191.503 395.893 190.964 395.805 190.172 395.805H188.617C188.029 395.805 187.57 395.945 187.242 396.227C186.914 396.508 186.75 396.911 186.75 397.438ZM187.453 390.18C187.453 390.779 187.622 391.232 187.961 391.539C188.299 391.846 188.771 392 189.375 392C190.641 392 191.273 391.385 191.273 390.156C191.273 388.87 190.633 388.227 189.352 388.227C188.742 388.227 188.273 388.391 187.945 388.719C187.617 389.047 187.453 389.534 187.453 390.18ZM206.5 387.438V388.258L204.914 388.445C205.06 388.628 205.19 388.867 205.305 389.164C205.419 389.456 205.477 389.786 205.477 390.156C205.477 390.995 205.19 391.664 204.617 392.164C204.044 392.664 203.258 392.914 202.258 392.914C202.003 392.914 201.763 392.893 201.539 392.852C200.987 393.143 200.711 393.51 200.711 393.953C200.711 394.188 200.807 394.362 201 394.477C201.193 394.586 201.523 394.641 201.992 394.641H203.508C204.435 394.641 205.146 394.836 205.641 395.227C206.141 395.617 206.391 396.185 206.391 396.93C206.391 397.878 206.01 398.599 205.25 399.094C204.49 399.594 203.38 399.844 201.922 399.844C200.802 399.844 199.938 399.635 199.328 399.219C198.724 398.802 198.422 398.214 198.422 397.453C198.422 396.932 198.589 396.482 198.922 396.102C199.255 395.721 199.724 395.464 200.328 395.328C200.109 395.229 199.924 395.076 199.773 394.867C199.628 394.659 199.555 394.417 199.555 394.141C199.555 393.828 199.638 393.555 199.805 393.32C199.971 393.086 200.234 392.859 200.594 392.641C200.151 392.458 199.789 392.148 199.508 391.711C199.232 391.273 199.094 390.773 199.094 390.211C199.094 389.273 199.375 388.552 199.938 388.047C200.5 387.536 201.297 387.281 202.328 387.281C202.776 387.281 203.18 387.333 203.539 387.438H206.5ZM199.672 397.438C199.672 397.901 199.867 398.253 200.258 398.492C200.648 398.732 201.208 398.852 201.938 398.852C203.026 398.852 203.831 398.688 204.352 398.359C204.878 398.036 205.141 397.596 205.141 397.039C205.141 396.576 204.997 396.253 204.711 396.07C204.424 395.893 203.885 395.805 203.094 395.805H201.539C200.951 395.805 200.492 395.945 200.164 396.227C199.836 396.508 199.672 396.911 199.672 397.438ZM200.375 390.18C200.375 390.779 200.544 391.232 200.883 391.539C201.221 391.846 201.693 392 202.297 392C203.562 392 204.195 391.385 204.195 390.156C204.195 388.87 203.555 388.227 202.273 388.227C201.664 388.227 201.195 388.391 200.867 388.719C200.539 389.047 200.375 389.534 200.375 390.18ZM212.164 387.281C212.544 387.281 212.885 387.312 213.188 387.375L213.008 388.578C212.654 388.5 212.341 388.461 212.07 388.461C211.378 388.461 210.784 388.742 210.289 389.305C209.799 389.867 209.555 390.568 209.555 391.406V396H208.258V387.438H209.328L209.477 389.023H209.539C209.857 388.466 210.24 388.036 210.688 387.734C211.135 387.432 211.628 387.281 212.164 387.281ZM222.18 391.711C222.18 393.107 221.828 394.198 221.125 394.984C220.422 395.766 219.451 396.156 218.211 396.156C217.445 396.156 216.766 395.977 216.172 395.617C215.578 395.258 215.12 394.742 214.797 394.07C214.474 393.398 214.312 392.612 214.312 391.711C214.312 390.315 214.661 389.229 215.359 388.453C216.057 387.672 217.026 387.281 218.266 387.281C219.464 387.281 220.414 387.68 221.117 388.477C221.826 389.273 222.18 390.352 222.18 391.711ZM215.656 391.711C215.656 392.805 215.875 393.638 216.312 394.211C216.75 394.784 217.393 395.07 218.242 395.07C219.091 395.07 219.734 394.786 220.172 394.219C220.615 393.646 220.836 392.81 220.836 391.711C220.836 390.622 220.615 389.797 220.172 389.234C219.734 388.667 219.086 388.383 218.227 388.383C217.378 388.383 216.737 388.661 216.305 389.219C215.872 389.776 215.656 390.607 215.656 391.711ZM231.453 396L229.883 390.977C229.784 390.669 229.599 389.971 229.328 388.883H229.266C229.057 389.794 228.875 390.497 228.719 390.992L227.102 396H225.602L223.266 387.438H224.625C225.177 389.589 225.596 391.227 225.883 392.352C226.174 393.477 226.341 394.234 226.383 394.625H226.445C226.503 394.328 226.594 393.945 226.719 393.477C226.849 393.003 226.961 392.628 227.055 392.352L228.625 387.438H230.031L231.562 392.352C231.854 393.247 232.052 394 232.156 394.609H232.219C232.24 394.422 232.294 394.133 232.383 393.742C232.477 393.352 233.021 391.25 234.016 387.438H235.359L232.992 396H231.453ZM239.68 395.086C239.909 395.086 240.13 395.07 240.344 395.039C240.557 395.003 240.727 394.966 240.852 394.93V395.922C240.711 395.99 240.503 396.044 240.227 396.086C239.956 396.133 239.711 396.156 239.492 396.156C237.836 396.156 237.008 395.284 237.008 393.539V388.445H235.781V387.82L237.008 387.281L237.555 385.453H238.305V387.438H240.789V388.445H238.305V393.484C238.305 394 238.427 394.396 238.672 394.672C238.917 394.948 239.253 395.086 239.68 395.086ZM248.43 396V390.461C248.43 389.763 248.271 389.242 247.953 388.898C247.635 388.555 247.138 388.383 246.461 388.383C245.56 388.383 244.901 388.628 244.484 389.117C244.073 389.607 243.867 390.409 243.867 391.523V396H242.57V383.844H243.867V387.523C243.867 387.966 243.846 388.333 243.805 388.625H243.883C244.138 388.214 244.5 387.891 244.969 387.656C245.443 387.417 245.982 387.297 246.586 387.297C247.633 387.297 248.417 387.547 248.938 388.047C249.464 388.542 249.727 389.331 249.727 390.414V396H248.43ZM259.32 395.086C259.549 395.086 259.771 395.07 259.984 395.039C260.198 395.003 260.367 394.966 260.492 394.93V395.922C260.352 395.99 260.143 396.044 259.867 396.086C259.596 396.133 259.352 396.156 259.133 396.156C257.477 396.156 256.648 395.284 256.648 393.539V388.445H255.422V387.82L256.648 387.281L257.195 385.453H257.945V387.438H260.43V388.445H257.945V393.484C257.945 394 258.068 394.396 258.312 394.672C258.557 394.948 258.893 395.086 259.32 395.086ZM269.602 391.711C269.602 393.107 269.25 394.198 268.547 394.984C267.844 395.766 266.872 396.156 265.633 396.156C264.867 396.156 264.188 395.977 263.594 395.617C263 395.258 262.542 394.742 262.219 394.07C261.896 393.398 261.734 392.612 261.734 391.711C261.734 390.315 262.083 389.229 262.781 388.453C263.479 387.672 264.448 387.281 265.688 387.281C266.885 387.281 267.836 387.68 268.539 388.477C269.247 389.273 269.602 390.352 269.602 391.711ZM263.078 391.711C263.078 392.805 263.297 393.638 263.734 394.211C264.172 394.784 264.815 395.07 265.664 395.07C266.513 395.07 267.156 394.786 267.594 394.219C268.036 393.646 268.258 392.81 268.258 391.711C268.258 390.622 268.036 389.797 267.594 389.234C267.156 388.667 266.508 388.383 265.648 388.383C264.799 388.383 264.159 388.661 263.727 389.219C263.294 389.776 263.078 390.607 263.078 391.711ZM274.648 395.086C274.878 395.086 275.099 395.07 275.312 395.039C275.526 395.003 275.695 394.966 275.82 394.93V395.922C275.68 395.99 275.471 396.044 275.195 396.086C274.924 396.133 274.68 396.156 274.461 396.156C272.805 396.156 271.977 395.284 271.977 393.539V388.445H270.75V387.82L271.977 387.281L272.523 385.453H273.273V387.438H275.758V388.445H273.273V393.484C273.273 394 273.396 394.396 273.641 394.672C273.885 394.948 274.221 395.086 274.648 395.086ZM282.805 396L282.547 394.781H282.484C282.057 395.318 281.63 395.682 281.203 395.875C280.781 396.062 280.253 396.156 279.617 396.156C278.768 396.156 278.102 395.938 277.617 395.5C277.138 395.062 276.898 394.44 276.898 393.633C276.898 391.904 278.281 390.997 281.047 390.914L282.5 390.867V390.336C282.5 389.664 282.354 389.169 282.062 388.852C281.776 388.529 281.315 388.367 280.68 388.367C279.966 388.367 279.159 388.586 278.258 389.023L277.859 388.031C278.281 387.802 278.742 387.622 279.242 387.492C279.747 387.362 280.253 387.297 280.758 387.297C281.779 387.297 282.534 387.523 283.023 387.977C283.518 388.43 283.766 389.156 283.766 390.156V396H282.805ZM279.875 395.086C280.682 395.086 281.315 394.865 281.773 394.422C282.237 393.979 282.469 393.359 282.469 392.562V391.789L281.172 391.844C280.141 391.88 279.396 392.042 278.938 392.328C278.484 392.609 278.258 393.049 278.258 393.648C278.258 394.117 278.398 394.474 278.68 394.719C278.966 394.964 279.365 395.086 279.875 395.086ZM287.742 396H286.445V383.844H287.742V396ZM298.633 396.156C298.076 396.156 297.565 396.055 297.102 395.852C296.643 395.643 296.258 395.326 295.945 394.898H295.852C295.914 395.398 295.945 395.872 295.945 396.32V399.844H294.648V387.438H295.703L295.883 388.609H295.945C296.279 388.141 296.667 387.802 297.109 387.594C297.552 387.385 298.06 387.281 298.633 387.281C299.768 387.281 300.643 387.669 301.258 388.445C301.878 389.221 302.188 390.31 302.188 391.711C302.188 393.117 301.872 394.211 301.242 394.992C300.617 395.768 299.747 396.156 298.633 396.156ZM298.445 388.383C297.57 388.383 296.938 388.625 296.547 389.109C296.156 389.594 295.956 390.365 295.945 391.422V391.711C295.945 392.914 296.146 393.776 296.547 394.297C296.948 394.812 297.591 395.07 298.477 395.07C299.216 395.07 299.794 394.771 300.211 394.172C300.633 393.573 300.844 392.747 300.844 391.695C300.844 390.628 300.633 389.81 300.211 389.242C299.794 388.669 299.206 388.383 298.445 388.383ZM311.852 391.711C311.852 393.107 311.5 394.198 310.797 394.984C310.094 395.766 309.122 396.156 307.883 396.156C307.117 396.156 306.438 395.977 305.844 395.617C305.25 395.258 304.792 394.742 304.469 394.07C304.146 393.398 303.984 392.612 303.984 391.711C303.984 390.315 304.333 389.229 305.031 388.453C305.729 387.672 306.698 387.281 307.938 387.281C309.135 387.281 310.086 387.68 310.789 388.477C311.497 389.273 311.852 390.352 311.852 391.711ZM305.328 391.711C305.328 392.805 305.547 393.638 305.984 394.211C306.422 394.784 307.065 395.07 307.914 395.07C308.763 395.07 309.406 394.786 309.844 394.219C310.286 393.646 310.508 392.81 310.508 391.711C310.508 390.622 310.286 389.797 309.844 389.234C309.406 388.667 308.758 388.383 307.898 388.383C307.049 388.383 306.409 388.661 305.977 389.219C305.544 389.776 305.328 390.607 305.328 391.711ZM319.656 393.664C319.656 394.461 319.359 395.076 318.766 395.508C318.172 395.94 317.339 396.156 316.266 396.156C315.13 396.156 314.245 395.977 313.609 395.617V394.414C314.021 394.622 314.461 394.786 314.93 394.906C315.404 395.026 315.859 395.086 316.297 395.086C316.974 395.086 317.495 394.979 317.859 394.766C318.224 394.547 318.406 394.216 318.406 393.773C318.406 393.44 318.26 393.156 317.969 392.922C317.682 392.682 317.12 392.401 316.281 392.078C315.484 391.781 314.917 391.523 314.578 391.305C314.245 391.081 313.995 390.828 313.828 390.547C313.667 390.266 313.586 389.93 313.586 389.539C313.586 388.841 313.87 388.292 314.438 387.891C315.005 387.484 315.784 387.281 316.773 387.281C317.695 387.281 318.596 387.469 319.477 387.844L319.016 388.898C318.156 388.544 317.378 388.367 316.68 388.367C316.065 388.367 315.602 388.464 315.289 388.656C314.977 388.849 314.82 389.115 314.82 389.453C314.82 389.682 314.878 389.878 314.992 390.039C315.112 390.201 315.302 390.354 315.562 390.5C315.823 390.646 316.323 390.857 317.062 391.133C318.078 391.503 318.763 391.875 319.117 392.25C319.477 392.625 319.656 393.096 319.656 393.664ZM324.539 395.086C324.768 395.086 324.99 395.07 325.203 395.039C325.417 395.003 325.586 394.966 325.711 394.93V395.922C325.57 395.99 325.362 396.044 325.086 396.086C324.815 396.133 324.57 396.156 324.352 396.156C322.695 396.156 321.867 395.284 321.867 393.539V388.445H320.641V387.82L321.867 387.281L322.414 385.453H323.164V387.438H325.648V388.445H323.164V393.484C323.164 394 323.286 394.396 323.531 394.672C323.776 394.948 324.112 395.086 324.539 395.086ZM332.953 393.664C332.953 394.461 332.656 395.076 332.062 395.508C331.469 395.94 330.635 396.156 329.562 396.156C328.427 396.156 327.542 395.977 326.906 395.617V394.414C327.318 394.622 327.758 394.786 328.227 394.906C328.701 395.026 329.156 395.086 329.594 395.086C330.271 395.086 330.792 394.979 331.156 394.766C331.521 394.547 331.703 394.216 331.703 393.773C331.703 393.44 331.557 393.156 331.266 392.922C330.979 392.682 330.417 392.401 329.578 392.078C328.781 391.781 328.214 391.523 327.875 391.305C327.542 391.081 327.292 390.828 327.125 390.547C326.964 390.266 326.883 389.93 326.883 389.539C326.883 388.841 327.167 388.292 327.734 387.891C328.302 387.484 329.081 387.281 330.07 387.281C330.992 387.281 331.893 387.469 332.773 387.844L332.312 388.898C331.453 388.544 330.674 388.367 329.977 388.367C329.362 388.367 328.898 388.464 328.586 388.656C328.273 388.849 328.117 389.115 328.117 389.453C328.117 389.682 328.174 389.878 328.289 390.039C328.409 390.201 328.599 390.354 328.859 390.5C329.12 390.646 329.62 390.857 330.359 391.133C331.375 391.503 332.06 391.875 332.414 392.25C332.773 392.625 332.953 393.096 332.953 393.664ZM336.43 394.141L336.547 394.32C336.411 394.841 336.216 395.445 335.961 396.133C335.706 396.826 335.44 397.469 335.164 398.062H334.188C334.328 397.521 334.482 396.852 334.648 396.055C334.82 395.258 334.94 394.62 335.008 394.141H336.43ZM345.023 396L341.773 387.438H343.164L345.008 392.516C345.424 393.703 345.669 394.474 345.742 394.828H345.805C345.862 394.552 346.042 393.982 346.344 393.117C346.651 392.247 347.336 390.354 348.398 387.438H349.789L346.539 396H345.023ZM352.461 396H351.164V387.438H352.461V396ZM351.055 385.117C351.055 384.82 351.128 384.604 351.273 384.469C351.419 384.328 351.602 384.258 351.82 384.258C352.029 384.258 352.208 384.328 352.359 384.469C352.51 384.609 352.586 384.826 352.586 385.117C352.586 385.409 352.51 385.628 352.359 385.773C352.208 385.914 352.029 385.984 351.82 385.984C351.602 385.984 351.419 385.914 351.273 385.773C351.128 385.628 351.055 385.409 351.055 385.117ZM361.039 394.852H360.969C360.37 395.721 359.474 396.156 358.281 396.156C357.161 396.156 356.289 395.773 355.664 395.008C355.044 394.242 354.734 393.154 354.734 391.742C354.734 390.331 355.047 389.234 355.672 388.453C356.297 387.672 357.167 387.281 358.281 387.281C359.443 387.281 360.333 387.703 360.953 388.547H361.055L361 387.93L360.969 387.328V383.844H362.266V396H361.211L361.039 394.852ZM358.445 395.07C359.331 395.07 359.971 394.831 360.367 394.352C360.768 393.867 360.969 393.089 360.969 392.016V391.742C360.969 390.529 360.766 389.664 360.359 389.148C359.958 388.628 359.315 388.367 358.43 388.367C357.669 388.367 357.086 388.664 356.68 389.258C356.279 389.846 356.078 390.68 356.078 391.758C356.078 392.852 356.279 393.677 356.68 394.234C357.081 394.792 357.669 395.07 358.445 395.07ZM368.641 396.156C367.375 396.156 366.375 395.771 365.641 395C364.911 394.229 364.547 393.159 364.547 391.789C364.547 390.409 364.885 389.312 365.562 388.5C366.245 387.688 367.159 387.281 368.305 387.281C369.378 387.281 370.227 387.635 370.852 388.344C371.477 389.047 371.789 389.977 371.789 391.133V391.953H365.891C365.917 392.958 366.169 393.721 366.648 394.242C367.133 394.763 367.812 395.023 368.688 395.023C369.609 395.023 370.521 394.831 371.422 394.445V395.602C370.964 395.799 370.529 395.94 370.117 396.023C369.711 396.112 369.219 396.156 368.641 396.156ZM368.289 388.367C367.602 388.367 367.052 388.591 366.641 389.039C366.234 389.487 365.995 390.107 365.922 390.898H370.398C370.398 390.081 370.216 389.456 369.852 389.023C369.487 388.586 368.966 388.367 368.289 388.367ZM381.398 391.711C381.398 393.107 381.047 394.198 380.344 394.984C379.641 395.766 378.669 396.156 377.43 396.156C376.664 396.156 375.984 395.977 375.391 395.617C374.797 395.258 374.339 394.742 374.016 394.07C373.693 393.398 373.531 392.612 373.531 391.711C373.531 390.315 373.88 389.229 374.578 388.453C375.276 387.672 376.245 387.281 377.484 387.281C378.682 387.281 379.633 387.68 380.336 388.477C381.044 389.273 381.398 390.352 381.398 391.711ZM374.875 391.711C374.875 392.805 375.094 393.638 375.531 394.211C375.969 394.784 376.612 395.07 377.461 395.07C378.31 395.07 378.953 394.786 379.391 394.219C379.833 393.646 380.055 392.81 380.055 391.711C380.055 390.622 379.833 389.797 379.391 389.234C378.953 388.667 378.305 388.383 377.445 388.383C376.596 388.383 375.956 388.661 375.523 389.219C375.091 389.776 374.875 390.607 374.875 391.711ZM389.203 393.664C389.203 394.461 388.906 395.076 388.312 395.508C387.719 395.94 386.885 396.156 385.812 396.156C384.677 396.156 383.792 395.977 383.156 395.617V394.414C383.568 394.622 384.008 394.786 384.477 394.906C384.951 395.026 385.406 395.086 385.844 395.086C386.521 395.086 387.042 394.979 387.406 394.766C387.771 394.547 387.953 394.216 387.953 393.773C387.953 393.44 387.807 393.156 387.516 392.922C387.229 392.682 386.667 392.401 385.828 392.078C385.031 391.781 384.464 391.523 384.125 391.305C383.792 391.081 383.542 390.828 383.375 390.547C383.214 390.266 383.133 389.93 383.133 389.539C383.133 388.841 383.417 388.292 383.984 387.891C384.552 387.484 385.331 387.281 386.32 387.281C387.242 387.281 388.143 387.469 389.023 387.844L388.562 388.898C387.703 388.544 386.924 388.367 386.227 388.367C385.612 388.367 385.148 388.464 384.836 388.656C384.523 388.849 384.367 389.115 384.367 389.453C384.367 389.682 384.424 389.878 384.539 390.039C384.659 390.201 384.849 390.354 385.109 390.5C385.37 390.646 385.87 390.857 386.609 391.133C387.625 391.503 388.31 391.875 388.664 392.25C389.023 392.625 389.203 393.096 389.203 393.664ZM193.172 424L192.914 422.781H192.852C192.424 423.318 191.997 423.682 191.57 423.875C191.148 424.062 190.62 424.156 189.984 424.156C189.135 424.156 188.469 423.938 187.984 423.5C187.505 423.062 187.266 422.44 187.266 421.633C187.266 419.904 188.648 418.997 191.414 418.914L192.867 418.867V418.336C192.867 417.664 192.721 417.169 192.43 416.852C192.143 416.529 191.682 416.367 191.047 416.367C190.333 416.367 189.526 416.586 188.625 417.023L188.227 416.031C188.648 415.802 189.109 415.622 189.609 415.492C190.115 415.362 190.62 415.297 191.125 415.297C192.146 415.297 192.901 415.523 193.391 415.977C193.885 416.43 194.133 417.156 194.133 418.156V424H193.172ZM190.242 423.086C191.049 423.086 191.682 422.865 192.141 422.422C192.604 421.979 192.836 421.359 192.836 420.562V419.789L191.539 419.844C190.508 419.88 189.763 420.042 189.305 420.328C188.852 420.609 188.625 421.049 188.625 421.648C188.625 422.117 188.766 422.474 189.047 422.719C189.333 422.964 189.732 423.086 190.242 423.086ZM202.672 424V418.461C202.672 417.763 202.513 417.242 202.195 416.898C201.878 416.555 201.38 416.383 200.703 416.383C199.807 416.383 199.151 416.625 198.734 417.109C198.318 417.594 198.109 418.393 198.109 419.508V424H196.812V415.438H197.867L198.078 416.609H198.141C198.406 416.188 198.779 415.862 199.258 415.633C199.737 415.398 200.271 415.281 200.859 415.281C201.891 415.281 202.667 415.531 203.188 416.031C203.708 416.526 203.969 417.32 203.969 418.414V424H202.672ZM212.469 422.852H212.398C211.799 423.721 210.904 424.156 209.711 424.156C208.591 424.156 207.719 423.773 207.094 423.008C206.474 422.242 206.164 421.154 206.164 419.742C206.164 418.331 206.477 417.234 207.102 416.453C207.727 415.672 208.596 415.281 209.711 415.281C210.872 415.281 211.763 415.703 212.383 416.547H212.484L212.43 415.93L212.398 415.328V411.844H213.695V424H212.641L212.469 422.852ZM209.875 423.07C210.76 423.07 211.401 422.831 211.797 422.352C212.198 421.867 212.398 421.089 212.398 420.016V419.742C212.398 418.529 212.195 417.664 211.789 417.148C211.388 416.628 210.745 416.367 209.859 416.367C209.099 416.367 208.516 416.664 208.109 417.258C207.708 417.846 207.508 418.68 207.508 419.758C207.508 420.852 207.708 421.677 208.109 422.234C208.51 422.792 209.099 423.07 209.875 423.07ZM221.906 424H220.609V415.438H221.906V424ZM220.5 413.117C220.5 412.82 220.573 412.604 220.719 412.469C220.865 412.328 221.047 412.258 221.266 412.258C221.474 412.258 221.654 412.328 221.805 412.469C221.956 412.609 222.031 412.826 222.031 413.117C222.031 413.409 221.956 413.628 221.805 413.773C221.654 413.914 221.474 413.984 221.266 413.984C221.047 413.984 220.865 413.914 220.719 413.773C220.573 413.628 220.5 413.409 220.5 413.117ZM235.57 424V418.43C235.57 417.747 235.424 417.237 235.133 416.898C234.841 416.555 234.388 416.383 233.773 416.383C232.966 416.383 232.37 416.615 231.984 417.078C231.599 417.542 231.406 418.255 231.406 419.219V424H230.109V418.43C230.109 417.747 229.964 417.237 229.672 416.898C229.38 416.555 228.924 416.383 228.305 416.383C227.492 416.383 226.896 416.628 226.516 417.117C226.141 417.602 225.953 418.398 225.953 419.508V424H224.656V415.438H225.711L225.922 416.609H225.984C226.229 416.193 226.573 415.867 227.016 415.633C227.464 415.398 227.964 415.281 228.516 415.281C229.854 415.281 230.729 415.766 231.141 416.734H231.203C231.458 416.286 231.828 415.932 232.312 415.672C232.797 415.411 233.349 415.281 233.969 415.281C234.938 415.281 235.661 415.531 236.141 416.031C236.625 416.526 236.867 417.32 236.867 418.414V424H235.57ZM244.812 424L244.555 422.781H244.492C244.065 423.318 243.638 423.682 243.211 423.875C242.789 424.062 242.26 424.156 241.625 424.156C240.776 424.156 240.109 423.938 239.625 423.5C239.146 423.062 238.906 422.44 238.906 421.633C238.906 419.904 240.289 418.997 243.055 418.914L244.508 418.867V418.336C244.508 417.664 244.362 417.169 244.07 416.852C243.784 416.529 243.323 416.367 242.688 416.367C241.974 416.367 241.167 416.586 240.266 417.023L239.867 416.031C240.289 415.802 240.75 415.622 241.25 415.492C241.755 415.362 242.26 415.297 242.766 415.297C243.786 415.297 244.542 415.523 245.031 415.977C245.526 416.43 245.773 417.156 245.773 418.156V424H244.812ZM241.883 423.086C242.69 423.086 243.323 422.865 243.781 422.422C244.245 421.979 244.477 421.359 244.477 420.562V419.789L243.18 419.844C242.148 419.88 241.404 420.042 240.945 420.328C240.492 420.609 240.266 421.049 240.266 421.648C240.266 422.117 240.406 422.474 240.688 422.719C240.974 422.964 241.372 423.086 241.883 423.086ZM255.461 415.438V416.258L253.875 416.445C254.021 416.628 254.151 416.867 254.266 417.164C254.38 417.456 254.438 417.786 254.438 418.156C254.438 418.995 254.151 419.664 253.578 420.164C253.005 420.664 252.219 420.914 251.219 420.914C250.964 420.914 250.724 420.893 250.5 420.852C249.948 421.143 249.672 421.51 249.672 421.953C249.672 422.188 249.768 422.362 249.961 422.477C250.154 422.586 250.484 422.641 250.953 422.641H252.469C253.396 422.641 254.107 422.836 254.602 423.227C255.102 423.617 255.352 424.185 255.352 424.93C255.352 425.878 254.971 426.599 254.211 427.094C253.451 427.594 252.341 427.844 250.883 427.844C249.763 427.844 248.898 427.635 248.289 427.219C247.685 426.802 247.383 426.214 247.383 425.453C247.383 424.932 247.549 424.482 247.883 424.102C248.216 423.721 248.685 423.464 249.289 423.328C249.07 423.229 248.885 423.076 248.734 422.867C248.589 422.659 248.516 422.417 248.516 422.141C248.516 421.828 248.599 421.555 248.766 421.32C248.932 421.086 249.195 420.859 249.555 420.641C249.112 420.458 248.75 420.148 248.469 419.711C248.193 419.273 248.055 418.773 248.055 418.211C248.055 417.273 248.336 416.552 248.898 416.047C249.461 415.536 250.258 415.281 251.289 415.281C251.737 415.281 252.141 415.333 252.5 415.438H255.461ZM248.633 425.438C248.633 425.901 248.828 426.253 249.219 426.492C249.609 426.732 250.169 426.852 250.898 426.852C251.987 426.852 252.792 426.688 253.312 426.359C253.839 426.036 254.102 425.596 254.102 425.039C254.102 424.576 253.958 424.253 253.672 424.07C253.385 423.893 252.846 423.805 252.055 423.805H250.5C249.911 423.805 249.453 423.945 249.125 424.227C248.797 424.508 248.633 424.911 248.633 425.438ZM249.336 418.18C249.336 418.779 249.505 419.232 249.844 419.539C250.182 419.846 250.654 420 251.258 420C252.523 420 253.156 419.385 253.156 418.156C253.156 416.87 252.516 416.227 251.234 416.227C250.625 416.227 250.156 416.391 249.828 416.719C249.5 417.047 249.336 417.534 249.336 418.18ZM260.836 424.156C259.57 424.156 258.57 423.771 257.836 423C257.107 422.229 256.742 421.159 256.742 419.789C256.742 418.409 257.081 417.312 257.758 416.5C258.44 415.688 259.354 415.281 260.5 415.281C261.573 415.281 262.422 415.635 263.047 416.344C263.672 417.047 263.984 417.977 263.984 419.133V419.953H258.086C258.112 420.958 258.365 421.721 258.844 422.242C259.328 422.763 260.008 423.023 260.883 423.023C261.805 423.023 262.716 422.831 263.617 422.445V423.602C263.159 423.799 262.724 423.94 262.312 424.023C261.906 424.112 261.414 424.156 260.836 424.156ZM260.484 416.367C259.797 416.367 259.247 416.591 258.836 417.039C258.43 417.487 258.19 418.107 258.117 418.898H262.594C262.594 418.081 262.411 417.456 262.047 417.023C261.682 416.586 261.161 416.367 260.484 416.367ZM271.727 421.664C271.727 422.461 271.43 423.076 270.836 423.508C270.242 423.94 269.409 424.156 268.336 424.156C267.201 424.156 266.315 423.977 265.68 423.617V422.414C266.091 422.622 266.531 422.786 267 422.906C267.474 423.026 267.93 423.086 268.367 423.086C269.044 423.086 269.565 422.979 269.93 422.766C270.294 422.547 270.477 422.216 270.477 421.773C270.477 421.44 270.331 421.156 270.039 420.922C269.753 420.682 269.19 420.401 268.352 420.078C267.555 419.781 266.987 419.523 266.648 419.305C266.315 419.081 266.065 418.828 265.898 418.547C265.737 418.266 265.656 417.93 265.656 417.539C265.656 416.841 265.94 416.292 266.508 415.891C267.076 415.484 267.854 415.281 268.844 415.281C269.766 415.281 270.667 415.469 271.547 415.844L271.086 416.898C270.227 416.544 269.448 416.367 268.75 416.367C268.135 416.367 267.672 416.464 267.359 416.656C267.047 416.849 266.891 417.115 266.891 417.453C266.891 417.682 266.948 417.878 267.062 418.039C267.182 418.201 267.372 418.354 267.633 418.5C267.893 418.646 268.393 418.857 269.133 419.133C270.148 419.503 270.833 419.875 271.188 420.25C271.547 420.625 271.727 421.096 271.727 421.664Z" fill="#5A7184"/>
<path d="M143.148 350H146.148V342.776H153.468V350H156.468V333.272H153.468V340.016H146.148V333.272H143.148V350ZM165.008 337.928C162.752 337.928 161 338.864 159.68 340.472L161.768 342.224C162.608 341.096 163.736 340.448 164.96 340.448C166.304 340.448 167.192 341.216 167.192 342.536V342.872H164.24C163.04 342.872 161.96 343.016 161.096 343.4C160.016 343.904 159.32 344.816 159.32 346.376C159.32 348.92 161.456 350.24 163.592 350.24C164.936 350.24 166.4 349.712 167.192 348.464L167.432 350H170.072V342.536C170.072 339.416 167.864 337.928 165.008 337.928ZM164.048 347.792C162.848 347.792 162.2 347.24 162.2 346.424C162.2 345.944 162.392 345.632 162.68 345.44C163.16 345.08 163.928 345.032 164.624 345.032H167.192V345.128C167.024 346.496 165.92 347.792 164.048 347.792ZM176.999 350.24C179.231 350.24 181.607 349.04 181.607 346.28C181.607 341.96 175.607 343.016 175.607 341.216C175.607 340.664 176.183 340.208 177.119 340.208C178.415 340.208 179.063 340.976 179.471 341.72L181.703 340.496C180.815 338.888 179.255 337.928 177.215 337.928C174.935 337.928 172.823 339.104 172.823 341.624C172.823 345.776 178.775 344.456 178.775 346.448C178.775 347.072 178.199 347.84 176.855 347.84C175.271 347.84 174.647 346.76 174.335 345.896L172.031 346.928C172.607 348.728 174.503 350.24 176.999 350.24ZM184.379 350H187.259V345.272C187.259 343.16 187.259 340.448 189.947 340.448C192.131 340.448 192.131 342.272 192.131 343.088V350H195.011V342.368C195.011 339.56 193.499 337.928 190.835 337.928C189.395 337.928 188.099 338.408 187.259 339.536V333.272H184.379V350ZM204.625 340.448V338.168H201.673V333.272L198.793 335.408V338.168H196.873V340.448H198.793V346.688C198.793 349.208 200.473 350.24 202.465 350.24C203.185 350.24 203.905 350.12 204.625 349.88V347.576C204.097 347.744 203.593 347.84 203.185 347.84C202.249 347.84 201.673 347.408 201.673 346.472V340.448H204.625ZM212.003 337.928C209.747 337.928 207.995 338.864 206.675 340.472L208.763 342.224C209.603 341.096 210.731 340.448 211.955 340.448C213.299 340.448 214.187 341.216 214.187 342.536V342.872H211.235C210.035 342.872 208.955 343.016 208.091 343.4C207.011 343.904 206.315 344.816 206.315 346.376C206.315 348.92 208.451 350.24 210.587 350.24C211.931 350.24 213.395 349.712 214.187 348.464L214.427 350H217.067V342.536C217.067 339.416 214.859 337.928 212.003 337.928ZM211.043 347.792C209.843 347.792 209.195 347.24 209.195 346.424C209.195 345.944 209.387 345.632 209.675 345.44C210.155 345.08 210.923 345.032 211.619 345.032H214.187V345.128C214.019 346.496 212.915 347.792 211.043 347.792ZM222.147 346.904C222.147 346.616 222.267 346.424 222.483 346.28C223.179 346.568 223.947 346.736 224.763 346.736C227.355 346.736 229.563 345.056 229.563 342.416C229.563 341.648 229.371 340.952 229.059 340.352L230.763 338.96L229.251 337.136L227.451 338.672C226.659 338.192 225.699 337.928 224.667 337.928C222.027 337.928 219.819 339.704 219.819 342.272C219.819 343.304 220.179 344.24 220.779 344.984C220.083 345.584 219.675 346.328 219.675 347.36C219.675 348.536 220.179 349.256 220.923 349.736L219.147 350.864C219.123 350.984 219.099 351.104 219.099 351.392C219.099 353.84 221.115 355.136 224.643 355.136C227.835 355.136 230.091 354.08 230.091 351.608C230.091 347 222.147 349.184 222.147 346.904ZM224.715 340.328C225.939 340.328 226.683 341.12 226.683 342.344C226.683 343.496 226.035 344.384 224.715 344.384C223.371 344.384 222.699 343.472 222.699 342.344C222.699 341.144 223.491 340.328 224.715 340.328ZM224.763 352.976C223.419 352.976 221.955 352.664 221.955 351.656C221.955 351.608 221.955 351.536 221.979 351.464L223.011 350.456C225.027 350.84 227.211 350.768 227.211 351.872C227.211 352.688 225.987 352.976 224.763 352.976ZM247.024 340.952V343.376H250.72C250.624 346.088 248.776 347.384 246.16 347.384C242.56 347.384 241.048 344.84 241.048 341.504C241.048 338.408 242.56 335.864 246.16 335.864C248.656 335.864 250.144 337.088 250.816 338.864L253.576 337.784C252.472 335 250.048 333.008 246.16 333.008C240.616 333.008 238.048 337.064 238.048 341.648C238.048 346.208 240.64 350.24 246.16 350.24C248.392 350.24 250.192 349.232 251.104 347.648L251.368 350H253.744V340.952H247.024ZM257.11 350H259.99V344.048C259.99 341.816 260.854 340.736 262.606 340.736C263.182 340.736 263.638 340.88 264.046 341.144L265.438 338.6C264.67 338.12 263.974 337.928 263.182 337.928C261.862 337.928 260.518 338.72 260.014 340.16V338.168H257.11V350ZM271.369 350.24C275.017 350.24 277.297 347.408 277.297 344.072C277.297 340.712 275.017 337.928 271.369 337.928C267.697 337.928 265.441 340.712 265.441 344.072C265.441 347.408 267.697 350.24 271.369 350.24ZM271.369 347.72C269.185 347.72 268.321 345.992 268.321 344.072C268.321 342.128 269.185 340.448 271.369 340.448C273.553 340.448 274.417 342.128 274.417 344.072C274.417 345.992 273.553 347.72 271.369 347.72ZM281.558 350H284.15L286.478 342.248L288.806 350H291.398L295.046 338.168H291.974L289.934 345.56L287.702 338.168H285.23L282.998 345.584L280.982 338.168H277.91L281.558 350ZM303.748 340.448V338.168H300.796V333.272L297.916 335.408V338.168H295.996V340.448H297.916V346.688C297.916 349.208 299.596 350.24 301.588 350.24C302.308 350.24 303.028 350.12 303.748 349.88V347.576C303.22 347.744 302.716 347.84 302.308 347.84C301.372 347.84 300.796 347.408 300.796 346.472V340.448H303.748ZM305.91 350H308.79V345.272C308.79 343.16 308.79 340.448 311.478 340.448C313.662 340.448 313.662 342.272 313.662 343.088V350H316.542V342.368C316.542 339.56 315.03 337.928 312.366 337.928C310.926 337.928 309.63 338.408 308.79 339.536V333.272H305.91V350Z" fill="#183B56"/>
<path d="M52 34.5H406" stroke="#EEF0F2" stroke-dasharray="4 4"/>
<path d="M52 98.5H406" stroke="#EEF0F2" stroke-dasharray="4 4"/>
<path d="M52 162.5H406" stroke="#EEF0F2" stroke-dasharray="4 4"/>
<path d="M52 226.5H406" stroke="#EEF0F2" stroke-dasharray="4 4"/>
<path d="M336.204 138.22L335.052 137.259L336.204 138.22ZM333.9 136.298L335.052 137.259L333.9 136.298ZM53.4119 163.006L52 162.5H52L53.4119 163.006ZM77.6077 129.231L78.4654 130.461L77.6077 129.231ZM51.4936 163.912L50.9871 165.324L50.9871 165.324L51.4936 163.912ZM50.5881 161.994L52 162.5L52 162.5L50.5881 161.994ZM75.8923 126.769L75.0346 125.539L75.8923 126.769ZM156.309 130.197L155.364 131.361V131.361L156.309 130.197ZM156.528 132.307L157.692 133.253V133.253L156.528 132.307ZM154.418 132.526L155.364 131.361L155.364 131.361L154.418 132.526ZM327.54 101.395L328.755 102.275L328.755 102.275L327.54 101.395ZM327.206 99.3003L326.325 100.515L326.325 100.515L327.206 99.3003ZM310.427 127.072L311.691 127.879V127.879L310.427 127.072ZM308.613 129.911L309.877 130.719V130.719L308.613 129.911ZM290.224 156.641L289.046 155.713V155.713L290.224 156.641ZM170.653 147.489L169.604 148.561L170.653 147.489ZM162.371 139.509L161.348 140.606L162.371 139.509ZM162.297 137.389L161.2 136.366L162.297 137.389ZM164.417 137.315L165.441 136.219V136.219L164.417 137.315ZM172.85 145.429L171.802 146.502L172.85 145.429ZM287.868 154.784L289.046 155.713L287.868 154.784ZM306.086 128.295L307.35 129.103V129.103L306.086 128.295ZM307.901 125.453L306.637 124.646V124.646L307.901 125.453ZM325.111 99.6348L326.325 100.515L326.325 100.515L325.111 99.6348ZM337.355 139.181C354.358 118.8 375.2 103.515 406 103.515V100.515C373.988 100.515 352.38 116.489 335.052 137.259L337.355 139.181ZM333.13 139.562C334.402 140.624 336.294 140.453 337.355 139.181L335.052 137.259V137.259L333.13 139.562ZM332.748 135.337C331.687 136.609 331.858 138.501 333.13 139.562L335.052 137.259L332.748 135.337ZM406 97.515C372.775 97.515 350.4 114.178 332.748 135.337L335.052 137.259C352.38 116.489 373.988 100.515 406 100.515V97.515ZM409 100.515C409 98.8581 407.657 97.515 406 97.515V100.515H409ZM406 103.515C407.657 103.515 409 102.172 409 100.515H406V103.515ZM54.8238 163.513C60.1596 148.637 68.0776 137.701 78.4654 130.461L76.75 128C65.75 135.667 57.5 147.167 52 162.5L54.8238 163.513ZM50.9871 165.324C52.5467 165.883 54.2644 165.072 54.8238 163.513L52 162.5H52L50.9871 165.324ZM49.1762 161.487C48.6168 163.047 49.4276 164.764 50.9871 165.324L52 162.5H52L49.1762 161.487ZM75.0346 125.539C63.4223 133.632 54.8404 145.696 49.1762 161.487L52 162.5C57.5 147.167 65.75 135.667 76.75 128L75.0346 125.539ZM118 113.5C101.03 113.5 86.6438 117.448 75.0346 125.539L76.75 128C87.75 120.333 101.5 116.5 118 116.5V113.5ZM157.255 129.033C146.321 120.152 134.084 113.5 118 113.5V116.5C133.142 116.5 144.728 122.723 155.364 131.361L157.255 129.033ZM157.692 133.253C158.737 131.967 158.541 130.077 157.255 129.033L155.364 131.361L157.692 133.253ZM153.472 133.69C154.758 134.734 156.648 134.539 157.692 133.253L155.364 131.361H155.364L153.472 133.69ZM118 119.5C132.201 119.5 143.136 125.294 153.472 133.69L155.364 131.361C144.728 122.723 133.142 116.5 118 116.5V119.5ZM78.4654 130.461C88.8563 123.219 101.97 119.5 118 119.5V116.5C101.5 116.5 87.75 120.333 76.75 128L78.4654 130.461ZM328.755 102.275C329.727 100.934 329.427 99.0579 328.086 98.0857L326.325 100.515V100.515L328.755 102.275ZM311.691 127.879C317.18 119.283 322.742 110.573 328.755 102.275L326.325 100.515C320.252 108.896 314.644 117.681 309.163 126.265L311.691 127.879ZM309.877 130.719C310.481 129.775 311.086 128.828 311.691 127.879L309.163 126.265C308.557 127.213 307.953 128.16 307.35 129.103L309.877 130.719ZM291.402 157.57C297.8 149.453 303.822 140.188 309.877 130.719L307.35 129.103C301.289 138.58 295.34 147.728 289.046 155.713L291.402 157.57ZM243.5 186C263.893 186 278.63 173.774 291.402 157.57L289.046 155.713C276.459 171.683 262.495 183 243.5 183V186ZM169.604 148.561C187.626 166.201 207.798 186 243.5 186V183C209.134 183 189.75 164.082 171.702 146.417L169.604 148.561ZM161.348 140.606C164.085 143.159 166.816 145.832 169.604 148.561L171.702 146.417C168.919 143.693 166.162 140.994 163.394 138.412L161.348 140.606ZM161.2 136.366C160.07 137.577 160.136 139.476 161.348 140.606L163.394 138.412V138.412L161.2 136.366ZM165.441 136.219C164.229 135.088 162.331 135.154 161.2 136.366L163.394 138.412V138.412L165.441 136.219ZM173.898 144.356C171.088 141.61 168.282 138.869 165.441 136.219L163.394 138.412C166.206 141.035 168.987 143.752 171.802 146.502L173.898 144.356ZM243.5 180C210.439 180 191.967 162.009 173.898 144.356L171.802 146.502C189.842 164.127 209.103 183 243.5 183V180ZM286.69 153.856C274.289 169.589 261.097 180 243.5 180V183C262.495 183 276.459 171.683 289.046 155.713L286.69 153.856ZM304.822 127.487C298.755 136.973 292.88 146.003 286.69 153.856L289.046 155.713C295.34 147.728 301.289 138.58 307.35 129.103L304.822 127.487ZM306.637 124.646C306.03 125.597 305.425 126.544 304.822 127.487L307.35 129.103C307.953 128.159 308.559 127.211 309.165 126.261L306.637 124.646ZM323.896 98.7546C317.768 107.211 312.111 116.072 306.637 124.646L309.165 126.261C314.647 117.674 320.258 108.888 326.325 100.515L323.896 98.7546ZM328.086 98.0857C326.744 97.1135 324.868 97.413 323.896 98.7546L326.325 100.515L326.325 100.515L328.086 98.0857Z" fill="#E95432"/>
<path d="M117 116.5C117 120.09 114.09 123 110.5 123C106.91 123 104 120.09 104 116.5C104 112.91 106.91 110 110.5 110C114.09 110 117 112.91 117 116.5Z" fill="#E95432" stroke="white" stroke-width="2"/>
<path d="M252 183.5C252 187.09 249.09 190 245.5 190C241.91 190 239 187.09 239 183.5C239 179.91 241.91 177 245.5 177C249.09 177 252 179.91 252 183.5Z" fill="#E95432" stroke="white" stroke-width="2"/>
<path d="M390 53.5C390 57.0899 387.09 60 383.5 60C379.91 60 377 57.0899 377 53.5C377 49.9101 379.91 47 383.5 47C387.09 47 390 49.9101 390 53.5Z" fill="#E95432" stroke="white" stroke-width="2"/>
<path d="M52 195.5C52 195.5 104.403 194.492 121.5 183C147.635 165.434 154.424 128.956 178 121.5C236.5 103 226.5 58.5 261 47C295.5 35.5 319.5 121.5 406 121.5" stroke="#FAAD13" stroke-width="3" stroke-linecap="round"/>
<path d="M117 188.5C117 192.09 114.09 195 110.5 195C106.91 195 104 192.09 104 188.5C104 184.91 106.91 182 110.5 182C114.09 182 117 184.91 117 188.5Z" fill="#FAAD13" stroke="white" stroke-width="2"/>
<path d="M273 45.5C273 49.0899 270.09 52 266.5 52C262.91 52 260 49.0899 260 45.5C260 41.9101 262.91 39 266.5 39C270.09 39 273 41.9101 273 45.5Z" fill="#FAAD13" stroke="white" stroke-width="2"/>
<path d="M390 118.5C390 122.09 387.09 125 383.5 125C379.91 125 377 122.09 377 118.5C377 114.91 379.91 112 383.5 112C387.09 112 390 114.91 390 118.5Z" fill="#FAAD13" stroke="white" stroke-width="2"/>
<path d="M48 148.5C118.5 200 146 98.5 181 98.5C216 98.5 213.5 151 270 151C326.5 151 324 98.5 406 98.5" stroke="#36B37E" stroke-width="3" stroke-linecap="round"/>
<path d="M95 162.5C95 166.09 92.0899 169 88.5 169C84.9101 169 82 166.09 82 162.5C82 158.91 84.9101 156 88.5 156C92.0899 156 95 158.91 95 162.5Z" fill="#36B37E" stroke="white" stroke-width="2"/>
<path d="M185 98.5C185 102.09 182.09 105 178.5 105C174.91 105 172 102.09 172 98.5C172 94.9101 174.91 92 178.5 92C182.09 92 185 94.9101 185 98.5Z" fill="#36B37E" stroke="white" stroke-width="2"/>
<path d="M390 98.5C390 102.09 387.09 105 383.5 105C379.91 105 377 102.09 377 98.5C377 94.9101 379.91 92 383.5 92C387.09 92 390 94.9101 390 98.5Z" fill="#36B37E" stroke="white" stroke-width="2"/>
</g>
<defs>
<clipPath id="clip0_1_137">
<rect width="458" height="480" fill="white"/>
</clipPath>
<clipPath id="clip1_1_137">
<rect width="87" height="32" fill="white" transform="translate(89 253)"/>
</clipPath>
<clipPath id="clip2_1_137">
<rect width="81" height="32" fill="white" transform="translate(192 253)"/>
</clipPath>
<clipPath id="clip3_1_137">
<rect width="81" height="32" fill="white" transform="translate(289 253)"/>
</clipPath>
</defs>
</svg>
