<svg width="152" height="18" viewBox="0 0 152 18" fill="none" xmlns="http://www.w3.org/2000/svg">
<path d="M0.112 17H3.088V10.064H5.584C9.232 10.064 11.272 8.36 11.272 5.096C11.272 2.096 9.568 0.271999 5.584 0.271999H0.112V17ZM3.088 7.304V3.032H5.272C7.216 3.032 8.272 3.512 8.272 5.144C8.272 6.776 7.216 7.304 5.272 7.304H3.088ZM17.7832 17.24C21.4313 17.24 23.7113 14.408 23.7113 11.072C23.7113 7.712 21.4313 4.928 17.7832 4.928C14.1112 4.928 11.8552 7.712 11.8552 11.072C11.8552 14.408 14.1112 17.24 17.7832 17.24ZM17.7832 14.72C15.5993 14.72 14.7353 12.992 14.7353 11.072C14.7353 9.128 15.5993 7.448 17.7832 7.448C19.9673 7.448 20.8312 9.128 20.8312 11.072C20.8312 12.992 19.9673 14.72 17.7832 14.72ZM29.8848 17.24C32.1168 17.24 34.4928 16.04 34.4928 13.28C34.4928 8.96 28.4928 10.016 28.4928 8.216C28.4928 7.664 29.0688 7.208 30.0048 7.208C31.3008 7.208 31.9488 7.976 32.3568 8.72L34.5888 7.496C33.7008 5.888 32.1408 4.928 30.1008 4.928C27.8208 4.928 25.7088 6.104 25.7088 8.624C25.7088 12.776 31.6608 11.456 31.6608 13.448C31.6608 14.072 31.0848 14.84 29.7408 14.84C28.1568 14.84 27.5328 13.76 27.2208 12.896L24.9168 13.928C25.4928 15.728 27.3888 17.24 29.8848 17.24ZM43.5529 7.448V5.168H40.6009V0.271999L37.7209 2.408V5.168H35.8009V7.448H37.7209V13.688C37.7209 16.208 39.4009 17.24 41.3929 17.24C42.1129 17.24 42.8329 17.12 43.5529 16.88V14.576C43.0249 14.744 42.5209 14.84 42.1129 14.84C41.1769 14.84 40.6009 14.408 40.6009 13.472V7.448H43.5529ZM59.4665 17.24C64.7465 17.24 67.4585 13.184 67.4585 8.648C67.4585 4.088 64.7465 0.0319996 59.4665 0.0319996C54.1625 0.0319996 51.4745 4.088 51.4745 8.648C51.4745 13.184 54.1625 17.24 59.4665 17.24ZM59.4665 14.384C56.1065 14.384 54.4745 11.792 54.4745 8.648C54.4745 5.48 56.1065 2.888 59.4665 2.888C62.8025 2.888 64.4585 5.48 64.4585 8.648C64.4585 11.792 62.8025 14.384 59.4665 14.384ZM73.279 17H75.655L80.479 5.168H77.359L74.455 13.256L71.599 5.168H68.455L73.279 17ZM86.7165 17.24C88.7085 17.24 90.2685 16.544 91.5645 15.104L89.5725 13.352C88.7565 14.288 87.7965 14.624 86.7405 14.624C84.8685 14.624 83.9085 13.592 83.7885 12.032H91.9005C91.9485 11.648 91.9725 11.288 91.9725 10.928C91.9725 7.64 90.1965 4.928 86.5245 4.928C82.5885 4.928 80.9085 8.048 80.9085 11.144C80.9085 14.312 82.6365 17.24 86.7165 17.24ZM83.8125 9.992C83.7645 8.744 84.6285 7.328 86.5005 7.328C87.9405 7.328 88.9965 8.12 89.1885 9.536C89.2125 9.68 89.2125 9.848 89.2125 9.992H83.8125ZM94.5378 17H97.4178V11.048C97.4178 8.816 98.2818 7.736 100.034 7.736C100.61 7.736 101.066 7.88 101.474 8.144L102.866 5.6C102.098 5.12 101.402 4.928 100.61 4.928C99.2898 4.928 97.9458 5.72 97.4418 7.16V5.168H94.5378V17ZM107.91 17H110.286L115.11 5.168H111.99L109.086 13.256L106.23 5.168H103.086L107.91 17ZM116.803 2.936H119.827V0.271999H116.803V2.936ZM116.875 17H119.755V5.168H116.875V17ZM128.134 17.24C130.126 17.24 131.686 16.544 132.982 15.104L130.99 13.352C130.174 14.288 129.214 14.624 128.158 14.624C126.286 14.624 125.326 13.592 125.206 12.032H133.318C133.366 11.648 133.39 11.288 133.39 10.928C133.39 7.64 131.614 4.928 127.942 4.928C124.006 4.928 122.326 8.048 122.326 11.144C122.326 14.312 124.054 17.24 128.134 17.24ZM125.23 9.992C125.182 8.744 126.046 7.328 127.918 7.328C129.358 7.328 130.414 8.12 130.606 9.536C130.63 9.68 130.63 9.848 130.63 9.992H125.23ZM138.019 17H140.611L142.939 9.248L145.267 17H147.859L151.507 5.168H148.435L146.395 12.56L144.163 5.168H141.691L139.459 12.584L137.443 5.168H134.371L138.019 17Z" fill="#183B56"/>
</svg>
