<svg width="102" height="22" viewBox="0 0 102 22" fill="none" xmlns="http://www.w3.org/2000/svg">
<path d="M0.480013 16.8H3.00001V9.74405H5.68801C9.31201 9.74405 11.328 8.04005 11.328 4.84805C11.328 1.87205 9.57601 0.0720469 5.68801 0.0720469H0.480013V16.8ZM3.00001 7.39205V2.40005H5.44801C7.58401 2.40005 8.78401 3.07205 8.78401 4.89605C8.78401 6.69605 7.60801 7.39205 5.44801 7.39205H3.00001ZM18.0713 17.016C21.6233 17.016 23.9273 14.256 23.9273 10.872C23.9273 7.46405 21.6233 4.75205 18.0713 4.75205C14.4953 4.75205 12.2393 7.46405 12.2393 10.872C12.2393 14.256 14.4953 17.016 18.0713 17.016ZM18.0713 14.88C15.7673 14.88 14.6873 13.056 14.6873 10.872C14.6873 8.66405 15.7673 6.88805 18.0713 6.88805C20.3993 6.88805 21.4793 8.66405 21.4793 10.872C21.4793 13.056 20.3993 14.88 18.0713 14.88ZM30.378 17.016C32.634 17.016 34.842 15.816 34.842 13.2C34.842 8.80805 28.554 10.128 28.554 7.94405C28.554 7.24805 29.25 6.69605 30.378 6.69605C31.746 6.69605 32.49 7.46405 32.946 8.32805L34.842 7.27205C33.978 5.68805 32.442 4.75205 30.474 4.75205C28.194 4.75205 26.202 5.90405 26.202 8.30405C26.202 12.48 32.442 10.92 32.442 13.32C32.442 14.16 31.746 14.976 30.258 14.976C28.602 14.976 27.786 13.896 27.426 12.888L25.458 13.776C26.058 15.576 27.93 17.016 30.378 17.016ZM43.677 6.91205V4.96805H40.749V0.192047L38.301 2.01605V4.96805H36.381V6.91205H38.301V13.68C38.301 16.032 39.789 17.016 41.637 17.016C42.309 17.016 42.981 16.896 43.677 16.68V14.712C43.149 14.88 42.645 14.976 42.237 14.976C41.301 14.976 40.749 14.52 40.749 13.488V6.91205H43.677ZM56.6762 16.8H59.2442V2.40005H64.6682V0.0720469H51.2522V2.40005H56.6762V16.8ZM66.5719 21.696H69.2119L75.8359 4.96805H73.1479L69.9319 13.728L66.5479 4.96805H63.8599L68.6119 16.536L66.5719 21.696ZM77.9462 21.696H80.3942V15.12C81.1142 16.272 82.5542 17.016 84.0902 17.016C87.0182 17.016 89.0822 14.688 89.0822 10.896C89.0822 7.36805 87.2822 4.75205 84.0902 4.75205C82.6022 4.75205 81.1862 5.37605 80.3942 6.62405V4.96805H77.9462V21.696ZM83.4902 14.88C81.2822 14.88 80.1782 13.152 80.1782 10.872C80.1782 8.56805 81.2822 6.88805 83.5142 6.88805C85.6022 6.88805 86.6342 8.37605 86.6342 10.872C86.6342 13.344 85.5782 14.88 83.4902 14.88ZM96.7418 17.016C98.7098 17.016 100.174 16.368 101.494 14.928L99.7898 13.44C98.9018 14.448 97.9418 14.808 96.7658 14.808C94.7258 14.808 93.5978 13.584 93.5018 11.664H101.806C101.854 11.304 101.878 10.92 101.878 10.584C101.878 7.48805 100.198 4.75205 96.5498 4.75205C92.7818 4.75205 91.0538 7.75205 91.0538 10.944C91.0538 14.184 92.8298 17.016 96.7418 17.016ZM93.5258 9.91205C93.5018 8.32805 94.5338 6.79205 96.5258 6.79205C98.3018 6.79205 99.3578 7.89605 99.5258 9.40805C99.5498 9.57605 99.5498 9.76805 99.5258 9.91205H93.5258Z" fill="#183B56"/>
</svg>
