<svg width="179" height="21" viewBox="0 0 179 21" fill="none" xmlns="http://www.w3.org/2000/svg">
<g clip-path="url(#clip0_1_326)">
<path d="M10.3672 2.20312L7.82812 7.39844L2.08594 8.21875C1.07031 8.375 0.679688 9.625 1.42188 10.3672L5.52344 14.3906L4.54688 20.0547C4.39062 21.0703 5.48438 21.8516 6.38281 21.3828L11.5 18.6875L16.5781 21.3828C17.4766 21.8516 18.5703 21.0703 18.4141 20.0547L17.4375 14.3906L21.5391 10.3672C22.2812 9.625 21.8906 8.375 20.875 8.21875L15.1719 7.39844L12.5938 2.20312C12.1641 1.30469 10.8359 1.26562 10.3672 2.20312Z" fill="#FAAD13"/>
<path d="M49.3672 2.20312L46.8281 7.39844L41.0859 8.21875C40.0703 8.375 39.6797 9.625 40.4219 10.3672L44.5234 14.3906L43.5469 20.0547C43.3906 21.0703 44.4844 21.8516 45.3828 21.3828L50.5 18.6875L55.5781 21.3828C56.4766 21.8516 57.5703 21.0703 57.4141 20.0547L56.4375 14.3906L60.5391 10.3672C61.2812 9.625 60.8906 8.375 59.875 8.21875L54.1719 7.39844L51.5938 2.20312C51.1641 1.30469 49.8359 1.26562 49.3672 2.20312Z" fill="#FAAD13"/>
<path d="M88.3672 2.20312L85.8281 7.39844L80.0859 8.21875C79.0703 8.375 78.6797 9.625 79.4219 10.3672L83.5234 14.3906L82.5469 20.0547C82.3906 21.0703 83.4844 21.8516 84.3828 21.3828L89.5 18.6875L94.5781 21.3828C95.4766 21.8516 96.5703 21.0703 96.4141 20.0547L95.4375 14.3906L99.5391 10.3672C100.281 9.625 99.8906 8.375 98.875 8.21875L93.1719 7.39844L90.5938 2.20312C90.1641 1.30469 88.8359 1.26562 88.3672 2.20312Z" fill="#FAAD13"/>
<path d="M127.367 2.20312L124.828 7.39844L119.086 8.21875C118.07 8.375 117.68 9.625 118.422 10.3672L122.523 14.3906L121.547 20.0547C121.391 21.0703 122.484 21.8516 123.383 21.3828L128.5 18.6875L133.578 21.3828C134.477 21.8516 135.57 21.0703 135.414 20.0547L134.438 14.3906L138.539 10.3672C139.281 9.625 138.891 8.375 137.875 8.21875L132.172 7.39844L129.594 2.20312C129.164 1.30469 127.836 1.26562 127.367 2.20312Z" fill="#FAAD13"/>
<path d="M166.367 2.20312L163.828 7.39844L158.086 8.21875C157.07 8.375 156.68 9.625 157.422 10.3672L161.523 14.3906L160.547 20.0547C160.391 21.0703 161.484 21.8516 162.383 21.3828L167.5 18.6875L172.578 21.3828C173.477 21.8516 174.57 21.0703 174.414 20.0547L173.438 14.3906L177.539 10.3672C178.281 9.625 177.891 8.375 176.875 8.21875L171.172 7.39844L168.594 2.20312C168.164 1.30469 166.836 1.26562 166.367 2.20312Z" fill="#FAAD13"/>
</g>
<defs>
<clipPath id="clip0_1_326">
<rect width="179" height="21" fill="white"/>
</clipPath>
</defs>
</svg>
