<svg width="364" height="216" viewBox="0 0 364 216" fill="none" xmlns="http://www.w3.org/2000/svg">
<g filter="url(#filter0_d_1_836)">
<rect x="39" y="22" width="286" height="137.28" rx="11.44" fill="white"/>
</g>
<path d="M169.912 79.24C173.176 79.24 176.104 77.464 176.104 74.08C176.104 72.256 175.264 70.672 173.032 70.048C174.688 69.28 175.216 67.912 175.216 66.616C175.216 63.736 172.648 62.032 169.864 62.032C166.984 62.032 164.512 63.856 164.512 67L167.344 67.192C167.368 65.68 168.376 64.792 169.912 64.792C171.256 64.792 172.336 65.488 172.336 66.976C172.336 68.272 171.976 69.112 169.168 69.112V71.392C171.04 71.392 173.224 71.464 173.224 73.84C173.224 75.664 171.688 76.48 169.96 76.48C168.016 76.48 166.552 75.448 166.552 73.552L163.696 73.72C163.696 77.416 166.576 79.24 169.912 79.24ZM184.271 62.032C180.935 62.032 178.198 64.648 178.198 67.864C178.198 70.384 179.854 72.472 182.086 73.312C182.879 73.624 183.719 73.768 184.582 73.72L181.15 79H184.463L189.455 70.96C190.007 70.048 190.391 69.016 190.391 67.84C190.391 64.648 187.631 62.032 184.271 62.032ZM184.271 70.936C182.519 70.936 181.127 69.544 181.127 67.864C181.127 66.184 182.519 64.792 184.271 64.792C186.047 64.792 187.439 66.184 187.439 67.864C187.439 69.544 186.047 70.936 184.271 70.936ZM198.557 79.24C201.773 79.24 204.749 77.56 204.749 74.104C204.749 72.256 203.909 70.744 202.325 69.904C203.309 69.088 203.933 67.936 203.933 66.568C203.933 63.712 201.341 62.032 198.557 62.032C195.773 62.032 193.181 63.712 193.181 66.568C193.181 67.936 193.805 69.088 194.789 69.904C193.205 70.744 192.365 72.256 192.365 74.104C192.365 77.56 195.341 79.24 198.557 79.24ZM198.557 69.088C197.069 69.088 196.061 68.272 196.061 66.808C196.061 65.608 197.093 64.792 198.557 64.792C200.021 64.792 201.053 65.608 201.053 66.808C201.053 68.272 200.045 69.088 198.557 69.088ZM198.557 76.504C196.685 76.504 195.245 75.616 195.245 73.888C195.245 72.064 196.613 71.056 198.557 71.056C200.501 71.056 201.869 72.064 201.869 73.888C201.869 75.616 200.429 76.504 198.557 76.504ZM222.515 79L216.131 68.608L222.347 62.272H218.411L210.899 70.144V62.272H207.899V79H210.899V73.912L214.091 70.672L219.035 79H222.515Z" fill="#183B56"/>
<path d="M168.722 116H167.228V104.478H163.158V103.15H172.791V104.478H168.722V116ZM182.828 111.175C182.828 112.745 182.433 113.973 181.642 114.857C180.851 115.736 179.758 116.176 178.363 116.176C177.502 116.176 176.737 115.974 176.069 115.569C175.401 115.165 174.886 114.585 174.522 113.829C174.159 113.073 173.978 112.188 173.978 111.175C173.978 109.604 174.37 108.383 175.155 107.51C175.94 106.631 177.03 106.191 178.425 106.191C179.772 106.191 180.842 106.64 181.633 107.536C182.43 108.433 182.828 109.646 182.828 111.175ZM175.489 111.175C175.489 112.405 175.735 113.343 176.228 113.987C176.72 114.632 177.443 114.954 178.398 114.954C179.354 114.954 180.077 114.635 180.569 113.996C181.067 113.352 181.316 112.411 181.316 111.175C181.316 109.95 181.067 109.021 180.569 108.389C180.077 107.75 179.348 107.431 178.381 107.431C177.426 107.431 176.705 107.744 176.219 108.371C175.732 108.998 175.489 109.933 175.489 111.175ZM188.506 114.972C188.764 114.972 189.013 114.954 189.253 114.919C189.493 114.878 189.684 114.837 189.824 114.796V115.912C189.666 115.988 189.432 116.05 189.121 116.097C188.816 116.149 188.541 116.176 188.295 116.176C186.432 116.176 185.5 115.194 185.5 113.231V107.501H184.12V106.798L185.5 106.191L186.115 104.135H186.959V106.367H189.754V107.501H186.959V113.17C186.959 113.75 187.097 114.195 187.372 114.506C187.647 114.816 188.025 114.972 188.506 114.972ZM197.682 116L197.392 114.629H197.321C196.841 115.232 196.36 115.643 195.88 115.859C195.405 116.07 194.811 116.176 194.096 116.176C193.141 116.176 192.391 115.93 191.846 115.438C191.307 114.945 191.037 114.245 191.037 113.337C191.037 111.392 192.593 110.372 195.704 110.278L197.339 110.226V109.628C197.339 108.872 197.175 108.315 196.847 107.958C196.524 107.595 196.006 107.413 195.291 107.413C194.488 107.413 193.58 107.659 192.566 108.151L192.118 107.035C192.593 106.777 193.111 106.575 193.674 106.429C194.242 106.282 194.811 106.209 195.379 106.209C196.527 106.209 197.377 106.464 197.928 106.974C198.484 107.483 198.763 108.301 198.763 109.426V116H197.682ZM194.386 114.972C195.294 114.972 196.006 114.723 196.521 114.225C197.043 113.727 197.304 113.029 197.304 112.133V111.263L195.845 111.324C194.685 111.365 193.847 111.547 193.331 111.869C192.821 112.186 192.566 112.681 192.566 113.354C192.566 113.882 192.725 114.283 193.041 114.559C193.363 114.834 193.812 114.972 194.386 114.972ZM203.236 116H201.777V102.324H203.236V116ZM211.226 116V103.15H212.72V114.646H218.389V116H211.226ZM221.816 116H220.357V106.367H221.816V116ZM220.234 103.757C220.234 103.423 220.316 103.18 220.48 103.027C220.645 102.869 220.85 102.79 221.096 102.79C221.33 102.79 221.532 102.869 221.702 103.027C221.872 103.186 221.957 103.429 221.957 103.757C221.957 104.085 221.872 104.331 221.702 104.495C221.532 104.653 221.33 104.732 221.096 104.732C220.85 104.732 220.645 104.653 220.48 104.495C220.316 104.331 220.234 104.085 220.234 103.757ZM226.352 111.069C226.604 110.712 226.987 110.243 227.503 109.663L230.614 106.367H232.346L228.443 110.472L232.618 116H230.852L227.45 111.447L226.352 112.396V116H224.91V102.324H226.352V109.575C226.352 109.897 226.328 110.396 226.281 111.069H226.352ZM238.437 116.176C237.013 116.176 235.888 115.742 235.062 114.875C234.241 114.008 233.831 112.804 233.831 111.263C233.831 109.71 234.212 108.477 234.974 107.562C235.741 106.648 236.77 106.191 238.059 106.191C239.266 106.191 240.221 106.59 240.924 107.387C241.627 108.178 241.979 109.224 241.979 110.524V111.447H235.343C235.372 112.578 235.656 113.437 236.195 114.022C236.74 114.608 237.505 114.901 238.489 114.901C239.526 114.901 240.552 114.685 241.565 114.251V115.552C241.05 115.774 240.561 115.933 240.098 116.026C239.641 116.126 239.087 116.176 238.437 116.176ZM238.041 107.413C237.268 107.413 236.649 107.665 236.187 108.169C235.729 108.673 235.46 109.37 235.378 110.261H240.414C240.414 109.341 240.209 108.638 239.799 108.151C239.389 107.659 238.803 107.413 238.041 107.413ZM250.688 113.372C250.688 114.269 250.354 114.96 249.687 115.446C249.019 115.933 248.081 116.176 246.874 116.176C245.597 116.176 244.601 115.974 243.886 115.569V114.216C244.349 114.45 244.844 114.635 245.371 114.77C245.904 114.904 246.417 114.972 246.909 114.972C247.671 114.972 248.257 114.852 248.667 114.611C249.077 114.365 249.282 113.993 249.282 113.495C249.282 113.12 249.118 112.801 248.79 112.537C248.468 112.268 247.835 111.951 246.892 111.588C245.995 111.254 245.356 110.964 244.976 110.718C244.601 110.466 244.319 110.182 244.132 109.865C243.95 109.549 243.859 109.171 243.859 108.731C243.859 107.946 244.179 107.328 244.817 106.877C245.456 106.42 246.332 106.191 247.445 106.191C248.482 106.191 249.496 106.402 250.486 106.824L249.968 108.011C249.001 107.612 248.125 107.413 247.34 107.413C246.648 107.413 246.127 107.521 245.775 107.738C245.424 107.955 245.248 108.254 245.248 108.635C245.248 108.893 245.312 109.112 245.441 109.294C245.576 109.476 245.79 109.648 246.083 109.812C246.376 109.977 246.938 110.214 247.771 110.524C248.913 110.94 249.684 111.359 250.082 111.781C250.486 112.203 250.688 112.733 250.688 113.372Z" fill="#5A7184"/>
<path opacity="0.1" fill-rule="evenodd" clip-rule="evenodd" d="M107.32 124.64C126.274 124.64 141.64 109.274 141.64 90.32C141.64 71.3656 126.274 56 107.32 56C88.3656 56 73 71.3656 73 90.32C73 109.274 88.3656 124.64 107.32 124.64Z" fill="#1565D8"/>
<path d="M101.062 90.25H97.9375C97.3906 90.25 97 90.6797 97 91.1875V100.562C97 101.109 97.3906 101.5 97.9375 101.5H101.062C101.57 101.5 102 101.109 102 100.562V91.1875C102 90.6797 101.57 90.25 101.062 90.25ZM99.5 99.9375C98.9531 99.9375 98.5625 99.5469 98.5625 99C98.5625 98.4922 98.9531 98.0625 99.5 98.0625C100.008 98.0625 100.438 98.4922 100.438 99C100.438 99.5469 100.008 99.9375 99.5 99.9375ZM112 84.7031C112 81.8125 110.125 81.5 109.188 81.5C108.367 81.5 108.016 83.0625 107.859 83.7656C107.625 84.625 107.43 85.4844 106.844 86.0703C105.594 87.3594 104.93 88.9609 103.367 90.4844C103.289 90.6016 103.25 90.7188 103.25 90.8359V99.1953C103.25 99.4297 103.445 99.625 103.68 99.6641C104.305 99.6641 105.125 100.016 105.75 100.289C107 100.836 108.523 101.5 110.398 101.5H110.516C112.195 101.5 114.188 101.5 114.969 100.367C115.32 99.8984 115.398 99.3125 115.203 98.6094C115.867 97.9453 116.18 96.6953 115.867 95.6797C116.531 94.7812 116.609 93.4922 116.219 92.5938C116.688 92.125 117 91.3828 116.961 90.6797C116.961 89.4688 115.945 88.375 114.656 88.375H110.672C110.984 87.2812 112 86.3438 112 84.7031Z" fill="#1565D8"/>
<defs>
<filter id="filter0_d_1_836" x="0" y="0" width="364" height="215.28" filterUnits="userSpaceOnUse" color-interpolation-filters="sRGB">
<feFlood flood-opacity="0" result="BackgroundImageFix"/>
<feColorMatrix in="SourceAlpha" type="matrix" values="0 0 0 0 0 0 0 0 0 0 0 0 0 0 0 0 0 0 127 0" result="hardAlpha"/>
<feOffset dy="17"/>
<feGaussianBlur stdDeviation="19.5"/>
<feColorMatrix type="matrix" values="0 0 0 0 0 0 0 0 0 0 0 0 0 0 0 0 0 0 0.05 0"/>
<feBlend mode="normal" in2="BackgroundImageFix" result="effect1_dropShadow_1_836"/>
<feBlend mode="normal" in="SourceGraphic" in2="effect1_dropShadow_1_836" result="shape"/>
</filter>
</defs>
</svg>
