<svg width="133" height="39" viewBox="0 0 133 39" fill="none" xmlns="http://www.w3.org/2000/svg">
<path d="M24.2388 3.98226C23.709 2.24654 21.8549 1.31192 20.1332 1.84598C18.4115 2.38005 17.4845 4.24929 18.0142 5.98502L26.4902 32.2879C27.0862 33.8901 28.8079 34.8247 30.4634 34.3574C32.1851 33.8234 33.2446 32.0209 32.7148 30.2852C32.7148 30.2184 24.2388 3.98226 24.2388 3.98226Z" fill="#8C98A4"/>
<path d="M11.1275 8.32162C10.5977 6.58589 8.74357 5.65127 7.02188 6.18534C5.30019 6.71941 4.37313 8.58865 4.90288 10.3244L13.3789 36.6273C13.9749 38.2295 15.6966 39.1641 17.352 38.6968C19.0737 38.1627 20.1332 36.3602 19.6035 34.6245C19.6035 34.5578 11.1275 8.32162 11.1275 8.32162Z" fill="#8C98A4"/>
<path d="M34.9663 25.8122C36.688 25.2781 37.615 23.4089 37.0853 21.6732C36.5555 19.9375 34.7014 19.0028 32.9797 19.5369L6.82322 28.0152C5.23397 28.6161 4.30691 30.3518 4.77044 32.0208C5.30019 33.7565 7.0881 34.8246 8.80979 34.2906C8.94223 34.2906 34.9663 25.8122 34.9663 25.8122Z" fill="#8C98A4"/>
<path d="M12.2532 33.2225C13.9749 32.6884 16.1601 31.9541 18.4777 31.153C17.948 29.4173 17.2196 27.2142 16.425 24.8777L10.2004 26.9472L12.2532 33.2225Z" fill="#8C98A4"/>
<path d="M25.4307 28.8832C27.8146 28.0821 29.9999 27.4145 31.6553 26.8136C31.1256 25.0779 30.3972 22.8749 29.6025 20.5383L23.378 22.6078L25.4307 28.8832Z" fill="#8C98A4"/>
<path d="M30.662 12.5273C32.3837 11.9932 33.3108 10.124 32.781 8.38827C32.2513 6.65254 30.3972 5.71792 28.6755 6.25199L2.58522 14.7971C0.995963 15.3979 0.0688986 17.1336 0.532431 18.8026C1.06218 20.6051 2.85009 21.6732 4.57178 21.0724C4.638 21.0724 30.662 12.5273 30.662 12.5273Z" fill="#8C98A4"/>
<path d="M8.01516 19.9376C9.73685 19.4035 11.9221 18.6692 14.2397 17.8681C13.4451 15.4648 12.7829 13.2617 12.1869 11.5928L5.96237 13.6623L8.01516 19.9376Z" fill="#8C98A4"/>
<path d="M21.1265 15.6649C23.5104 14.8638 25.6956 14.1962 27.3511 13.5954C26.5565 11.1921 25.8943 8.98903 25.2983 7.32007L19.0737 9.38959L21.1265 15.6649Z" fill="#8C98A4"/>
<path d="M61.3876 10.9252C62.5133 11.4592 62.6458 11.793 61.7187 13.5288C60.7916 15.3312 60.593 15.398 59.401 14.9307C57.9442 14.3299 56.1563 13.8626 54.9644 13.8626C53.044 13.8626 51.7859 14.5301 51.7859 15.5983C51.7859 19.0697 62.8444 17.2005 62.8444 24.6775C62.8444 28.4159 59.6659 30.886 54.8982 30.886C52.3818 30.886 49.2696 30.0181 47.1506 28.95C46.091 28.4159 46.0248 28.0821 46.9519 26.2797C47.7465 24.7442 48.0114 24.5439 49.1371 25.0112C50.9912 25.8123 53.2427 26.4132 54.8319 26.4132C56.6199 26.4132 57.7456 25.6788 57.7456 24.6107C57.7456 21.206 46.4884 22.8082 46.4884 15.5983C46.4884 11.793 49.6669 9.18945 54.3684 9.18945C56.6199 9.38973 59.4673 10.0573 61.3876 10.9252Z" fill="#8C98A4"/>
<path d="M70.3272 2.11294V29.8845C70.3272 30.2851 69.8636 30.7524 69.2677 30.7524H66.354C65.6918 30.7524 65.2945 30.2851 65.2945 29.8845V2.11294C65.2945 0.71101 65.6918 0.644251 67.8108 0.644251C70.1947 0.577493 70.3272 0.777769 70.3272 2.11294Z" fill="#8C98A4"/>
<path fill-rule="evenodd" clip-rule="evenodd" d="M90.855 29.6175V17.6677C90.855 12.4605 87.3454 9.38965 81.783 9.38965C79.2667 9.38965 76.4855 10.1908 74.499 11.5259C73.4395 12.1935 73.4395 12.5273 74.499 14.1963C75.6247 15.8652 75.8233 15.932 76.8829 15.3312C78.2072 14.5301 79.8627 13.996 81.2533 13.996C84.1669 13.996 85.8886 15.3312 85.8886 17.5342V18.9361C84.498 18.3353 82.7763 18.0015 80.9222 18.0015C75.9558 18.0015 72.7111 20.6719 72.7111 24.6774C72.7111 28.4159 75.6247 30.9527 79.9289 30.9527C82.1804 30.9527 84.4318 30.0181 85.9548 28.2823L85.8886 29.5508C85.8224 30.2183 86.2859 30.6856 86.9481 30.6856H89.7955C90.3915 30.6856 90.855 30.2851 90.855 29.6175ZM80.5249 26.9472C78.737 26.9472 77.545 26.0125 77.545 24.6106C77.545 22.8749 79.333 21.5397 81.9817 21.5397C83.2399 21.5397 84.6967 21.74 85.8224 22.2073V24.0765C84.6967 25.879 82.7101 26.9472 80.5249 26.9472Z" fill="#8C98A4"/>
<path d="M110.522 10.9919C111.582 11.5928 111.582 11.9266 110.456 13.7291C109.396 15.398 109.198 15.5315 108.006 14.9307C107.145 14.4634 105.688 14.0628 104.562 14.0628C100.92 14.0628 98.5364 16.4662 98.5364 20.1379C98.5364 23.9431 100.92 26.4799 104.562 26.4799C105.82 26.4799 107.41 26.0126 108.403 25.4118C109.463 24.811 109.661 24.811 110.787 26.4799C111.78 28.0154 111.78 28.3492 110.853 29.0168C109.264 30.1517 106.681 31.0195 104.43 31.0195C97.7418 31.0195 93.2389 26.6802 93.2389 20.2046C93.2389 13.7291 97.7418 9.4565 104.496 9.4565C106.615 9.38974 108.999 10.0573 110.522 10.9919Z" fill="#8C98A4"/>
<path d="M132.44 28.0821C133.301 29.1502 132.97 29.5508 130.851 30.2851C128.732 31.0862 128.401 31.0195 127.673 30.0181L121.647 21.9403L118.932 24.5439V29.8178C118.932 30.2184 118.468 30.6857 117.872 30.6857H114.959C114.297 30.6857 113.899 30.2184 113.899 29.8178V2.11298C113.899 0.711046 114.297 0.644287 116.416 0.644287C118.866 0.644287 118.932 0.844563 118.932 2.11298V17.868L127.143 9.92374C128.07 9.05587 128.534 9.12263 130.189 10.1908C131.977 11.3257 132.109 11.6595 131.249 12.5273L125.156 18.5356L132.44 28.0821Z" fill="#8C98A4"/>
</svg>
