<svg width="117" height="26" viewBox="0 0 117 26" fill="none" xmlns="http://www.w3.org/2000/svg">
<path d="M19.0742 1.25646V14.9069C19.0742 19.4571 17.1093 21.3481 12.486 21.3481C7.86271 21.3481 5.89782 19.4571 5.89782 14.9069V0.665527H1.44791C1.04337 0.665527 0.869995 0.842806 0.869995 1.25646V15.0842C0.869995 22.7072 5.60886 25.3664 12.486 25.3664C19.3631 25.3664 24.102 22.7072 24.102 15.0842V0.665527H19.6521C19.3053 0.665527 19.0742 0.842806 19.0742 1.25646Z" fill="#8C98A4"/>
<path d="M83.6268 4.62476C83.9735 4.62476 84.1469 4.50657 84.2625 4.21111L85.5339 0.960992C85.5917 0.783713 85.5339 0.665527 85.3605 0.665527H67.4453C65.7693 0.665527 65.1336 1.19736 65.1336 2.37923V23.5345C65.1336 24.5391 65.596 24.9528 66.9252 24.9528H83.6268C83.9735 24.9528 84.1469 24.8346 84.2625 24.5391L85.5339 21.289C85.5917 21.1117 85.5339 20.9935 85.3605 20.9935H70.0459V16.6797C70.0459 15.2024 70.8549 14.4933 72.9932 14.4933H79.6392C79.9859 14.4933 80.1593 14.3751 80.2749 14.0796L81.4885 10.9477C81.5463 10.7704 81.4885 10.6522 81.3151 10.6522H69.9881V4.62476H83.6268Z" fill="#8C98A4"/>
<path fill-rule="evenodd" clip-rule="evenodd" d="M54.8468 6.8112C54.8468 9.11583 54.0378 11.0659 52.0729 12.1296C54.7312 12.8978 55.9449 15.3206 55.8871 18.2162C55.8871 23.0618 52.5352 24.9528 47.8541 24.9528H35.429C34.0998 24.9528 33.6375 24.5391 33.6375 23.5345V2.37923C33.6375 1.19736 34.2732 0.665527 35.9492 0.665527H46.1204C50.5703 0.665527 54.8468 1.43374 54.8468 6.8112ZM38.6075 4.56567H46.4671C49.0677 4.56567 49.819 5.57025 49.819 7.6976C49.819 9.76585 49.0677 10.8295 46.4671 10.8295H38.6075V4.56567ZM47.3918 21.0526H38.6075V16.6206C38.6075 15.1433 39.4166 14.4342 41.5549 14.4342H47.3918C50.1658 14.4342 50.9748 15.557 50.9748 17.7434C50.9748 19.9889 50.1658 21.0526 47.3918 21.0526Z" fill="#8C98A4"/>
<path fill-rule="evenodd" clip-rule="evenodd" d="M111.309 15.2024L116.625 24.5391C116.741 24.6573 116.741 24.9528 116.337 24.9528H111.829C111.496 24.9528 111.376 24.789 111.213 24.5664C111.207 24.5574 111.2 24.5483 111.193 24.5391L106.396 15.6752H102.004C99.8661 15.6752 99.057 16.3843 99.057 17.8616V24.9528H94.7227C94.3181 24.9528 94.1448 24.7755 94.1448 24.3618V2.37923C94.1448 1.19736 94.7805 0.665527 96.4564 0.665527H106.628C112.522 0.665527 116.105 2.26104 116.105 8.17034C116.105 12.7205 113.967 14.4933 111.309 15.2024ZM99.057 11.9523H107.321C110.442 11.9523 111.078 10.7113 111.078 8.22943C111.078 5.80662 110.384 4.56567 107.321 4.56567H99.057V11.9523Z" fill="#8C98A4"/>
</svg>
